<svg id="Component_72_1" data-name="Component 72 – 1" xmlns="http://www.w3.org/2000/svg" xmlns:xlink="http://www.w3.org/1999/xlink" width="197.933" height="59.874" viewBox="0 0 197.933 59.874">
  <defs>
    <linearGradient id="linear-gradient" x1="0.53" y1="0.015" x2="0.47" y2="0.995" gradientUnits="objectBoundingBox">
      <stop offset="0" stop-color="#fff"/>
      <stop offset="0.259" stop-color="#fbfbfb"/>
      <stop offset="0.471" stop-color="#f1f1f1"/>
      <stop offset="0.666" stop-color="#e0e0e0"/>
      <stop offset="0.85" stop-color="#c8c8c9"/>
      <stop offset="1" stop-color="#afafb0"/>
    </linearGradient>
    <linearGradient id="linear-gradient-2" x1="0.5" y1="-0.42" x2="0.5" y2="0.58" gradientUnits="objectBoundingBox">
      <stop offset="0" stop-color="#fff"/>
      <stop offset="0.803" stop-color="#e7e7e9"/>
      <stop offset="1" stop-color="#e1e1e3"/>
    </linearGradient>
  </defs>
  <g id="Component_40_1" data-name="Component 40 – 1">
    <g id="Group_3932" data-name="Group 3932" opacity="0.402">
      <g id="Group_3931" data-name="Group 3931" transform="translate(0 0)">
        <g id="Group_3930" data-name="Group 3930">
          <path id="Path_1458" data-name="Path 1458" d="M666.168,199.705c0,16.534-12.509,29.937-27.941,29.937H496.176c-15.432,0-27.941-13.4-27.941-29.937h0c0-16.534,12.824-29.936,28.256-29.936H638.227c15.432,0,27.941,13.4,27.941,29.936Z" transform="translate(-468.235 -169.769)" fill="url(#linear-gradient)"/>
          <path id="Path_1459" data-name="Path 1459" d="M665.489,200c0,15.639-12.3,28.316-27.482,28.316H498.287c-15.178,0-27.483-12.677-27.483-28.316h0c0-15.638,12.3-28.315,27.483-28.315H638.008c15.178,0,27.482,12.677,27.482,28.315Z" transform="translate(-468.627 -170.061)" fill="url(#linear-gradient-2)"/>
        </g>
      </g>
    </g>
  </g>
  <g id="Group_3943" data-name="Group 3943" transform="translate(20.198 13.465)">
    <g id="Group_3934" data-name="Group 3934" transform="translate(0 0)">
      <g id="Group_3933" data-name="Group 3933" transform="translate(0 0)">
        <path id="Path_1462" data-name="Path 1462" d="M32.659,20.668a6.5,6.5,0,0,1,3.163-5.458,6.848,6.848,0,0,0-5.357-2.838c-2.255-.231-4.441,1.322-5.589,1.322-1.17,0-2.94-1.3-4.844-1.259a7.157,7.157,0,0,0-6.006,3.585c-2.6,4.4-.66,10.873,1.827,14.429,1.244,1.745,2.7,3.688,4.6,3.62,1.863-.074,2.557-1.161,4.806-1.161,2.226,0,2.879,1.161,4.821,1.118,2-.03,3.257-1.749,4.458-3.509a14.262,14.262,0,0,0,2.039-4.065A6.312,6.312,0,0,1,32.659,20.668Z" transform="translate(-12.793 -5.445)" fill="#362112"/>
        <path id="Path_1463" data-name="Path 1463" d="M27.706,10.784A6.321,6.321,0,0,0,29.2,6.2a6.7,6.7,0,0,0-4.307,2.181A6.013,6.013,0,0,0,23.36,12.8,5.55,5.55,0,0,0,27.706,10.784Z" transform="translate(-11.507 -6.196)" fill="#362112"/>
      </g>
    </g>
    <g id="Group_3935" data-name="Group 3935" transform="translate(33.554 14.063)">
      <path id="Path_1464" data-name="Path 1464" d="M57.235,33.032h-2.2l-.294-5.907q-.21-4-.189-5.948H54.49q-.67,2.493-1.655,5.341l-2.2,6.388H48.918l-2.011-6.284q-.9-2.85-1.467-5.447H45.4q-.1,3.183-.251,6.054l-.336,5.8H42.7l.943-14.118H46.55l2.032,6.117a47.036,47.036,0,0,1,1.32,4.861h.063q.67-2.7,1.424-4.861l2.116-6.117h2.912Z" transform="translate(-42.696 -18.707)" fill="#362112"/>
      <path id="Path_1465" data-name="Path 1465" d="M65.392,32.626H63.36l-.167-1.173H63.13a3.492,3.492,0,0,1-2.975,1.4,3.067,3.067,0,0,1-2.325-.92,2.893,2.893,0,0,1-.8-2.074A3.167,3.167,0,0,1,58.6,27.014a8.1,8.1,0,0,1,4.389-.964v-.189q0-2.011-2.111-2.01a4.72,4.72,0,0,0-2.655.754l-.461-1.488a6.518,6.518,0,0,1,3.493-.879q3.994,0,3.995,4.21V30.2A15.83,15.83,0,0,0,65.392,32.626Zm-2.346-3.5V27.558Q59.3,27.5,59.3,29.611a1.529,1.529,0,0,0,.438,1.194,1.578,1.578,0,0,0,1.1.4,2.271,2.271,0,0,0,1.386-.471,1.93,1.93,0,0,0,.781-1.2A1.727,1.727,0,0,0,63.046,29.129Z" transform="translate(-40.945 -18.3)" fill="#362112"/>
      <path id="Path_1466" data-name="Path 1466" d="M73.841,22.718l-.44,1.718a4.449,4.449,0,0,0-1.969-.419,2.966,2.966,0,0,0-2.356,1,3.7,3.7,0,0,0-.869,2.525,3.524,3.524,0,0,0,.911,2.555,3.084,3.084,0,0,0,2.314.943,5.317,5.317,0,0,0,2.053-.419l.314,1.7a6.584,6.584,0,0,1-2.806.524,4.95,4.95,0,0,1-3.707-1.414,5.171,5.171,0,0,1-1.382-3.78,5.162,5.162,0,0,1,5.488-5.405A5.746,5.746,0,0,1,73.841,22.718Z" transform="translate(-39.862 -18.301)" fill="#362112"/>
      <path id="Path_1467" data-name="Path 1467" d="M89.169,33.032H86.761L85.44,28.886H80.854L79.6,33.032H77.25L81.8,18.914H84.6Zm-4.126-5.884L83.849,23.46q-.189-.566-.713-2.659h-.043q-.21.9-.67,2.659l-1.173,3.688Z" transform="translate(-38.477 -18.706)" fill="#362112"/>
      <path id="Path_1468" data-name="Path 1468" d="M99.354,27.411a5.787,5.787,0,0,1-1.4,4.107,4.1,4.1,0,0,1-3.121,1.339,3.119,3.119,0,0,1-2.891-1.444H91.9v5.363H89.636V25.8q0-1.634-.085-3.351H91.54l.127,1.614h.042a4.026,4.026,0,0,1,6.442-.4A5.6,5.6,0,0,1,99.354,27.411Zm-2.3.085a4.2,4.2,0,0,0-.671-2.453,2.317,2.317,0,0,0-1.968-1,2.344,2.344,0,0,0-1.519.554A2.56,2.56,0,0,0,92,26.049a3,3,0,0,0-.105.692v1.7a2.7,2.7,0,0,0,.681,1.874,2.255,2.255,0,0,0,1.768.765,2.316,2.316,0,0,0,1.99-.984A4.315,4.315,0,0,0,97.05,27.5Z" transform="translate(-36.975 -18.3)" fill="#362112"/>
      <path id="Path_1469" data-name="Path 1469" d="M109.79,27.411a5.8,5.8,0,0,1-1.4,4.107,4.1,4.1,0,0,1-3.123,1.339,3.115,3.115,0,0,1-2.888-1.444h-.044v5.363H100.07V25.8q0-1.634-.083-3.351h1.989l.125,1.614h.042a4.024,4.024,0,0,1,6.441-.4A5.594,5.594,0,0,1,109.79,27.411Zm-2.3.085a4.2,4.2,0,0,0-.671-2.453,2.319,2.319,0,0,0-1.97-1,2.344,2.344,0,0,0-1.519.554,2.572,2.572,0,0,0-.89,1.455,3,3,0,0,0-.105.692v1.7a2.715,2.715,0,0,0,.681,1.874,2.256,2.256,0,0,0,1.771.765,2.319,2.319,0,0,0,1.99-.984A4.331,4.331,0,0,0,107.486,27.5Z" transform="translate(-35.7 -18.3)" fill="#362112"/>
      <path id="Path_1470" data-name="Path 1470" d="M121.342,29.1a3.769,3.769,0,0,1-1.253,2.932,5.567,5.567,0,0,1-3.847,1.237,6.725,6.725,0,0,1-3.658-.881l.524-1.885a6.191,6.191,0,0,0,3.268.9,3.076,3.076,0,0,0,1.992-.577,1.886,1.886,0,0,0,.713-1.543,1.964,1.964,0,0,0-.587-1.446,5.427,5.427,0,0,0-1.948-1.092q-3.7-1.384-3.706-4.05a3.583,3.583,0,0,1,1.3-2.852,5.13,5.13,0,0,1,3.456-1.112,6.843,6.843,0,0,1,3.206.671l-.566,1.844a5.572,5.572,0,0,0-2.7-.65,2.738,2.738,0,0,0-1.865.587,1.674,1.674,0,0,0-.566,1.277,1.729,1.729,0,0,0,.649,1.382,7.294,7.294,0,0,0,2.053,1.09,6.94,6.94,0,0,1,2.681,1.718A3.579,3.579,0,0,1,121.342,29.1Z" transform="translate(-34.162 -18.729)" fill="#362112"/>
      <path id="Path_1471" data-name="Path 1471" d="M127.728,24.4h-2.494V29.34q0,1.883,1.322,1.885a4,4,0,0,0,1-.105l.064,1.718a5.091,5.091,0,0,1-1.759.252,2.7,2.7,0,0,1-2.095-.818,4.009,4.009,0,0,1-.754-2.744V24.4h-1.486V22.7h1.486V20.836l2.221-.671V22.7h2.494v1.7Z" transform="translate(-33.07 -18.554)" fill="#362112"/>
      <path id="Path_1472" data-name="Path 1472" d="M138.161,27.452a5.6,5.6,0,0,1-1.339,3.856,4.782,4.782,0,0,1-3.73,1.55,4.55,4.55,0,0,1-3.571-1.486,5.415,5.415,0,0,1-1.331-3.75,5.526,5.526,0,0,1,1.372-3.875,4.751,4.751,0,0,1,3.7-1.508,4.655,4.655,0,0,1,3.6,1.486A5.368,5.368,0,0,1,138.161,27.452Zm-2.345.074a4.606,4.606,0,0,0-.607-2.415,2.236,2.236,0,0,0-2.032-1.219,2.269,2.269,0,0,0-2.076,1.219,4.672,4.672,0,0,0-.607,2.456,4.585,4.585,0,0,0,.607,2.415,2.312,2.312,0,0,0,4.086-.02A4.573,4.573,0,0,0,135.816,27.526Z" transform="translate(-32.256 -18.3)" fill="#362112"/>
      <path id="Path_1473" data-name="Path 1473" d="M144.222,24.436a3.891,3.891,0,0,0-.713-.062,2.142,2.142,0,0,0-1.844.9,3.4,3.4,0,0,0-.566,2.012v5.341h-2.262l.02-6.974q0-1.762-.083-3.206h1.968l.085,1.948h.062a3.493,3.493,0,0,1,1.131-1.614,2.749,2.749,0,0,1,1.635-.543,3.433,3.433,0,0,1,.566.042v2.157Z" transform="translate(-30.964 -18.301)" fill="#362112"/>
      <path id="Path_1474" data-name="Path 1474" d="M153.63,27.058a5.4,5.4,0,0,1-.083,1.026h-6.788a2.968,2.968,0,0,0,.986,2.306,3.366,3.366,0,0,0,2.221.713,7.527,7.527,0,0,0,2.744-.483l.355,1.571a8.517,8.517,0,0,1-3.415.627,4.932,4.932,0,0,1-3.716-1.391,5.147,5.147,0,0,1-1.352-3.739,5.828,5.828,0,0,1,1.258-3.833,4.337,4.337,0,0,1,3.562-1.635,3.788,3.788,0,0,1,3.329,1.635A5.49,5.49,0,0,1,153.63,27.058Zm-2.157-.587a3.075,3.075,0,0,0-.441-1.738,1.97,1.97,0,0,0-1.8-.943,2.148,2.148,0,0,0-1.8.92,3.4,3.4,0,0,0-.671,1.759h4.714Z" transform="translate(-30.255 -18.303)" fill="#362112"/>
    </g>
    <g id="Group_3937" data-name="Group 3937" transform="translate(34.553 0.404)">
      <g id="Group_3936" data-name="Group 3936" transform="translate(0 0)">
        <path id="Path_1475" data-name="Path 1475" d="M49.616,10.4a3.684,3.684,0,0,1-1.187,2.983,4.722,4.722,0,0,1-3.123.925,14.479,14.479,0,0,1-1.72-.088V7a12.694,12.694,0,0,1,2.025-.153,4.366,4.366,0,0,1,2.906.838A3.387,3.387,0,0,1,49.616,10.4Zm-1.241.033a2.682,2.682,0,0,0-.68-1.97,2.68,2.68,0,0,0-1.987-.686,4.977,4.977,0,0,0-.947.076v5.486a6.209,6.209,0,0,0,.794.033,2.782,2.782,0,0,0,2.084-.751A3.006,3.006,0,0,0,48.375,10.428Z" transform="translate(-43.586 -6.521)" fill="#362112"/>
        <path id="Path_1476" data-name="Path 1476" d="M55.382,11.332a2.9,2.9,0,0,1-.7,2,2.487,2.487,0,0,1-1.938.806,2.364,2.364,0,0,1-1.856-.773,2.816,2.816,0,0,1-.69-1.948,2.873,2.873,0,0,1,.713-2.013,2.471,2.471,0,0,1,1.921-.783,2.419,2.419,0,0,1,1.873.772A2.793,2.793,0,0,1,55.382,11.332Zm-1.22.038a2.392,2.392,0,0,0-.315-1.256,1.161,1.161,0,0,0-1.055-.633,1.18,1.18,0,0,0-1.078.633,2.424,2.424,0,0,0-.315,1.277,2.392,2.392,0,0,0,.315,1.256,1.187,1.187,0,0,0,1.067.633,1.173,1.173,0,0,0,1.055-.644A2.367,2.367,0,0,0,54.162,11.37Z" transform="translate(-42.778 -6.304)" fill="#362112"/>
        <path id="Path_1477" data-name="Path 1477" d="M63.509,8.719l-1.655,5.29H60.777l-.686-2.3A17.19,17.19,0,0,1,59.666,10h-.021a12.511,12.511,0,0,1-.425,1.709l-.728,2.3H57.4l-1.556-5.29h1.209l.6,2.515q.217.892.359,1.7h.021q.131-.663.437-1.687l.751-2.525h.958l.719,2.471q.261.9.424,1.742h.033a16.638,16.638,0,0,1,.359-1.742l.642-2.471h1.155Z" transform="translate(-42.089 -6.292)" fill="#362112"/>
        <path id="Path_1478" data-name="Path 1478" d="M68.611,14.021H67.437v-3.03q0-1.4-1.066-1.4a1.061,1.061,0,0,0-.849.385,1.366,1.366,0,0,0-.327.907V14.02H64.019V10.243q0-.7-.043-1.514h1.033l.055.827H65.1a1.7,1.7,0,0,1,.609-.638,1.988,1.988,0,0,1,1.066-.3A1.688,1.688,0,0,1,68,9.1a2.328,2.328,0,0,1,.609,1.753v3.169Z" transform="translate(-41.096 -6.304)" fill="#362112"/>
        <path id="Path_1479" data-name="Path 1479" d="M71.126,14.273H69.95V6.556h1.176Z" transform="translate(-40.367 -6.556)" fill="#362112"/>
        <path id="Path_1480" data-name="Path 1480" d="M77.731,11.332a2.9,2.9,0,0,1-.7,2,2.487,2.487,0,0,1-1.938.806,2.364,2.364,0,0,1-1.856-.773,2.816,2.816,0,0,1-.69-1.948,2.873,2.873,0,0,1,.713-2.013,2.471,2.471,0,0,1,1.921-.783,2.419,2.419,0,0,1,1.873.772A2.793,2.793,0,0,1,77.731,11.332Zm-1.22.038a2.392,2.392,0,0,0-.315-1.256,1.161,1.161,0,0,0-1.055-.633,1.18,1.18,0,0,0-1.078.633,2.424,2.424,0,0,0-.315,1.277,2.392,2.392,0,0,0,.315,1.256,1.187,1.187,0,0,0,1.067.633,1.173,1.173,0,0,0,1.055-.644A2.377,2.377,0,0,0,76.511,11.37Z" transform="translate(-40.049 -6.304)" fill="#362112"/>
        <path id="Path_1481" data-name="Path 1481" d="M82.711,14.02H81.656l-.086-.609h-.033a1.814,1.814,0,0,1-1.545.729,1.6,1.6,0,0,1-1.209-.479,1.5,1.5,0,0,1-.413-1.077,1.643,1.643,0,0,1,.811-1.48,4.2,4.2,0,0,1,2.28-.5v-.1q0-1.045-1.1-1.045a2.46,2.46,0,0,0-1.379.392l-.239-.772a3.392,3.392,0,0,1,1.814-.457q2.075,0,2.076,2.188v1.948A8.144,8.144,0,0,0,82.711,14.02ZM81.492,12.2v-.816q-1.947-.034-1.947,1.066a.8.8,0,0,0,.227.621.82.82,0,0,0,.573.206,1.191,1.191,0,0,0,.72-.245,1,1,0,0,0,.406-.626A.918.918,0,0,0,81.492,12.2Z" transform="translate(-39.339 -6.304)" fill="#362112"/>
        <path id="Path_1482" data-name="Path 1482" d="M88.744,14.273H87.7l-.055-.849h-.033a1.757,1.757,0,0,1-1.7.97,1.989,1.989,0,0,1-1.589-.751,2.925,2.925,0,0,1-.631-1.948,3.072,3.072,0,0,1,.684-2.079,2.11,2.11,0,0,1,1.633-.741,1.586,1.586,0,0,1,1.491.718h.022V6.556H88.7v6.292Q88.7,13.62,88.744,14.273Zm-1.219-2.231V11.16a1.731,1.731,0,0,0-.033-.37,1.334,1.334,0,0,0-.426-.713,1.154,1.154,0,0,0-.787-.288,1.206,1.206,0,0,0-1.033.523,2.233,2.233,0,0,0-.377,1.339,2.089,2.089,0,0,0,.361,1.274,1.208,1.208,0,0,0,1.027.522,1.132,1.132,0,0,0,.929-.435A1.45,1.45,0,0,0,87.526,12.042Z" transform="translate(-38.688 -6.556)" fill="#362112"/>
        <path id="Path_1483" data-name="Path 1483" d="M97.722,11.332a2.9,2.9,0,0,1-.7,2,2.487,2.487,0,0,1-1.938.806,2.364,2.364,0,0,1-1.856-.773,2.816,2.816,0,0,1-.69-1.948,2.873,2.873,0,0,1,.713-2.013,2.471,2.471,0,0,1,1.921-.783,2.419,2.419,0,0,1,1.873.772A2.793,2.793,0,0,1,97.722,11.332Zm-1.22.038a2.392,2.392,0,0,0-.315-1.256,1.161,1.161,0,0,0-1.055-.633,1.18,1.18,0,0,0-1.078.633,2.424,2.424,0,0,0-.315,1.277,2.392,2.392,0,0,0,.315,1.256,1.187,1.187,0,0,0,1.067.633,1.173,1.173,0,0,0,1.055-.644A2.367,2.367,0,0,0,96.5,11.37Z" transform="translate(-37.608 -6.304)" fill="#362112"/>
        <path id="Path_1484" data-name="Path 1484" d="M103.3,14.021h-1.176v-3.03q0-1.4-1.066-1.4a1.061,1.061,0,0,0-.849.385,1.366,1.366,0,0,0-.327.907V14.02H98.7V10.243q0-.7-.043-1.514h1.033l.055.827h.033a1.7,1.7,0,0,1,.609-.638,1.988,1.988,0,0,1,1.066-.3,1.688,1.688,0,0,1,1.231.479,2.328,2.328,0,0,1,.609,1.753Z" transform="translate(-36.861 -6.304)" fill="#362112"/>
        <path id="Path_1485" data-name="Path 1485" d="M110.2,9.743H108.9v2.57q0,.98.686.98a2.061,2.061,0,0,0,.523-.055l.031.892a2.642,2.642,0,0,1-.913.131,1.408,1.408,0,0,1-1.088-.424,2.08,2.08,0,0,1-.393-1.426V9.743h-.772V8.862h.772v-.97l1.154-.348V8.861H110.2v.882Z" transform="translate(-35.846 -6.435)" fill="#362112"/>
        <path id="Path_1486" data-name="Path 1486" d="M115.942,14.273h-1.176V11.265q0-1.422-1.066-1.423a1.121,1.121,0,0,0-1.121.825,1.439,1.439,0,0,0-.055.423v3.181h-1.176V6.556h1.176V9.744h.022a1.776,1.776,0,0,1,1.589-.87,1.636,1.636,0,0,1,1.209.479,2.409,2.409,0,0,1,.6,1.774Z" transform="translate(-35.312 -6.556)" fill="#362112"/>
        <path id="Path_1487" data-name="Path 1487" d="M121.387,11.126a2.84,2.84,0,0,1-.044.533h-3.527a1.539,1.539,0,0,0,.511,1.2,1.749,1.749,0,0,0,1.154.37,3.887,3.887,0,0,0,1.426-.25l.184.817a4.423,4.423,0,0,1-1.774.327,2.568,2.568,0,0,1-1.932-.724,2.671,2.671,0,0,1-.7-1.942,3.027,3.027,0,0,1,.653-1.992,2.252,2.252,0,0,1,1.849-.848,1.969,1.969,0,0,1,1.73.848A2.832,2.832,0,0,1,121.387,11.126Zm-1.122-.3a1.6,1.6,0,0,0-.228-.9,1.027,1.027,0,0,0-.936-.49,1.118,1.118,0,0,0-.937.479,1.769,1.769,0,0,0-.348.915Z" transform="translate(-34.66 -6.305)" fill="#362112"/>
      </g>
    </g>
  </g>
</svg>
