<svg xmlns="http://www.w3.org/2000/svg" xmlns:xlink="http://www.w3.org/1999/xlink" width="123" height="158" viewBox="0 0 123 158">
  <defs>
    <clipPath id="clip-path">
      <rect id="Rectangle_528" data-name="Rectangle 528" width="123" height="158" transform="translate(0.109 -0.404)" fill="#fff"/>
    </clipPath>
  </defs>
  <g id="eligibility-68ec13c65cd448418fc4e27e0590d779" transform="translate(-0.109 0.404)" clip-path="url(#clip-path)">
    <path id="Path_2165" data-name="Path 2165" d="M71.912.962c9.143.206,11.557,21.725,11.557,21.725H.257S.925,5.864,6.061,3.258,56.425.626,71.912.962Z" transform="translate(0.423 1.61)" fill="#f7b519"/>
    <path id="Path_2166" data-name="Path 2166" d="M2.073,12.481H95.2a2.064,2.064,0,0,0,0-4.128H2.073a2.064,2.064,0,0,0,0,4.128Z" transform="translate(-0.006 15.196)" fill="#404852"/>
    <path id="Path_2167" data-name="Path 2167" d="M61.9,39.9H31.642A3.656,3.656,0,0,0,28,43.566v22.55a3.656,3.656,0,0,0,3.647,3.664H61.9a3.656,3.656,0,0,0,3.647-3.664V43.566A3.656,3.656,0,0,0,61.9,39.9Z" transform="translate(50.401 72.041)" fill="#f7b519"/>
    <path id="Path_2168" data-name="Path 2168" d="M70.769,77.979H32.655a3.05,3.05,0,0,1-2.4-.962,3.079,3.079,0,0,1-.807-2.469V47.766a12.158,12.158,0,0,1,.257-4.722c.873-1.961,2.954-1.677,4.674-1.677h35.16c1.977,0,3.9.439,4.058,2.89.308,4.98,0,10.088,0,15.068s.257,10.5,0,15.687a2.909,2.909,0,0,1-2.825,2.967c-2.568,0-2.568,4.154,0,4.025a7.1,7.1,0,0,0,6.414-4.687,7.149,7.149,0,0,0,.417-2.769V46.166a8.51,8.51,0,0,0-2.568-7.3,9.162,9.162,0,0,0-6.421-1.574H32.553A7.027,7.027,0,0,0,25.438,44.2v27.04a19.668,19.668,0,0,0,.36,6.012A7.189,7.189,0,0,0,33.195,82H70.769a2.013,2.013,0,0,0,0-4.025Z" transform="translate(45.638 67.197)" fill="#404852"/>
    <path id="Path_2169" data-name="Path 2169" d="M3.858,65.211C9.174,70.526,13.232,70.526,29,69.829s50.159-.671,50.159-.671a27.092,27.092,0,0,1-16.874-9.65c-4.495-6.115-5.856-12.9-5.137-12.307H.262S-.1,61.263,3.858,65.211Z" transform="translate(0.417 85.126)" fill="#f7b519"/>
    <path id="Path_2170" data-name="Path 2170" d="M79.129,152.749H22.01c-5.137,0-10.273.542-14.382-3.483-3.339-3.354-3.467-7.353-3.467-11.74V16.079A12.055,12.055,0,0,1,10.813,5.346c3.775-1.909,8.989-1.187,13.1-1.187H46.46c11.634,0,23.269-.181,34.929,0a11.98,11.98,0,0,1,11.48,9.16,20.049,20.049,0,0,1,.308,4.747v64.5a2.055,2.055,0,1,0,4.109,0V23.794c0-4.7.539-9.856-1.361-14.242A16.105,16.105,0,0,0,82.314,0H17.053a17.908,17.908,0,0,0-8.321,1.78A16.186,16.186,0,0,0,0,16v124.75a16.217,16.217,0,0,0,16.257,16.126H79.129a2.064,2.064,0,0,0,0-4.128Z" transform="translate(-0.039 0.141)" fill="#404852"/>
    <path id="Path_2171" data-name="Path 2171" d="M2.073,50.3H59.526a2.064,2.064,0,0,0,0-4.128H2.073a2.064,2.064,0,0,0,0,4.128Z" transform="translate(-0.006 83.341)" fill="#404852"/>
    <path id="Path_2172" data-name="Path 2172" d="M14.778,30.65H61.367a2.064,2.064,0,0,0,0-4.128H14.778a2.064,2.064,0,0,0,0,4.128Z" transform="translate(22.885 47.933)" fill="#404852"/>
    <path id="Path_2173" data-name="Path 2173" d="M14.778,41.461H35.324a2.064,2.064,0,0,0,0-4.128H14.778a2.064,2.064,0,0,0,0,4.128Z" transform="translate(22.885 67.412)" fill="#404852"/>
    <path id="Path_2174" data-name="Path 2174" d="M14.778,20.345H61.367a2.064,2.064,0,0,0,0-4.128H14.778a2.064,2.064,0,0,0,0,4.128Z" transform="translate(22.885 29.366)" fill="#404852"/>
    <path id="Path_2175" data-name="Path 2175" d="M4.269,25.293l5.5,6.863a2.05,2.05,0,0,0,3.21-.413l9.58-13.21,1.387-1.909a2.063,2.063,0,0,0-1.489-3.09,2.053,2.053,0,0,0-2.055,1l-9.58,13.21L9.431,29.653l3.236-.413-5.5-6.863a2.023,2.023,0,0,0-2.9,0,2.123,2.123,0,0,0,0,2.916Z" transform="translate(6.607 24.496)" fill="#404852"/>
    <path id="Path_2176" data-name="Path 2176" d="M4.269,35.607l5.5,6.863a2.051,2.051,0,0,0,3.21-.413l9.58-13.21,1.387-1.909a2.07,2.07,0,0,0-.732-2.825,2.05,2.05,0,0,0-2.812.735l-9.58,13.21L9.431,39.967l3.236-.335-5.5-6.941a2.023,2.023,0,0,0-2.9,0,2.123,2.123,0,0,0,0,2.916Z" transform="translate(6.607 43.079)" fill="#404852"/>
    <path id="Path_2177" data-name="Path 2177" d="M4.33,46.4,9.8,53.291c.9,1.135,2.568.516,3.236-.439l9.58-13.21,1.361-1.909a2.1,2.1,0,0,0-.719-2.838,2.126,2.126,0,0,0-2.825.748l-9.58,13.236L9.492,50.788l3.21-.439-5.47-6.966a2.048,2.048,0,0,0-2.9,0,2.1,2.1,0,0,0,0,2.916Z" transform="translate(6.7 62.55)" fill="#404852"/>
    <path id="Path_2178" data-name="Path 2178" d="M47.923,49.651a8.089,8.089,0,0,0-3.3-6.577,8.033,8.033,0,0,0-12.4,4.086,8.105,8.105,0,0,0,1.217,7.263l-.282-1.032v4.8a9.852,9.852,0,0,0,.128,2.3,4.4,4.4,0,0,0,4.161,3.277h4.674a4.411,4.411,0,0,0,3.7-1.832,5.18,5.18,0,0,0,.719-2.993V53.392l-.282,1.032a8.151,8.151,0,0,0,1.669-4.773,2.055,2.055,0,1,0-4.109,0,4.817,4.817,0,0,1-.282,1.471c-.231.542-.642.955-.873,1.471a3.8,3.8,0,0,0-.18,1.522V59.4h0a.18.18,0,0,1-.18,0H37.367a.156.156,0,0,1,0-.181v-3.2a21.463,21.463,0,0,0,0-3.148,7.311,7.311,0,0,0-.95-1.832,4.771,4.771,0,0,1-.359-1.316,4.09,4.09,0,0,1,.565-2.348,3.955,3.955,0,0,1,7.32,2.038,2.053,2.053,0,0,0,3.981.232Z" transform="translate(57.338 74.962)" fill="#404852"/>
    <path id="Path_2179" data-name="Path 2179" d="M33.068,45.877V42.11a11.407,11.407,0,0,1,.154-3.741c.925-2.348,4.109-1.754,6.087-1.754h14.1a3.864,3.864,0,0,1,2.568.542c1.361,1.032,1.053,2.916,1.053,4.412v4.412a2,2,0,1,0,4.007,0V41.465a11.139,11.139,0,0,0-.8-5.418,6.8,6.8,0,0,0-5.984-3.535H40c-3.107,0-6.549-.465-8.963,1.961-2.825,2.838-1.978,7.74-1.978,11.4a2.007,2.007,0,0,0,2,2.013,2.007,2.007,0,0,0,2-2.013Z" transform="translate(52.108 58.662)" fill="#404852"/>
    <path id="Path_2180" data-name="Path 2180" d="M35.35,43.185V41.224a4.9,4.9,0,0,1,.282-1.677v-.258c0,.232.18-.31.154-.284l.206-.31h0c.334-.335-.437.18,0,0s-.36,0-.231,0h9.785c.282.206,0-.335,0,0s.282.31,0,0l.282.464h0a5.874,5.874,0,0,1,.205.619,4.845,4.845,0,0,1,.18.877v2.58a2.055,2.055,0,1,0,4.109,0,10.047,10.047,0,0,0-1.849-7.25,5.453,5.453,0,0,0-4.6-1.316H38.3a8.541,8.541,0,0,0-4.341.516c-2.568,1.651-2.722,5.16-2.722,8A2.06,2.06,0,0,0,33.3,45.249a2.049,2.049,0,0,0,1.453-.6,2.07,2.07,0,0,0,.6-1.459Z" transform="translate(56.248 62.463)" fill="#404852"/>
  </g>
</svg>
