<svg xmlns="http://www.w3.org/2000/svg" xmlns:xlink="http://www.w3.org/1999/xlink" width="162.101" height="115.192" viewBox="0 0 162.101 115.192">
  <defs>
    <clipPath id="clip-path">
      <rect id="Rectangle_524" data-name="Rectangle 524" width="162.101" height="115.192" fill="#fff"/>
    </clipPath>
  </defs>
  <g id="Unknown_6" data-name="Unknown 6" clip-path="url(#clip-path)">
    <path id="Path_2089" data-name="Path 2089" d="M84.075,91.043H21.136a69.7,69.7,0,0,1-7.975,0,9.57,9.57,0,0,1-8.31-9.076V15.025C4.867,9.458,8.6,4.881,14.358,4.785H118.033a9.7,9.7,0,0,1,9.809,10.24V37.61a2.393,2.393,0,0,0,4.785,0V21.836c0-6.268.7-12.76-4.179-17.657C125.067.766,120.777,0,116.231,0H15.953C10.7,0,5.92,1.6,2.7,6.029,0,9.825.082,14.1.082,18.486v56.08a65.574,65.574,0,0,0,.16,9.028C1.278,91.139,7.85,95.828,15.171,95.828h68.9a2.392,2.392,0,1,0,0-4.785Z" transform="translate(-0.004)" fill="#404852"/>
    <path id="Path_2090" data-name="Path 2090" d="M78.851,87.241a31.9,31.9,0,1,0-31.9-31.9A31.9,31.9,0,0,0,78.851,87.241Z" transform="translate(49.627 24.777)" fill="#f7b519"/>
    <path id="Path_2091" data-name="Path 2091" d="M77.976,45.79a.294.294,0,0,1-.112.271c.144-.351.175-.415,0-.175l-.239.526-.495,1.053c-.351.686-.718,1.356-1.117,2.026s-.813,1.324-1.26,1.962l-.686.941q-.239.3.1-.144l-.175.239-.367.463a2.536,2.536,0,0,0-.7,1.691A2.4,2.4,0,0,0,77,56.333a36.031,36.031,0,0,0,5.5-9.267,2.36,2.36,0,0,0-.239-1.85,2.408,2.408,0,0,0-3.19-.845,2.791,2.791,0,0,0-1.1,1.42Z" transform="translate(77.075 46.593)" fill="#404852"/>
    <path id="Path_2092" data-name="Path 2092" d="M113.947,59.433A34.277,34.277,0,1,0,87.072,90.472c3.015-.622,1.739-5.232-1.26-4.626a29.523,29.523,0,1,1,23.351-26.413C108.955,62.511,113.74,62.5,113.947,59.433Z" transform="translate(48.074 24.002)" fill="#404852"/>
    <path id="Path_2093" data-name="Path 2093" d="M53.824,49.5l11.165,12.76a2.377,2.377,0,0,0,3.381,0l19.555-22.33,2.775-3.19c2.026-2.3-1.356-5.694-3.382-3.381L67.764,55.69l-2.775,3.19H68.37L57.205,46.12C55.179,43.807,51.8,47.2,53.824,49.5Z" transform="translate(56.232 34.444)" fill="#404852"/>
    <path id="Path_2094" data-name="Path 2094" d="M80.437,23.247H10.766a2.648,2.648,0,0,0-2.648,2.648V39.085a2.648,2.648,0,0,0,2.648,2.648h69.67a2.648,2.648,0,0,0,2.648-2.648V25.895A2.648,2.648,0,0,0,80.437,23.247Z" transform="translate(8.581 24.572)" fill="#f7b519"/>
    <path id="Path_2095" data-name="Path 2095" d="M121.547,8.592H9.737a3.015,3.015,0,0,0-3.015,3.015v9.235a3.014,3.014,0,0,0,3.015,3.015h111.81a3.014,3.014,0,0,0,3.015-3.015V11.606A3.015,3.015,0,0,0,121.547,8.592Z" transform="translate(7.106 9.081)" fill="#f7b519"/>
    <path id="Path_2096" data-name="Path 2096" d="M31.943,40.881H14.748c-.957,0-2.887.383-3.381-.718a13.334,13.334,0,0,1,0-4.434V28.855c0-1.1-.223-2.329,1.18-2.552a12.736,12.736,0,0,1,1.595,0H77.4c1.117,0,5.136-.654,5.264,1.1.223,3.062,5.024,3.078,4.785,0a6.045,6.045,0,0,0-5.933-5.885H12.436a6.045,6.045,0,0,0-5.917,5.9c-.175,4-.128,8.119,0,12.106A6.061,6.061,0,0,0,12.5,45.666H31.943a2.393,2.393,0,1,0,0-4.785Z" transform="translate(6.769 22.744)" fill="#404852"/>
    <path id="Path_2097" data-name="Path 2097" d="M40.449,30.931H31.214a2.408,2.408,0,0,0-2.392,2.392,2.44,2.44,0,0,0,2.392,2.392h9.235a2.392,2.392,0,1,0,0-4.785Z" transform="translate(30.464 32.694)" fill="#404852"/>
    <path id="Path_2098" data-name="Path 2098" d="M84.075,91.043H21.136a69.7,69.7,0,0,1-7.975,0,9.57,9.57,0,0,1-8.31-9.076V15.025C4.867,9.458,8.6,4.881,14.358,4.785H118.033a9.7,9.7,0,0,1,9.809,10.24V37.61a2.393,2.393,0,0,0,4.785,0V21.836c0-6.268.7-12.76-4.179-17.657C125.067.766,120.777,0,116.231,0H15.953C10.7,0,5.92,1.6,2.7,6.029,0,9.825.082,14.1.082,18.486v56.08a65.574,65.574,0,0,0,.16,9.028C1.278,91.139,7.85,95.828,15.171,95.828h68.9a2.392,2.392,0,1,0,0-4.785Z" transform="translate(-0.004)" fill="#404852"/>
  </g>
</svg>
