<svg xmlns="http://www.w3.org/2000/svg" xmlns:xlink="http://www.w3.org/1999/xlink" width="120" height="170" viewBox="0 0 120 170">
  <defs>
    <clipPath id="clip-path">
      <rect id="Rectangle_526" data-name="Rectangle 526" width="120" height="170" transform="translate(0.445 -0.402)" fill="#fff"/>
    </clipPath>
  </defs>
  <g id="profile-66b4a664320caa8c94ded811b3ec10dc" transform="translate(-0.445 0.402)" clip-path="url(#clip-path)">
    <path id="Path_2138" data-name="Path 2138" d="M86.621,144.649H10.759c-2.01,0-3.966,0-5.225-2.114a7.068,7.068,0,0,1-.67-3.943V26.541a43.607,43.607,0,0,1,0-8.571c.991-4.543,6.592-3.514,9.834-3.514h95.209a8.117,8.117,0,0,1,3.43.371c2.519,1.143,2.68,3.657,2.68,6.085V82.024a2.544,2.544,0,0,0,.76,1.583,2.225,2.225,0,0,0,3.116,0,2.544,2.544,0,0,0,.76-1.583V20.055a10.613,10.613,0,0,0-1.082-5.415,9.8,9.8,0,0,0-3.607-3.984,10.728,10.728,0,0,0-5.547-1.114H9.553A8.807,8.807,0,0,0,4.8,10.724a9.559,9.559,0,0,0-3.53,3.589A12.242,12.242,0,0,0,.041,20.341V133.992c0,3.914-.563,8.571,1.769,11.742,3.323,4.771,9.031,3.857,13.908,3.857h70.9a2.285,2.285,0,0,0,1.485-.81,2.609,2.609,0,0,0,0-3.322,2.287,2.287,0,0,0-1.485-.81Z" transform="translate(-0.205 19.359)" fill="#404852"/>
    <path id="Path_2139" data-name="Path 2139" d="M51.207,54.318a4.9,4.9,0,0,1-.767,2.5,4.468,4.468,0,0,1-1.913,1.667,6.187,6.187,0,0,1-2.679.371H34.218a2.285,2.285,0,0,0-1.485.81,2.609,2.609,0,0,0,0,3.322,2.287,2.287,0,0,0,1.485.81h7.717a18.43,18.43,0,0,0,9.218-1.143,9.262,9.262,0,0,0,3.413-3.489,10.05,10.05,0,0,0,1.277-4.854,2.545,2.545,0,0,0-.76-1.583,2.225,2.225,0,0,0-3.116,0,2.546,2.546,0,0,0-.76,1.583Z" transform="translate(64.575 105.148)" fill="#404852"/>
    <path id="Path_2140" data-name="Path 2140" d="M38.462,39.391v28a2.543,2.543,0,0,0,.76,1.583,2.225,2.225,0,0,0,3.115,0,2.543,2.543,0,0,0,.76-1.583v-28a2.543,2.543,0,0,0-.76-1.583,2.225,2.225,0,0,0-3.115,0,2.543,2.543,0,0,0-.76,1.583Z" transform="translate(77.32 75.076)" fill="#404852"/>
    <path id="Path_2141" data-name="Path 2141" d="M45.313,81.544c20.912,0,37.864-18.074,37.864-40.369S66.224.805,45.313.805,7.449,18.879,7.449,41.175,24.4,81.544,45.313,81.544Z" transform="translate(14.84 1.811)" fill="#fff"/>
    <path id="Path_2142" data-name="Path 2142" d="M82.3,42.738A39.636,39.636,0,0,1,75.84,64.514,35.9,35.9,0,0,1,58.815,78.375a33.445,33.445,0,0,1-21.4.908,35.393,35.393,0,0,1-18-12.375A39.327,39.327,0,0,1,11.412,45.7,39.939,39.939,0,0,1,16.3,23.448a36.433,36.433,0,0,1,16-15.211A33.547,33.547,0,0,1,53.6,5.6,35.588,35.588,0,0,1,74.106,18.759,39.846,39.846,0,0,1,82.3,42.738a2.546,2.546,0,0,0,.76,1.583,2.225,2.225,0,0,0,3.116,0,2.545,2.545,0,0,0,.76-1.583,44.823,44.823,0,0,0-7.345-24.522A40.6,40.6,0,0,0,60.392,2.6,37.832,37.832,0,0,0,36.268,1.536,40.009,40.009,0,0,0,15.922,15.4,44.874,44.874,0,0,0,6.845,39.53a45.572,45.572,0,0,0,5.54,25.321A41.526,41.526,0,0,0,30.7,81.835a38.31,38.31,0,0,0,24.13,2.816A40.254,40.254,0,0,0,77.789,69.707a45.035,45.035,0,0,0,9.145-26.969,2.545,2.545,0,0,0-.76-1.583,2.225,2.225,0,0,0-3.116,0,2.546,2.546,0,0,0-.76,1.583Z" transform="translate(13.387 0.302)" fill="#404852"/>
    <path id="Path_2143" data-name="Path 2143" d="M40.63,69.152c17.064,0,30.9-14.748,30.9-32.941S57.694,3.27,40.63,3.27s-30.9,14.748-30.9,32.941S23.566,69.152,40.63,69.152Z" transform="translate(19.443 6.775)" fill="#f7b519"/>
    <path id="Path_2144" data-name="Path 2144" d="M41.264,23.068a12.453,12.453,0,0,1-1.13,5.263,11.673,11.673,0,0,1-3.21,4.175,10.75,10.75,0,0,1-4.619,2.213,10.4,10.4,0,0,1-5.06-.211A10.884,10.884,0,0,1,22.8,31.915a11.84,11.84,0,0,1-2.894-4.43,12.513,12.513,0,0,1-.74-5.341,12.349,12.349,0,0,1,1.569-5.133,11.268,11.268,0,0,1,5.372-4.9,10.4,10.4,0,0,1,7.059-.421,11.043,11.043,0,0,1,5.851,4.231,12.29,12.29,0,0,1,2.244,7.148,2.544,2.544,0,0,0,.76,1.583,2.225,2.225,0,0,0,3.116,0,2.546,2.546,0,0,0,.76-1.583A17.924,17.924,0,0,0,43,13.551,16.278,16.278,0,0,0,35.61,7.383a14.754,14.754,0,0,0-9.425-.361,15.622,15.622,0,0,0-7.913,5.47,17.332,17.332,0,0,0-3.538,9.32,17.612,17.612,0,0,0,2.118,9.8,16.024,16.024,0,0,0,7.631,6.948,14.788,14.788,0,0,0,10.019.6,15.7,15.7,0,0,0,8.316-5.988,17.477,17.477,0,0,0,3.217-10.134,2.629,2.629,0,0,0-.708-1.794,2.282,2.282,0,0,0-3.373.02,2.632,2.632,0,0,0-.689,1.8Z" transform="translate(29.42 13.119)" fill="#404852"/>
    <path id="Path_2145" data-name="Path 2145" d="M28.755,17.266v.543c-.188.6.188-.429,0,0a17.821,17.821,0,0,1-1.26,2.371l-.241.343h0l-.616.771a15.854,15.854,0,0,1-1.474,1.571l-.429.371-.188.172c-.241.2.348-.257,0,0s-.67.543-1.045.771a15.555,15.555,0,0,1-2.278,1.343h-.348l-.884.343a17.324,17.324,0,0,1-1.715.571c-.589.172-1.233.343-1.876.486l-1.849.314a2.318,2.318,0,0,0-1.607.743,2.507,2.507,0,0,0-.016,3.453,2.29,2.29,0,0,0,1.624.746c7.181-.885,14.792-4.343,18.034-11.685a14.223,14.223,0,0,0,.724-1.886,2.622,2.622,0,0,0-.326-1.759,2.349,2.349,0,0,0-1.351-1.067,2.2,2.2,0,0,0-1.673.179A2.437,2.437,0,0,0,28.836,17.3Z" transform="translate(24.51 31.805)" fill="#404852"/>
    <path id="Path_2146" data-name="Path 2146" d="M20.874,18.392a14.205,14.205,0,0,0,1.983,4.2A19.735,19.735,0,0,0,30.9,29.563a28.021,28.021,0,0,0,8.682,2.4,2.235,2.235,0,0,0,1.629-.72,2.542,2.542,0,0,0,.675-1.737,2.656,2.656,0,0,0-.7-1.724,2.345,2.345,0,0,0-1.609-.761,24.063,24.063,0,0,1-3.269-.657,22.885,22.885,0,0,1-3.055-1.057h-.295l-.616-.314c-.4-.2-.777-.429-1.152-.657l-1.045-.714-.482-.371c-.456-.343.241.229-.188,0a16.777,16.777,0,0,1-1.581-1.543l-.643-.743-.268-.371c-.322-.4.268.4,0,0a17.415,17.415,0,0,1-1.393-2.514l-.134-.257c-.188-.429.215.6,0,.257a2.02,2.02,0,0,0-.134-.371,1.717,1.717,0,0,0,0-.343,2.442,2.442,0,0,0-1.087-1.484,2.181,2.181,0,0,0-1.753-.23,2.336,2.336,0,0,0-1.392,1.159,2.606,2.606,0,0,0-.216,1.869Z" transform="translate(41.718 31.536)" fill="#404852"/>
    <path id="Path_2147" data-name="Path 2147" d="M11.169,44.6H72.8a2.287,2.287,0,0,0,1.485-.81,2.61,2.61,0,0,0,0-3.322,2.287,2.287,0,0,0-1.485-.81H11.169a2.286,2.286,0,0,0-1.485.81,2.609,2.609,0,0,0,0,3.322,2.286,2.286,0,0,0,1.485.81Z" transform="translate(18.14 80.092)" fill="#404852"/>
    <path id="Path_2148" data-name="Path 2148" d="M11.169,51.248H72.8a2.287,2.287,0,0,0,1.485-.811,2.61,2.61,0,0,0,0-3.322A2.287,2.287,0,0,0,72.8,46.3H11.169a2.287,2.287,0,0,0-1.485.811,2.609,2.609,0,0,0,0,3.322A2.287,2.287,0,0,0,11.169,51.248Z" transform="translate(18.14 93.476)" fill="#404852"/>
    <path id="Path_2149" data-name="Path 2149" d="M11.169,37.97H72.8a2.287,2.287,0,0,0,1.485-.81,2.61,2.61,0,0,0,0-3.322,2.287,2.287,0,0,0-1.485-.81H11.169a2.286,2.286,0,0,0-1.485.81,2.609,2.609,0,0,0,0,3.322,2.286,2.286,0,0,0,1.485.81Z" transform="translate(18.14 66.727)" fill="#404852"/>
  </g>
</svg>
