<svg xmlns="http://www.w3.org/2000/svg" xmlns:xlink="http://www.w3.org/1999/xlink" width="122" height="155" viewBox="0 0 122 155">
  <defs>
    <clipPath id="clip-path">
      <rect id="Rectangle_527" data-name="Rectangle 527" width="122" height="155" transform="translate(-0.897 -0.404)" fill="#fff"/>
    </clipPath>
  </defs>
  <g id="set_schedule-3cc95ece540a56dd1da9e407fffa0b84" transform="translate(0.897 0.404)" clip-path="url(#clip-path)">
    <path id="Path_2150" data-name="Path 2150" d="M69.743.98C78.612,1.2,80.95,22.3,80.95,22.3H.245S.863,5.921,5.861,3.191,54.72.653,69.743.98Z" transform="translate(0.593 1.53)" fill="#f7b519"/>
    <path id="Path_2151" data-name="Path 2151" d="M1.989,12.392h90.38a1.973,1.973,0,0,0,1.406-.592,2.042,2.042,0,0,0,0-2.857,1.973,1.973,0,0,0-1.406-.592H1.989a1.973,1.973,0,0,0-1.406.592,2.042,2.042,0,0,0,0,2.857,1.973,1.973,0,0,0,1.406.592Z" transform="translate(0.166 14.74)" fill="#404852"/>
    <path id="Path_2152" data-name="Path 2152" d="M3.717,64.942c5.16,5.213,9.084,5.213,24.4,4.531s48.536-.655,48.536-.655a26.282,26.282,0,0,1-16.125-9.553c-4.354-5.978-5.7-12.72-5.025-12.065H.25S-.1,61.011,3.717,64.942Z" transform="translate(0.588 82.59)" fill="#f7b519"/>
    <path id="Path_2153" data-name="Path 2153" d="M68.9,149.837H16.87A13.266,13.266,0,0,1,9.8,148.254a11.789,11.789,0,0,1-4.157-4.3,12.017,12.017,0,0,1-1.54-5.823V16.635a14.319,14.319,0,0,1,.618-4.64A11.725,11.725,0,0,1,8.866,6.312a11.438,11.438,0,0,1,6.606-2.233c11.072-.164,22.145,0,33.217,0H77.1a17.867,17.867,0,0,1,4.972.409,11.6,11.6,0,0,1,6.055,4.185,11.911,11.911,0,0,1,2.384,7.034V81.052a2.036,2.036,0,0,0,.582,1.428,1.967,1.967,0,0,0,2.812,0,2.036,2.036,0,0,0,.583-1.428V24.578a62.336,62.336,0,0,0-.3-12.147,16.025,16.025,0,0,0-3.8-7.372A15.664,15.664,0,0,0,83.439.639a20.864,20.864,0,0,0-6.02-.628H15.069A15.391,15.391,0,0,0,7.164,2.5,15.722,15.722,0,0,0,1.632,8.746,23.752,23.752,0,0,0,.019,19.664V138.209a16.106,16.106,0,0,0,2.023,7.606A15.812,15.812,0,0,0,7.41,151.5c4.649,3,10.212,2.374,15.453,2.374H68.9a1.974,1.974,0,0,0,1.406-.591,2.042,2.042,0,0,0,0-2.857,1.974,1.974,0,0,0-1.406-.592Z" transform="translate(0.039 0.124)" fill="#404852"/>
    <path id="Path_2154" data-name="Path 2154" d="M32.763,54.51H26.286a1.973,1.973,0,0,0-1.406.591,2.043,2.043,0,0,0,0,2.857,1.973,1.973,0,0,0,1.406.592h6.477a1.974,1.974,0,0,0,1.406-.592,2.043,2.043,0,0,0,0-2.857,1.974,1.974,0,0,0-1.406-.591Z" transform="translate(42.652 95.451)" fill="#404852"/>
    <path id="Path_2155" data-name="Path 2155" d="M32.3,54.51H28.643a1.935,1.935,0,0,0-.758.157,1.959,1.959,0,0,0-.639.443,2.052,2.052,0,0,0-.447,2.2,2,2,0,0,0,.43.659,1.955,1.955,0,0,0,.649.437,1.934,1.934,0,0,0,.765.147h3.6a2.134,2.134,0,0,0,1.425-.573,2.173,2.173,0,0,0,.591-1.447,2.119,2.119,0,0,0-.591-1.419,2,2,0,0,0-1.425-.6Z" transform="translate(46.772 95.451)" fill="#404852"/>
    <path id="Path_2156" data-name="Path 2156" d="M1.858,50.255H57.623a2.005,2.005,0,0,0,1.273-.672,2.071,2.071,0,0,0,0-2.723,2.007,2.007,0,0,0-1.273-.672H1.858a2.006,2.006,0,0,0-1.273.672,2.071,2.071,0,0,0,0,2.723A2,2,0,0,0,1.858,50.255Z" transform="translate(0.296 80.899)" fill="#404852"/>
    <path id="Path_2157" data-name="Path 2157" d="M40.029,50.5q-.967.573-2.016,1.065a1.654,1.654,0,0,0-.538.519,1.81,1.81,0,0,0-.376.71,1.576,1.576,0,0,0,0,.792,1.351,1.351,0,0,0,.242.764l.3.409a2.458,2.458,0,0,0,.887.519h.537a1.83,1.83,0,0,0,.994-.273q1.048-.491,2.016-1.065a1.488,1.488,0,0,0,.565-.519,1.593,1.593,0,0,0,.349-.71,1.331,1.331,0,0,0,0-.792,1.573,1.573,0,0,0-.215-.764l-.323-.41a2.089,2.089,0,0,0-.887-.519H41.05a1.915,1.915,0,0,0-1.021.273Z" transform="translate(64.949 87.966)" fill="#404852"/>
    <path id="Path_2158" data-name="Path 2158" d="M44.526,46.788v.218h0c0,.328,0,.3-.188.437l-.4.9c-.3.573-.618,1.146-.941,1.72A16.93,16.93,0,0,1,41.946,51.7l-.565.819-.161.191-.3.382a2.172,2.172,0,0,0-.591,1.419,2.069,2.069,0,0,0,.346,1.118,2.022,2.022,0,0,0,.893.742,1.992,1.992,0,0,0,2.174-.414,30.944,30.944,0,0,0,4.6-7.834,2.076,2.076,0,0,0-.189-1.548,2.021,2.021,0,0,0-1.208-.963,1.987,1.987,0,0,0-1.532.218,2.313,2.313,0,0,0-.941,1.2Z" transform="translate(70.692 79.781)" fill="#404852"/>
    <path id="Path_2159" data-name="Path 2159" d="M80.268,63a29.345,29.345,0,0,0-4.19-17.3A28.664,28.664,0,0,0,62.715,34.155,28.132,28.132,0,0,0,45.228,32.73a28.469,28.469,0,0,0-15,9.234A29.347,29.347,0,0,0,27.26,75.742,28.688,28.688,0,0,0,40.421,87.524a28.136,28.136,0,0,0,17.46,1.737c2.5-.519,1.424-4.422-1.075-3.9A24.269,24.269,0,0,1,41.74,83.741,24.753,24.753,0,0,1,30.46,73.471,25.312,25.312,0,0,1,33.29,44.332,24.546,24.546,0,0,1,46.33,36.5,24.264,24.264,0,0,1,61.416,37.9a24.737,24.737,0,0,1,11.42,10.111A25.318,25.318,0,0,1,76.264,63c-.161,2.73,3.816,2.73,4,0Z" transform="translate(40.834 56.005)" fill="#404852"/>
    <path id="Path_2160" data-name="Path 2160" d="M28.636,52.521l9.3,10.782a1.966,1.966,0,0,0,2.688,0L56.909,44.388l2.311-2.73c1.693-1.938-1.129-4.831-2.687-2.73L40.246,57.844l-2.311,2.729h2.688l-9.3-10.918c-1.693-1.965-4.515.9-2.822,2.866Z" transform="translate(49.09 66.923)" fill="#404852"/>
    <path id="Path_2161" data-name="Path 2161" d="M54.475,78.824H14.163a4.932,4.932,0,0,1-2.048-.277,4.987,4.987,0,0,1-1.763-1.1,5.078,5.078,0,0,1-1.176-1.726,5.146,5.146,0,0,1-.389-2.061V40.337c0-5.978-.161-11.983,0-17.988a5.2,5.2,0,0,1,.5-2.051,5.125,5.125,0,0,1,1.271-1.673,5.028,5.028,0,0,1,1.827-1.011,4.974,4.974,0,0,1,2.073-.178h53.75a4.95,4.95,0,0,1,2.081.182,5,5,0,0,1,1.829,1.026,5.1,5.1,0,0,1,1.26,1.693,5.171,5.171,0,0,1,.473,2.067V57.369a2.058,2.058,0,0,0,.662,1.293,1.993,1.993,0,0,0,2.681,0,2.058,2.058,0,0,0,.662-1.293V21.8a9.072,9.072,0,0,0-1.663-4.725A8.863,8.863,0,0,0,72.293,14a17.818,17.818,0,0,0-6.584-.628H16.474a14.679,14.679,0,0,0-7.095,1.01A9.571,9.571,0,0,0,5.66,18.323a9.764,9.764,0,0,0-1.011,5.364V71.754a11.081,11.081,0,0,0,.411,4.638,10.961,10.961,0,0,0,2.276,4.042,11.452,11.452,0,0,0,8.869,2.457h38.27a2,2,0,0,0,1.273-.672,2.071,2.071,0,0,0,0-2.723,2.006,2.006,0,0,0-1.273-.672Z" transform="translate(8.148 23.37)" fill="#404852"/>
    <path id="Path_2162" data-name="Path 2162" d="M6.584,23.256H63.747a1.973,1.973,0,0,0,1.406-.591,2.043,2.043,0,0,0,0-2.857,1.973,1.973,0,0,0-1.406-.591H6.584a1.973,1.973,0,0,0-1.406.591,2.042,2.042,0,0,0,0,2.857A1.973,1.973,0,0,0,6.584,23.256Z" transform="translate(8.201 33.737)" fill="#404852"/>
    <path id="Path_2163" data-name="Path 2163" d="M23.511,33.918,19.345,38.2a.351.351,0,0,1-.12.095.345.345,0,0,1-.3,0,.353.353,0,0,1-.12-.095l-3.924-4.176a.358.358,0,0,1,0-.519L25.043,23.3a.4.4,0,0,1,.242,0h6.235a.341.341,0,0,1,.14.029.354.354,0,0,1,.117.084.359.359,0,0,1,.092.269V53.434a.354.354,0,0,1-.209.353.341.341,0,0,1-.14.029H24.505a.373.373,0,0,1-.266-.112.386.386,0,0,1-.11-.27V34.327a.388.388,0,0,0,.01-.257.38.38,0,0,0-.153-.2.371.371,0,0,0-.474.053Z" transform="translate(25.997 40.844)" fill="#f6b519"/>
    <path id="Path_2164" data-name="Path 2164" d="M23.217,33.772l-2.1,2.129L19.75,37.292c-.161.191-.376.355-.511.546s-.618.246.4-.191l1.532.191c.269,0,0,.246,0,0a2.709,2.709,0,0,0-.376-.409l-1.371-1.474-1.317-1.392a3.963,3.963,0,0,0-.457-.491c-.323-.3-.134-.491.215.41l-.188,1.583c0,.246-.188.137,0-.136l.618-.6,2.042-2.047,5.16-5.159c.537-.573,1.182-1.119,1.693-1.72l.376-.355c.188.3-1.828.219-.726.464a20.654,20.654,0,0,0,3.44,0h1.559a3.169,3.169,0,0,0,.511,0c.322,0,.3.137,0,0l-1.4-1.419h0a4.884,4.884,0,0,0,0,.628V53.67a7.233,7.233,0,0,0,0,.764h0l1.4-1.419h-6.4c-.349,0-.322-.137,0,0l1.4,1.419h0a5.77,5.77,0,0,0,0-.682V35.546a2.4,2.4,0,0,0-.243-1.11,2.363,2.363,0,0,0-.723-.868,2.307,2.307,0,0,0-2.151-.315,2.047,2.047,0,0,0-1.188.958,2.1,2.1,0,0,0-.21,1.526,2.041,2.041,0,0,0,.938,1.215,1.989,1.989,0,0,0,1.507.2h-.564l-1.371-1.419h0a4.883,4.883,0,0,0,0,.628v8.816a92.894,92.894,0,0,0,0,9.472c.3,2.73,2.983,2.4,5,2.4h3.306a4.161,4.161,0,0,0,2.365-.382c1.209-.792,1.075-2.129,1.075-3.385v-4.5c0-7.834.215-15.668,0-23.5a2.753,2.753,0,0,0-.787-1.93,2.667,2.667,0,0,0-1.9-.8H26.684c-1.4,0-2.231,1.2-3.171,2.129L18.81,29.4c-1.29,1.31-2.688,2.539-3.9,3.9-1.962,2.184.269,3.958,1.72,5.459s3.279,4.176,5.509,2.074c1.425-1.31,2.688-2.729,4.085-4.149C27.839,34.781,25.018,31.915,23.217,33.772Z" transform="translate(24.893 39.571)" fill="#404852"/>
  </g>
</svg>
