<svg id="Unknown4" xmlns="http://www.w3.org/2000/svg" width="159.435" height="159.435" viewBox="0 0 159.435 159.435">
  <path id="Path_2099" data-name="Path 2099" d="M61.649,109.571c27.443,0,49.691-22,49.691-49.128S89.092,11.315,61.649,11.315s-49.69,22-49.69,49.127S34.206,109.571,61.649,109.571Z" transform="translate(22.088 20.9)" fill="#f7b519"/>
  <path id="Path_2100" data-name="Path 2100" d="M42.781,45.71a43.968,43.968,0,0,1-4.451,2.332,2.532,2.532,0,0,0-1.1,1.445,2.374,2.374,0,0,0,.212,1.846,2.4,2.4,0,0,0,.625.719,2.433,2.433,0,0,0,.858.423h.631a2.412,2.412,0,0,0,1.262-.328,47.221,47.221,0,0,0,4.418-2.332,2.468,2.468,0,0,0,1.129-1.445,2.394,2.394,0,0,0-.85-2.542,2.41,2.41,0,0,0-.844-.413,2.718,2.718,0,0,0-1.893.23Z" transform="translate(68.592 83.742)" fill="#404852"/>
  <path id="Path_2101" data-name="Path 2101" d="M53.04,37.194a14.471,14.471,0,0,1-.7,1.576l-.9,1.9c-.665,1.281-1.329,2.5-2.06,3.711s-1.495,2.43-2.325,3.58S45.566,50,44.67,51.249A2.41,2.41,0,0,0,45.1,54.1a2.48,2.48,0,0,0,2.886.43,62.243,62.243,0,0,0,9.633-16.026,2.407,2.407,0,0,0-.224-1.839,2.454,2.454,0,0,0-1.47-1.149,2.618,2.618,0,0,0-1.845.277,2.568,2.568,0,0,0-1.178,1.431Z" transform="translate(81.981 65.494)" fill="#404852"/>
  <path id="Path_2102" data-name="Path 2102" d="M13.1,20.546a60.032,60.032,0,0,0,.583,51.441A60.768,60.768,0,0,0,30.2,92.673a61.622,61.622,0,0,0,23.827,11.81,63.212,63.212,0,0,0,27.834.427c3.089-.624,1.794-5.287-1.3-4.663a56.976,56.976,0,0,1-45.129-9.681A56.036,56.036,0,0,1,19.77,73.1,55.381,55.381,0,0,1,12.7,50.824a56.3,56.3,0,0,1,4.617-27.815C18.582,20.185,14.4,17.722,13.1,20.546Z" transform="translate(14.036 35.642)" fill="#404852"/>
  <path id="Path_2103" data-name="Path 2103" d="M24.116,12.13A61.545,61.545,0,0,0,11.427,25.791a2.389,2.389,0,0,0-.251,1.83,2.415,2.415,0,0,0,1.131,1.47,2.466,2.466,0,0,0,1.851.249,2.439,2.439,0,0,0,1.487-1.119l1.3-1.839.631-.788h0l.332-.46a39.873,39.873,0,0,1,2.923-3.284,61.157,61.157,0,0,1,6.643-6.108,2.378,2.378,0,0,0,0-3.284,2.58,2.58,0,0,0-3.322,0Z" transform="translate(20.493 21.892)" fill="#404852"/>
  <path id="Path_2104" data-name="Path 2104" d="M108.468,72.474a60,60,0,0,0-5.88-30.92,60.792,60.792,0,0,0-20.77-23.836,61.882,61.882,0,0,0-61.3-4.354c-2.856,1.346-.365,5.517,2.458,4.171a57.015,57.015,0,0,1,56.384,4.411A56,56,0,0,1,98.331,43.994a55.279,55.279,0,0,1,5.255,28.48C103.353,75.594,108.236,75.561,108.468,72.474Z" transform="translate(35.554 13.368)" fill="#404852"/>
  <path id="Path_2105" data-name="Path 2105" d="M24.214,13.464C20.394,9.852,21.922,0,17.837,0s-2.524,9.852-6.344,13.464C5.746,19.145,0,19.7,0,21.871s4.916,1.938,10.5,7.454c2.923,2.89,4.517,14.745,7.341,14.745s4.451-11.855,7.374-14.745c5.58-5.517,10.5-5.156,10.5-7.454S29.894,19.145,24.214,13.464Z" fill="#f7b519"/>
  <path id="Path_2106" data-name="Path 2106" d="M64.838,54.461c-2.89-2.857-1.727-10.18-4.816-10.18S58.1,51.6,55.206,54.461c-4.351,4.3-8.7,4.663-8.7,6.371s3.72,1.445,7.972,5.648c2.192,2.2,3.322,11.166,5.547,11.166S63.344,68.68,65.6,66.48c4.218-4.2,7.938-3.776,7.938-5.648S69.19,58.763,64.838,54.461Z" transform="translate(85.894 81.789)" fill="#f7b519"/>
  <path id="Path_2107" data-name="Path 2107" d="M28.548,20.056V76.442a2.422,2.422,0,0,0,.807,1.533,2.478,2.478,0,0,0,3.268,0,2.42,2.42,0,0,0,.807-1.533V20.056a2.42,2.42,0,0,0-.807-1.533,2.478,2.478,0,0,0-3.268,0A2.422,2.422,0,0,0,28.548,20.056Z" transform="translate(52.73 33.078)" fill="#404852"/>
  <path id="Path_2108" data-name="Path 2108" d="M77.831,27.683H20.8a2.466,2.466,0,0,0-1.551.8,2.41,2.41,0,0,0,0,3.231,2.466,2.466,0,0,0,1.551.8H77.831a2.466,2.466,0,0,0,1.551-.8,2.41,2.41,0,0,0,0-3.231A2.466,2.466,0,0,0,77.831,27.683Z" transform="translate(34.405 51.132)" fill="#404852"/>
</svg>
