<svg id="getting_jobs-037938907c55e3d9ae963b4a182b3150" xmlns="http://www.w3.org/2000/svg" width="166.054" height="129.341" viewBox="0 0 166.054 129.341">
  <path id="Path_2125" data-name="Path 2125" d="M135.939,14.9H11.286A3.921,3.921,0,0,0,7.44,18.891V85.449a3.921,3.921,0,0,0,3.846,3.991H135.939a3.92,3.92,0,0,0,3.846-3.991V18.891A3.92,3.92,0,0,0,135.939,14.9Z" transform="translate(9.744 19.513)" fill="#f7b519"/>
  <path id="Path_2126" data-name="Path 2126" d="M135.744,11.614H11.091a3.921,3.921,0,0,0-3.846,3.991V82.164a3.921,3.921,0,0,0,3.846,3.991H135.744a3.92,3.92,0,0,0,3.846-3.991V15.605A3.92,3.92,0,0,0,135.744,11.614Z" transform="translate(9.489 15.211)" fill="#fff"/>
  <path id="Path_2127" data-name="Path 2127" d="M137.121,85.441H15.864c-2.494,0-4.816.5-5.024-2.769-.381-6.221,0-12.621,0-18.842V35.675a140.946,140.946,0,0,1,0-17.979c.416-3.2,3.187-2.445,5.647-2.445H130.158c2.217,0,7.657-1.223,8.7,1.8a14.923,14.923,0,0,1,0,4.135V80.8c0,2.086.554,4.315-2.287,4.711s-1.524,4.6,1.143,4.243c6.617-.935,5.37-8.666,5.37-13.664v-53.4c0-5.034.52-11.183-5.994-11.794-10.394-.935-21.168,0-31.492,0h-57.3c-11.71,0-23.593-.575-35.338,0-5.509.288-6.444,4.567-6.444,9.241V72.568c0,4.1-1.317,11.507,1.42,14.995s6.929,2.265,10.082,2.265h119.11a2.075,2.075,0,0,0,1.494-.642,2.253,2.253,0,0,0,0-3.1,2.075,2.075,0,0,0-1.494-.642Z" transform="translate(8.111 13.731)" fill="#404852"/>
  <path id="Path_2128" data-name="Path 2128" d="M46.8,60.46c10.983,0,19.886-9.241,19.886-20.64S57.779,19.18,46.8,19.18,26.91,28.421,26.91,39.821,35.814,60.46,46.8,60.46Z" transform="translate(35.244 25.12)" fill="#f7b519"/>
  <path id="Path_2129" data-name="Path 2129" d="M44.446,58.484a17.317,17.317,0,0,1-7.234-3.464A18.149,18.149,0,0,1,32.191,48.6a18.888,18.888,0,0,1,.046-16.108A18.137,18.137,0,0,1,37.294,26.1a17.307,17.307,0,0,1,7.254-3.419,16.973,16.973,0,0,1,7.963.25A17.4,17.4,0,0,1,59.551,26.8c2.044,1.834,5.058-1.259,3.014-3.092a21.228,21.228,0,0,0-28.528-.46A22.868,22.868,0,0,0,26.5,36.979a23.369,23.369,0,0,0,2.942,15.5,22.228,22.228,0,0,0,13.858,10c2.633.575,3.776-3.6,1.109-4.243Z" transform="translate(34.337 23.537)" fill="#404852"/>
  <path id="Path_2130" data-name="Path 2130" d="M43.966,34.8a23.556,23.556,0,0,1-2.113,1.079l.485-.216a19.86,19.86,0,0,1-4.989,1.4A2.129,2.129,0,0,0,36.086,38.1a2.221,2.221,0,0,0,.778,2.954,2.311,2.311,0,0,0,1.628.216,20.486,20.486,0,0,0,7.587-2.7,2.186,2.186,0,0,0,.973-1.329,2.267,2.267,0,0,0-.21-1.655,2.157,2.157,0,0,0-1.284-1,2.078,2.078,0,0,0-1.591.2Z" transform="translate(46.908 45.209)" fill="#404852"/>
  <path id="Path_2131" data-name="Path 2131" d="M44.907,28.987v1.582a5.584,5.584,0,0,1,0,.791v.18a20.7,20.7,0,0,1-.624,2.913,4.035,4.035,0,0,1-.45,1.33c-.006.12-.006.24,0,.36l-.243.575A25.372,25.372,0,0,1,42.2,39.235a2.266,2.266,0,0,0-.21,1.655,2.186,2.186,0,0,0,.973,1.33,2.08,2.08,0,0,0,1.591.2,2.156,2.156,0,0,0,1.284-1,23.4,23.4,0,0,0,3.465-12.441,2.236,2.236,0,0,0-.619-1.551,2.06,2.06,0,0,0-2.989,0,2.236,2.236,0,0,0-.619,1.551Z" transform="translate(54.906 35.091)" fill="#404852"/>
  <path id="Path_2132" data-name="Path 2132" d="M60.633,72.931H27.477l2.113,2.193a18.316,18.316,0,0,0-5.069-12.287,17.022,17.022,0,0,0-11.838-5.261L14.8,59.771V32.011L12.684,34.2a17.023,17.023,0,0,0,11.838-5.261,18.316,18.316,0,0,0,5.069-12.287L27.477,18.85H43.553a2.075,2.075,0,0,0,1.494-.643,2.253,2.253,0,0,0,0-3.1,2.075,2.075,0,0,0-1.494-.643H27.477A2.146,2.146,0,0,0,26,15.126a2.307,2.307,0,0,0-.638,1.531A13.6,13.6,0,0,1,21.6,25.911a12.626,12.626,0,0,1-8.916,3.906,2.113,2.113,0,0,0-1.462.665,2.273,2.273,0,0,0-.616,1.529v27.76a2.236,2.236,0,0,0,.607,1.538,2.077,2.077,0,0,0,1.472.655,12.59,12.59,0,0,1,8.926,3.9,13.559,13.559,0,0,1,3.754,9.265,2.27,2.27,0,0,0,.629,1.541,2.109,2.109,0,0,0,1.484.653H60.633a2.075,2.075,0,0,0,1.494-.642,2.253,2.253,0,0,0,0-3.1,2.075,2.075,0,0,0-1.494-.642Z" transform="translate(13.889 18.942)" fill="#404852"/>
  <path id="Path_2133" data-name="Path 2133" d="M50.366,39.778H38.413a2.075,2.075,0,0,0-1.494.642,2.237,2.237,0,0,0-.619,1.551,2.272,2.272,0,0,0,.629,1.541,2.111,2.111,0,0,0,1.484.653H50.366a2.075,2.075,0,0,0,1.494-.643,2.236,2.236,0,0,0,.619-1.551,2.272,2.272,0,0,0-.629-1.541,2.109,2.109,0,0,0-1.484-.653Z" transform="translate(47.541 52.096)" fill="#404852"/>
  <path id="Path_2134" data-name="Path 2134" d="M41.7,18.85H72.879l-2.113-2.193a18.317,18.317,0,0,0,5.069,12.287A17.023,17.023,0,0,0,87.672,34.2l-2.113-2.193v27.76l2.113-2.193a17.022,17.022,0,0,0-11.838,5.261,18.317,18.317,0,0,0-5.069,12.287l2.113-2.193H56.215a2.075,2.075,0,0,0-1.494.642,2.253,2.253,0,0,0,0,3.1,2.075,2.075,0,0,0,1.494.642H72.879a2.11,2.11,0,0,0,1.484-.653,2.272,2.272,0,0,0,.629-1.541,13.6,13.6,0,0,1,3.763-9.254,12.625,12.625,0,0,1,8.917-3.906,2.112,2.112,0,0,0,1.484-.653,2.272,2.272,0,0,0,.629-1.541V32.011a2.272,2.272,0,0,0-.629-1.541,2.11,2.11,0,0,0-1.484-.653A12.661,12.661,0,0,1,78.765,25.9a13.63,13.63,0,0,1-3.773-9.244,2.272,2.272,0,0,0-.629-1.541,2.111,2.111,0,0,0-1.484-.653H41.7a2.075,2.075,0,0,0-1.494.643,2.252,2.252,0,0,0,0,3.1,2.075,2.075,0,0,0,1.494.643Z" transform="translate(51.843 18.942)" fill="#404852"/>
  <path id="Path_2135" data-name="Path 2135" d="M30.3,18.85H44.953a2.075,2.075,0,0,0,1.494-.643,2.252,2.252,0,0,0,0-3.1,2.075,2.075,0,0,0-1.494-.643H30.3a2.146,2.146,0,0,0-1.475.662,2.307,2.307,0,0,0-.638,1.531,2.272,2.272,0,0,0,.629,1.541,2.111,2.111,0,0,0,1.485.653Z" transform="translate(36.913 18.942)" fill="#404852"/>
  <path id="Path_2136" data-name="Path 2136" d="M11.814,6.9C9.943,4.962,10.705,0,8.7,0S7.483,4.962,5.613,6.9C2.806,9.817,0,10.032,0,11.219s2.391.971,5.127,3.812c1.42,1.474,2.183,7.551,3.465,7.551s2.183-6.077,3.465-7.551c2.979-2.841,5.266-2.661,5.266-3.812S14.62,9.817,11.814,6.9Z" fill="#f7b519"/>
  <path id="Path_2137" data-name="Path 2137" d="M76.269,53.127c-1.871-1.942-1.109-6.9-3.083-6.9s-1.247,4.962-3.118,6.9c-2.806,2.912-5.613,3.164-5.613,4.315s2.39.971,5.127,3.811C71,62.764,71.8,68.8,73.047,68.8s2.148-6.041,3.465-7.551c2.737-2.841,5.127-2.625,5.127-3.811S79.075,56.039,76.269,53.127Z" transform="translate(84.415 60.537)" fill="#f7b519"/>
</svg>
