<svg xmlns="http://www.w3.org/2000/svg" xmlns:xlink="http://www.w3.org/1999/xlink" width="215" height="215" viewBox="0 0 215 215">
  <defs>
    <style>
      .cls-1 {
        fill: #fff;
      }

      .cls-2 {
        clip-path: url(#clip-path);
      }

      .cls-3 {
        fill: #fed12f;
      }

      .cls-4 {
        fill: #404852;
      }
    </style>
    <clipPath id="clip-path">
      <rect id="Rectangle_630" data-name="Rectangle 630" class="cls-1" width="215" height="215"/>
    </clipPath>
  </defs>
  <g id="download_1_" data-name="download (1)" class="cls-2">
    <path id="Path_2408" data-name="Path 2408" class="cls-3" d="M100.657,2.036c11.967.268,15.118,28.257,15.118,28.257H7.07S7.908,8.27,14.646,4.918,80.545,1.566,100.657,2.036Z" transform="translate(20.015 5.138)"/>
    <path id="Path_2409" data-name="Path 2409" class="cls-3" d="M11.771,69.46c6.938,6.905,12.235,6.9,32.849,6s65.363-.872,65.363-.872A35.664,35.664,0,0,1,88.1,61.918c-5.832-7.911-7.642-16.76-6.7-15.989H7.078S6.609,64.331,11.771,69.46Z" transform="translate(20.006 129.882)"/>
    <path id="Path_2410" data-name="Path 2410" class="cls-4" d="M110.205,199.669H35.591c-6.7,0-13.408.7-18.8-4.525-4.358-4.358-4.525-9.654-4.525-15.285V21.915A15.654,15.654,0,0,1,20.909,7.97C25.836,5.49,32.674,6.4,38.037,6.4H67.5c15.218,0,30.436-.235,45.654,0a15.654,15.654,0,0,1,15.017,11.933,25.907,25.907,0,0,1,.4,6.235v83.8a2.682,2.682,0,1,0,5.363,0V31.937c0-6.067.7-12.8-1.777-18.5A21.083,21.083,0,0,0,114.4,1.065H29.088a23.9,23.9,0,0,0-10.86,2.279A21.117,21.117,0,0,0,6.9,21.814V149.155c0,11.632-.168,23.263,0,34.894a21.151,21.151,0,0,0,21.151,20.983h82.157a2.682,2.682,0,1,0,0-5.363Z" transform="translate(19.315 2.99)"/>
    <path id="Path_2411" data-name="Path 2411" class="cls-4" d="M9.524,14.358H131.2a2.682,2.682,0,0,0,0-5.363H9.524a2.682,2.682,0,1,0,0,5.363Z" transform="translate(19.371 25.463)"/>
    <path id="Path_2412" data-name="Path 2412" class="cls-4" d="M9.524,50.338H84.541a2.682,2.682,0,0,0,0-5.363H9.524a2.682,2.682,0,0,0,0,5.363Z" transform="translate(19.371 127.316)"/>
    <path id="Path_2413" data-name="Path 2413" class="cls-4" d="M27.51,47.426l-.552-10.3L35.6,42.737l2.574-4.413-9.1-4.689,9.1-4.689L35.6,24.533l-8.642,5.516.552-10.3H22.361l.46,10.3-8.642-5.516L11.7,28.946l9.1,4.689-9.1,4.689,2.482,4.413,8.642-5.608-.46,10.3Z" transform="translate(33.11 55.914)"/>
    <path id="Path_2414" data-name="Path 2414" class="cls-4" d="M35.807,47.426l-.552-10.3L43.9,42.737l2.574-4.413-9.1-4.689,9.1-4.689L43.9,24.533l-8.642,5.516.552-10.3H30.658l.46,10.3-8.642-5.516-2.482,4.413,9.1,4.689-9.1,4.689,2.482,4.413,8.642-5.608-.46,10.3Z" transform="translate(56.597 55.914)"/>
    <path id="Path_2415" data-name="Path 2415" class="cls-4" d="M44.1,47.426l-.552-10.3,8.642,5.608,2.574-4.413-9.1-4.689,9.1-4.689-2.574-4.413-8.642,5.516.552-10.3H38.955l.46,10.3-8.642-5.516L28.29,28.946l9.1,4.689-9.1,4.689,2.482,4.413,8.642-5.608-.46,10.3Z" transform="translate(80.084 55.914)"/>
    <path id="Path_2416" data-name="Path 2416" class="cls-3" d="M31,47.823,61.647,32.5l9.577,5.746,22.985,9.577,1.915,11.492L92.293,82.3,78.885,99.539,61.647,107.2l-3.831-1.915L36.746,88.047,31,70.808Z" transform="translate(87.755 92.002)"/>
    <path id="Path_2417" data-name="Path 2417" class="cls-4" d="M91.347,97.556c7.676-7.609,10.056-18.436,11.162-28.894a93.848,93.848,0,0,0,0-18.67,2.748,2.748,0,0,0-2.682-2.682c-6.972,0-14.112-4.358-20.112-7.743a137.245,137.245,0,0,1-12-7.676,2.58,2.58,0,0,0-2.682,0,137.127,137.127,0,0,1-12,7.676c-5.866,3.352-13.006,7.71-20.112,7.743a2.715,2.715,0,0,0-2.682,2.682,80.449,80.449,0,0,0,3.687,35.095A44.312,44.312,0,0,0,52.263,106a63.677,63.677,0,0,0,10.257,5.9,7.876,7.876,0,0,0,4.927,1.24,41.033,41.033,0,0,0,8.782-4.089,73.739,73.739,0,0,0,15.118-11.4c2.48-2.413-1.307-6.2-3.788-3.788a62.984,62.984,0,0,1-20.782,13.71c-1.709.637,0-.168.335.3-.167-.3-1.642-.6-1.944-.737a64.355,64.355,0,0,1-8.447-4.559C49.38,97.925,42.341,92.16,39.257,83.813a66.61,66.61,0,0,1-3.587-20.95,86.837,86.837,0,0,1,.335-12.872l-2.682,2.682c7.642,0,15.285-4.257,21.788-7.944a146.343,146.343,0,0,0,12.872-8.179H65.3a146.392,146.392,0,0,0,12.737,8.313c6.5,3.687,14.145,7.911,21.788,7.944l-2.682-2.682a94.7,94.7,0,0,1,0,17.162c-.7,9.486-2.749,19.676-9.687,26.615a2.681,2.681,0,0,0,3.788,3.788Z" transform="translate(84.062 89.215)"/>
    <path id="Path_2418" data-name="Path 2418" class="cls-4" d="M34.9,57.331,49.369,73.025a3.308,3.308,0,0,0,4.6,0L74.563,47.108l2.93-3.69a3.233,3.233,0,0,0,0-4.5,3.331,3.331,0,0,0-4.6,0L52.3,64.86l-2.929,3.712h4.6l-14.5-15.737c-2.821-3.033-7.4,1.463-4.6,4.5Z" transform="translate(96.248 107.571)"/>
  </g>
</svg>
