<svg xmlns="http://www.w3.org/2000/svg" xmlns:xlink="http://www.w3.org/1999/xlink" width="228.102" height="46.174" viewBox="0 0 228.102 46.174">
  <defs>
    <clipPath id="clip-path">
      <path id="Path_89" data-name="Path 89" d="M19.55,45.462H13.4L32.11,5.285,50.155,45.462H43.911" transform="translate(-13.405 -5.285)" fill="none"/>
    </clipPath>
    <linearGradient id="linear-gradient" x1="-1.575" y1="2.225" x2="-0.792" y2="2.225" gradientUnits="objectBoundingBox">
      <stop offset="0" stop-color="#004661"/>
      <stop offset="1" stop-color="#0077b9"/>
    </linearGradient>
    <linearGradient id="linear-gradient-2" x1="-485.065" y1="599.191" x2="-484.065" y2="599.191" xlink:href="#linear-gradient"/>
    <clipPath id="clip-path-2">
      <path id="Path_56" data-name="Path 56" d="M77.729,63.69H70.088L72,66.68l1.91,2.99h0l1.91,2.99,1.91-2.99h0l1.91-2.99,1.91-2.99Z" transform="translate(-70.088 -63.69)" fill="none"/>
    </clipPath>
    <linearGradient id="linear-gradient-3" x1="-85.759" y1="212.884" x2="-84.976" y2="212.884" gradientUnits="objectBoundingBox">
      <stop offset="0" stop-color="#fff"/>
      <stop offset="1" stop-color="#333"/>
    </linearGradient>
    <linearGradient id="linear-gradient-4" x1="-485.06" y1="189.359" x2="-484.06" y2="189.359" gradientUnits="objectBoundingBox">
      <stop offset="0" stop-color="#f8911a"/>
      <stop offset="1" stop-color="#ffd200"/>
    </linearGradient>
    <linearGradient id="linear-gradient-5" x1="-242.531" y1="94.929" x2="-241.531" y2="94.929" gradientUnits="objectBoundingBox">
      <stop offset="0" stop-color="#028ab6"/>
      <stop offset="1" stop-color="#5ac2f2"/>
    </linearGradient>
    <linearGradient id="linear-gradient-6" x1="-485.066" y1="189.349" x2="-484.066" y2="189.349" gradientUnits="objectBoundingBox">
      <stop offset="0" stop-color="#8c0043"/>
      <stop offset="1" stop-color="#db003e"/>
    </linearGradient>
    <linearGradient id="linear-gradient-7" x1="-485.066" y1="189.349" x2="-484.066" y2="189.349" gradientUnits="objectBoundingBox">
      <stop offset="0" stop-color="#a20d5a"/>
      <stop offset="1" stop-color="#dc155a"/>
    </linearGradient>
    <linearGradient id="linear-gradient-8" x1="-485.034" y1="189.349" x2="-484.034" y2="189.349" xlink:href="#linear-gradient-4"/>
    <linearGradient id="linear-gradient-9" x1="-485.066" y1="603.241" x2="-484.066" y2="603.241" xlink:href="#linear-gradient-7"/>
    <linearGradient id="linear-gradient-10" x1="-485.066" y1="603.241" x2="-484.066" y2="603.241" gradientUnits="objectBoundingBox">
      <stop offset="0" stop-color="#cb5a9a"/>
      <stop offset="1" stop-color="#dc155a"/>
    </linearGradient>
    <linearGradient id="linear-gradient-11" x1="-485.066" y1="603.241" x2="-484.066" y2="603.241" gradientUnits="objectBoundingBox">
      <stop offset="0" stop-color="#dc207b"/>
      <stop offset="1" stop-color="#dc175a"/>
    </linearGradient>
    <linearGradient id="linear-gradient-12" x1="-485.034" y1="189.364" x2="-484.034" y2="189.364" gradientUnits="objectBoundingBox">
      <stop offset="0" stop-color="#ffe951"/>
      <stop offset="1" stop-color="#fb9b10"/>
    </linearGradient>
    <linearGradient id="linear-gradient-13" x1="-485.065" y1="189.364" x2="-484.065" y2="189.364" gradientUnits="objectBoundingBox">
      <stop offset="0" stop-color="#ed670b"/>
      <stop offset="1" stop-color="#ffb300"/>
    </linearGradient>
    <linearGradient id="linear-gradient-14" x1="-485.066" y1="189.364" x2="-484.066" y2="189.364" xlink:href="#linear-gradient-10"/>
    <linearGradient id="linear-gradient-15" x1="-485.066" y1="189.364" x2="-484.066" y2="189.364" xlink:href="#linear-gradient-11"/>
    <linearGradient id="linear-gradient-16" x1="-485.066" y1="189.364" x2="-484.066" y2="189.364" xlink:href="#linear-gradient-6"/>
    <linearGradient id="linear-gradient-18" x1="-485.034" y1="189.364" x2="-484.034" y2="189.364" xlink:href="#linear-gradient-10"/>
    <linearGradient id="linear-gradient-19" x1="-485.065" y1="189.364" x2="-484.065" y2="189.364" xlink:href="#linear-gradient-12"/>
    <linearGradient id="linear-gradient-20" x1="-485.034" y1="599.191" x2="-484.034" y2="599.191" gradientUnits="objectBoundingBox">
      <stop offset="0" stop-color="#005f78"/>
      <stop offset="1" stop-color="#0096d6"/>
    </linearGradient>
    <linearGradient id="linear-gradient-21" x1="-485.066" y1="599.191" x2="-484.066" y2="599.191" xlink:href="#linear-gradient-5"/>
    <linearGradient id="linear-gradient-22" x1="-323.374" y1="94.93" x2="-322.374" y2="94.93" xlink:href="#linear-gradient-6"/>
    <linearGradient id="linear-gradient-23" x1="-711.863" y1="882.582" x2="-710.863" y2="882.582" xlink:href="#linear-gradient-10"/>
    <linearGradient id="linear-gradient-24" x1="-485.066" y1="595.053" x2="-484.066" y2="595.053" xlink:href="#linear-gradient-10"/>
    <linearGradient id="linear-gradient-25" x1="-720.968" y1="281.194" x2="-719.968" y2="281.194" xlink:href="#linear-gradient-5"/>
    <linearGradient id="linear-gradient-26" x1="-485.065" y1="189.364" x2="-484.065" y2="189.364" gradientUnits="objectBoundingBox">
      <stop offset="0" stop-color="#a16705"/>
      <stop offset="1" stop-color="#f78e00"/>
    </linearGradient>
    <linearGradient id="linear-gradient-27" x1="-970.195" y1="378.197" x2="-969.195" y2="378.197" xlink:href="#linear-gradient-4"/>
    <linearGradient id="linear-gradient-28" x1="-3.311" y1="4.233" x2="-2.528" y2="4.233" xlink:href="#linear-gradient-20"/>
    <linearGradient id="linear-gradient-29" x1="-485.066" y1="598.577" x2="-484.066" y2="598.577" xlink:href="#linear-gradient"/>
    <clipPath id="clip-path-3">
      <path id="Path_84" data-name="Path 84" d="M42.8,85.711H36.1l3.348,5.241Z" transform="translate(-36.104 -85.711)" fill="none"/>
    </clipPath>
    <linearGradient id="linear-gradient-30" x1="-216.119" y1="266.707" x2="-215.119" y2="266.707" gradientUnits="objectBoundingBox">
      <stop offset="0" stop-color="#333"/>
      <stop offset="1" stop-color="#fff"/>
    </linearGradient>
    <linearGradient id="linear-gradient-31" x1="-2.901" y1="1.321" x2="-2.118" y2="1.321" xlink:href="#linear-gradient-10"/>
    <clipPath id="clip-path-4">
      <path id="Path_88" data-name="Path 88" d="M79.639,85.711H70.662l4.488,7.027Z" transform="translate(-70.662 -85.711)" fill="none"/>
    </clipPath>
    <linearGradient id="linear-gradient-32" x1="-191.454" y1="236.509" x2="-190.454" y2="236.509" xlink:href="#linear-gradient-3"/>
    <linearGradient id="linear-gradient-33" x1="-537.077" y1="662.943" x2="-536.077" y2="662.943" xlink:href="#linear-gradient-3"/>
  </defs>
  <g id="Group_4785" data-name="Group 4785" transform="translate(-76.566 -43)">
    <g id="Group_48" data-name="Group 48" transform="translate(63.161 37.715)">
      <g id="Group_47" data-name="Group 47" transform="translate(13.405 5.285)">
        <g id="Group_46" data-name="Group 46" clip-path="url(#clip-path)">
          <g id="Group_45" data-name="Group 45" transform="translate(5.097 11.791)">
            <path id="Path_53" data-name="Path 53" d="M77.729,63.69H70.088L72,66.68l1.91,2.99h0l1.91,2.99,1.91-2.99h0l1.91-2.99,1.91-2.99Z" transform="translate(-50.253 -49.792)" fill="url(#linear-gradient)"/>
            <path id="Path_54" data-name="Path 54" d="M63.05,84.994h6.7L66.4,79.753Z" transform="translate(-46.31 -58.789)" fill="url(#linear-gradient-2)"/>
            <g id="Group_39" data-name="Group 39" transform="translate(19.836 13.898)">
              <g id="Group_38" data-name="Group 38" clip-path="url(#clip-path-2)">
                <path id="Path_55" data-name="Path 55" d="M97.324,48.712H72.044L84.684,68.5Z" transform="translate(-71.184 -55.3)" fill="url(#linear-gradient-3)" style="mix-blend-mode: color-burn;isolation: isolate"/>
              </g>
            </g>
            <path id="Path_57" data-name="Path 57" d="M74.01,67.838l-3.348,5.241h6.7Z" transform="translate(-50.574 -52.115)" fill="url(#linear-gradient-4)"/>
            <path id="Path_58" data-name="Path 58" d="M49.143,79.753H40.215l2.232,3.494,2.232,3.494h0l2.232,3.494,2.232-3.494h0l2.232-3.494,2.232-3.494Z" transform="translate(-33.519 -58.79)" fill="url(#linear-gradient-5)"/>
            <path id="Path_59" data-name="Path 59" d="M46.911,49.248h-6.7l3.348-5.241Z" transform="translate(-33.519 -38.766)" fill="url(#linear-gradient-6)"/>
            <path id="Path_60" data-name="Path 60" d="M47.827,44.007h6.7l-3.348,5.241Z" transform="translate(-37.783 -38.766)" fill="url(#linear-gradient-7)"/>
            <path id="Path_61" data-name="Path 61" d="M62.134,49.248h-6.7l3.348-5.241Z" transform="translate(-42.046 -38.766)" fill="url(#linear-gradient-8)"/>
            <path id="Path_62" data-name="Path 62" d="M32.6,61.164h6.7l-3.348-5.241Z" transform="translate(-29.256 -45.441)" fill="url(#linear-gradient-9)"/>
            <path id="Path_63" data-name="Path 63" d="M46.911,55.923h-6.7l3.348,5.241Z" transform="translate(-33.519 -45.441)" fill="url(#linear-gradient-10)"/>
            <path id="Path_64" data-name="Path 64" d="M47.827,61.164h6.7l-3.348-5.241Z" transform="translate(-37.783 -45.441)" fill="url(#linear-gradient-11)"/>
            <path id="Path_65" data-name="Path 65" d="M62.134,55.923h-6.7l3.348,5.241Z" transform="translate(-42.046 -45.441)" fill="url(#linear-gradient-12)"/>
            <path id="Path_66" data-name="Path 66" d="M63.05,61.164h6.7L66.4,55.923Z" transform="translate(-46.31 -45.441)" fill="url(#linear-gradient-13)"/>
            <path id="Path_67" data-name="Path 67" d="M31.688,73.079h-6.7l3.348-5.241Z" transform="translate(-24.992 -52.115)" fill="url(#linear-gradient-14)"/>
            <path id="Path_68" data-name="Path 68" d="M32.6,67.838h6.7l-3.348,5.241Z" transform="translate(-29.256 -52.115)" fill="url(#linear-gradient-15)"/>
            <path id="Path_69" data-name="Path 69" d="M46.911,73.079h-6.7l3.348-5.241Z" transform="translate(-33.519 -52.115)" fill="url(#linear-gradient-16)"/>
            <path id="Path_70" data-name="Path 70" d="M47.827,67.838h6.7l-3.348,5.241Z" transform="translate(-37.783 -52.115)" fill="url(#linear-gradient-15)"/>
            <path id="Path_71" data-name="Path 71" d="M62.134,73.079h-6.7l3.348-5.241Z" transform="translate(-42.046 -52.115)" fill="url(#linear-gradient-18)"/>
            <path id="Path_72" data-name="Path 72" d="M63.05,67.838h6.7L66.4,73.079Z" transform="translate(-46.31 -52.115)" fill="url(#linear-gradient-19)"/>
            <path id="Path_73" data-name="Path 73" d="M62.134,79.753h-6.7l3.348,5.241Z" transform="translate(-42.046 -58.789)" fill="url(#linear-gradient-20)"/>
            <path id="Path_74" data-name="Path 74" d="M77.358,79.753h-6.7l3.348,5.241Z" transform="translate(-50.574 -58.789)" fill="url(#linear-gradient-21)"/>
            <g id="Group_40" data-name="Group 40" transform="translate(6.696 10.482)">
              <path id="Path_75" data-name="Path 75" d="M50.259,61.164l-3.348-5.241-3.348,5.241h0L40.215,66.4h6.7Z" transform="translate(-40.215 -55.923)" fill="url(#linear-gradient-22)"/>
            </g>
            <path id="Path_76" data-name="Path 76" d="M52.39,67.838H47.827l2.281,3.571Z" transform="translate(-37.783 -52.115)" fill="url(#linear-gradient-23)"/>
            <path id="Path_77" data-name="Path 77" d="M47.827,37.333h6.7l-3.348-5.241Z" transform="translate(-37.783 -32.092)" fill="url(#linear-gradient-24)"/>
            <path id="Path_78" data-name="Path 78" d="M79.543,53.241h-4.5l2.252-3.526Z" transform="translate(-53.025 -41.964)" fill="url(#linear-gradient-25)"/>
            <path id="Path_79" data-name="Path 79" d="M69.746,61.164h-6.7L66.4,55.923Z" transform="translate(-46.31 -45.441)" fill="url(#linear-gradient-26)"/>
            <path id="Path_80" data-name="Path 80" d="M71.232,60.353H74.58l-1.674-2.621Z" transform="translate(-50.893 -46.454)" fill="url(#linear-gradient-27)"/>
            <path id="Path_81" data-name="Path 81" d="M80.964,67.838H75.68l2.642,4.136Z" transform="translate(-53.385 -52.115)" fill="url(#linear-gradient-28)"/>
            <path id="Path_82" data-name="Path 82" d="M40.8,83.71H34.1l3.788,5.241Z" transform="translate(-30.096 -61.006)" fill="url(#linear-gradient-29)"/>
            <g id="Group_42" data-name="Group 42" transform="translate(4.888 23.584)">
              <g id="Group_41" data-name="Group 41" clip-path="url(#clip-path-3)">
                <path id="Path_83" data-name="Path 83" d="M30.406,79.753H15.378l7.514,11.763Z" transform="translate(-24.494 -82.374)" fill="url(#linear-gradient-30)" style="mix-blend-mode: color-burn;isolation: isolate"/>
              </g>
            </g>
            <path id="Path_85" data-name="Path 85" d="M79.639,85.711H70.662l4.488,7.027Z" transform="translate(-50.574 -62.127)" fill="url(#linear-gradient-31)"/>
            <g id="Group_44" data-name="Group 44" transform="translate(20.088 23.584)">
              <g id="Group_43" data-name="Group 43" clip-path="url(#clip-path-4)">
                <path id="Path_86" data-name="Path 86" d="M87.626,75.261H70.662l8.482,13.278Z" transform="translate(-70.662 -79.857)" fill="url(#linear-gradient-32)" style="mix-blend-mode: color-burn;isolation: isolate"/>
                <path id="Path_87" data-name="Path 87" d="M87.734,82.937H81.687l3.024,4.733Z" transform="translate(-76.838 -84.157)" fill="url(#linear-gradient-33)" style="mix-blend-mode: color-burn;isolation: isolate"/>
              </g>
            </g>
          </g>
        </g>
      </g>
      <path id="Path_90" data-name="Path 90" d="M39.945,36.281H23.761L19.55,45.462H13.4L32.11,5.285,50.155,45.462H43.911Zm-2.326-5.362L32.012,18.065,26.136,30.919Z" fill="#3f250e"/>
      <path id="Path_91" data-name="Path 91" d="M96.846,42.992h5.509v2.13a10.529,10.529,0,0,1,2.693-2.179,6.207,6.207,0,0,1,2.839-.772,9.22,9.22,0,0,1,4.555,1.58l-1.779,3.668a20.951,20.951,0,0,0-4.192.208c-2.95.563-4.117,2.31-4.117,6.848V66.1H96.846Z" transform="translate(-46.74 -20.661)" fill="#3f250e"/>
      <path id="Path_92" data-name="Path 92" d="M130.544,37.094V54.458a.671.671,0,0,1-.671.671h-4.167a.671.671,0,0,1-.671-.671V37.094a.671.671,0,0,0-.671-.671H123.2a.671.671,0,0,1-.649-.5l-1.131-4.309a.343.343,0,0,1,.337-.439l2.583.084a.671.671,0,0,0,.693-.67V23.212a.67.67,0,0,1,.671-.671h4.167a.671.671,0,0,1,.671.671v7.4a.671.671,0,0,0,.671.671h2.943a.671.671,0,0,1,.671.671v3.8a.671.671,0,0,1-.671.671h-2.943A.671.671,0,0,0,130.544,37.094Z" transform="translate(-60.499 -9.666)" fill="#3f250e"/>
      <path id="Path_93" data-name="Path 93" d="M147.143,15.348a3.594,3.594,0,0,1,3.575-3.55,3.47,3.47,0,0,1,2.546,1.053,3.39,3.39,0,0,1,1.053,2.522,3.47,3.47,0,0,1-1.053,2.547,3.389,3.389,0,0,1-2.522,1.053,3.594,3.594,0,0,1-3.6-3.623Zm6.341,9.916V49.111h-5.509V25.264Z" transform="translate(-74.914 -3.648)" fill="#3f250e"/>
      <path id="Path_94" data-name="Path 94" d="M184.92,53.971h.108c-.035-.038-.073-.067-.108-.1Z" transform="translate(-96.075 -27.214)" fill="#3f250e"/>
      <path id="Path_95" data-name="Path 95" d="M199.958,31.282V22.541h-5.509v8.741h-5.357a8.057,8.057,0,0,1,3.711,4.064l-2.024,1.077h3.67V55.128h5.509V36.423h4.285V31.282Z" transform="translate(-98.412 -9.666)" fill="#3f250e"/>
      <path id="Path_96" data-name="Path 96" d="M174.846,53.837a18.993,18.993,0,0,0-5.9-3.477q-3.183-1.346-3.183-2.718a1.678,1.678,0,0,1,.539-1.285,1.836,1.836,0,0,1,1.3-.5,2.337,2.337,0,0,1,1.676.754c.036.036.073.065.108.1a5.59,5.59,0,0,1,.885,1.347l2.53-1.347,2.024-1.077a8.057,8.057,0,0,0-3.711-4.064,7.087,7.087,0,0,0-3.095-.661,7.472,7.472,0,0,0-5.289,2.032,6.8,6.8,0,0,0-2.13,5.141,5.793,5.793,0,0,0,1.249,3.844,10.339,10.339,0,0,0,3.379,2.35q.856.417,1.689.808t1.665.808q2.154,1.273,2.154,2.742,0,2.546-2.791,2.546a3.408,3.408,0,0,1-2.4-.93,10.228,10.228,0,0,1-1.493-2.179l-4.7,2.179q2.5,5.852,8.5,5.851a8.668,8.668,0,0,0,5.974-2.2,7.508,7.508,0,0,0,2.546-5.778A5.953,5.953,0,0,0,174.846,53.837Z" transform="translate(-81.75 -19.955)" fill="#3f250e"/>
      <path id="Path_97" data-name="Path 97" d="M228.751,25.472h16.306V10.684h5.7v37.8h-5.7V30.834H228.751V48.487h-5.7v-37.8h5.7Z" transform="translate(-117.432 -3.024)" fill="#3f250e"/>
      <path id="Path_98" data-name="Path 98" d="M309.005,41.571h5.533V65.418h-5.533v-2.5a10.579,10.579,0,0,1-15.5-.391,13.292,13.292,0,0,1-3.207-9.108,12.882,12.882,0,0,1,3.207-8.936,10.339,10.339,0,0,1,8.031-3.575,10.141,10.141,0,0,1,7.467,3.428Z" transform="translate(-155.104 -19.955)" fill="#3f250e"/>
      <path id="Path_99" data-name="Path 99" d="M352.721,36.423V55.128h-5.509V36.423h-2.35V31.282h2.35V22.541h5.509v8.741h4.285v5.141Z" transform="translate(-185.667 -9.666)" fill="#3f250e"/>
      <rect id="Rectangle_28" data-name="Rectangle 28" width="0.808" height="13.894" transform="translate(78.57 30.919)" fill="#fff"/>
      <path id="Path_100" data-name="Path 100" d="M62.134,55.923h-6.7l3.348,5.241Z" transform="translate(-23.545 -28.365)" fill="url(#linear-gradient-12)"/>
      <path id="Path_101" data-name="Path 101" d="M62.134,49.248h-6.7l3.348-5.241Z" transform="translate(-23.545 -21.69)" fill="url(#linear-gradient-8)"/>
      <path id="Path_102" data-name="Path 102" d="M31.688,73.079h-6.7l3.348-5.241Z" transform="translate(-6.49 -35.039)" fill="url(#linear-gradient-14)"/>
      <path id="Path_103" data-name="Path 103" d="M47.827,44.007h6.7l-3.348,5.241Z" transform="translate(-19.282 -21.69)" fill="url(#linear-gradient-7)"/>
      <path id="Path_104" data-name="Path 104" d="M46.911,55.923h-6.7l3.348,5.241Z" transform="translate(-15.018 -28.365)" fill="url(#linear-gradient-10)"/>
    </g>
    <path id="Path_2483" data-name="Path 2483" d="M-19.838-9.386a4.226,4.226,0,0,0,2.782-4.134c0-2.964-2.34-4.68-6.4-4.68H-31.3V0h8.372c4.55,0,6.838-1.768,6.838-4.862A4.345,4.345,0,0,0-19.838-9.386Zm-3.744-7.228c2.912,0,4.6,1.118,4.6,3.3s-1.69,3.3-4.6,3.3h-5.8v-6.6Zm.624,15.028H-29.38V-8.424h6.422c3.2,0,4.94,1.04,4.94,3.406C-18.018-2.626-19.76-1.586-22.958-1.586ZM-9.49,0h1.846V-19.292H-9.49ZM5.694.13a6.727,6.727,0,0,0,6.942-6.968A6.706,6.706,0,0,0,5.694-13.78,6.727,6.727,0,0,0-1.274-6.838,6.748,6.748,0,0,0,5.694.13Zm0-1.638A5.007,5.007,0,0,1,.6-6.838a5.007,5.007,0,0,1,5.1-5.33,4.987,4.987,0,0,1,5.07,5.33A4.987,4.987,0,0,1,5.694-1.508ZM29.9-13.676v2.626a6.172,6.172,0,0,0-5.408-2.73,6.5,6.5,0,0,0-6.864,6.6A6.544,6.544,0,0,0,24.492-.52a6.154,6.154,0,0,0,5.33-2.652V-1.43c0,3.38-1.586,4.966-5.044,4.966A8.14,8.14,0,0,1,19.4,1.664l-.936,1.4a9.538,9.538,0,0,0,6.37,2.106c4.524,0,6.838-2.132,6.838-6.838V-13.676ZM24.674-2.158A4.889,4.889,0,0,1,19.5-7.176a4.868,4.868,0,0,1,5.174-4.992,4.89,4.89,0,0,1,5.2,4.992A4.91,4.91,0,0,1,24.674-2.158Z" transform="translate(273 84)" fill="#523106"/>
  </g>
</svg>
