<svg width="46" height="46" viewBox="0 0 46 46" fill="none" xmlns="http://www.w3.org/2000/svg">
<path d="M22.9404 44.36C34.8587 44.36 44.5204 34.6982 44.5204 22.7799C44.5204 10.8616 34.8587 1.19995 22.9404 1.19995C11.0221 1.19995 1.36035 10.8616 1.36035 22.7799C1.36035 34.6982 11.0221 44.36 22.9404 44.36Z" stroke="#3F250E" stroke-width="2"/>
<path d="M33.9404 13.28H11.9404C9.73133 13.28 7.94043 15.0709 7.94043 17.28V28.28C7.94043 30.4892 9.73133 32.28 11.9404 32.28H33.9404C36.1496 32.28 37.9404 30.4892 37.9404 28.28V17.28C37.9404 15.0709 36.1496 13.28 33.9404 13.28Z" stroke="#3F250E" stroke-width="2"/>
<path d="M21.4404 19.78H35.4404" stroke="#3F250E" stroke-linecap="round"/>
<path d="M18.4404 22.78H35.4404" stroke="#3F250E" stroke-linecap="round"/>
<path d="M15.4404 25.78H35.4404" stroke="#3F250E" stroke-linecap="round"/>
</svg>
