<svg xmlns="http://www.w3.org/2000/svg" width="27.472" height="36.577" viewBox="0 0 27.472 36.577">
  <g id="Group_4674" data-name="Group 4674" transform="translate(-459.028 -763.704)">
    <g id="Group_2167" data-name="Group 2167" transform="translate(459.528 766.205)">
      <g id="Group_2121" data-name="Group 2121">
        <path id="Path_851" data-name="Path 851" d="M447.382,252.491s-.413,2.8,0,3.6c1.265,2.419,3.882,6.343,3.882,8.784a5.332,5.332,0,1,1-10.663,0c0-2.443,2.621-6.366,3.885-8.786.416-.8,0-3.594,0-3.594" transform="translate(-439.7 -236.626)" fill="none" stroke="#757575" stroke-miterlimit="10" stroke-width="1"/>
        <path id="Path_852" data-name="Path 852" d="M453.085,282.653a2.127,2.127,0,1,1-2.127-2.127A2.127,2.127,0,0,1,453.085,282.653Z" transform="translate(-444.612 -253.365)" fill="none" stroke="#757575" stroke-miterlimit="10" stroke-width="1"/>
        <path id="Path_853" data-name="Path 853" d="M450.832,223.051a6.236,6.236,0,0,1-12.472,0c0-2.975,1.748-4.023,2.623-6.149a5.857,5.857,0,0,0,.035-3.788,45.765,45.765,0,0,1,4.821,1.968C449.927,217.157,450.832,219.607,450.832,223.051Z" transform="translate(-438.36 -213.114)" fill="none" stroke="#757575" stroke-miterlimit="10" stroke-width="1"/>
        <path id="Path_854" data-name="Path 854" d="M442.656,226.144v3.349a.879.879,0,0,0,1.758,0v-.961a.894.894,0,1,1,1.788,0v3.242a.879.879,0,0,0,1.758,0v-4.988a.894.894,0,1,1,1.788,0v3.733a.879.879,0,0,0,1.759,0v-.809a.894.894,0,1,1,1.787,0v2.1" transform="translate(-440.925 -220.744)" fill="none" stroke="#757575" stroke-miterlimit="10" stroke-width="1"/>
      </g>
    </g>
    <g id="Group_4673" data-name="Group 4673" transform="translate(486 797.782) rotate(180)">
      <g id="Group_2121-2" data-name="Group 2121">
        <path id="Path_851-2" data-name="Path 851" d="M447.382,252.491s-.413,2.8,0,3.6c1.265,2.419,3.882,6.343,3.882,8.784a5.332,5.332,0,1,1-10.663,0c0-2.443,2.621-6.366,3.885-8.786.416-.8,0-3.594,0-3.594" transform="translate(-439.7 -236.626)" fill="none" stroke="#757575" stroke-miterlimit="10" stroke-width="1"/>
        <path id="Path_852-2" data-name="Path 852" d="M453.085,282.653a2.127,2.127,0,1,1-2.127-2.127A2.127,2.127,0,0,1,453.085,282.653Z" transform="translate(-444.612 -253.365)" fill="none" stroke="#757575" stroke-miterlimit="10" stroke-width="1"/>
        <path id="Path_853-2" data-name="Path 853" d="M450.832,223.051a6.236,6.236,0,0,1-12.472,0c0-2.975,1.748-4.023,2.623-6.149a5.857,5.857,0,0,0,.035-3.788,45.765,45.765,0,0,1,4.821,1.968C449.927,217.157,450.832,219.607,450.832,223.051Z" transform="translate(-438.36 -213.114)" fill="none" stroke="#757575" stroke-miterlimit="10" stroke-width="1"/>
        <path id="Path_854-2" data-name="Path 854" d="M442.656,226.144v3.349a.879.879,0,0,0,1.758,0v-.961a.894.894,0,1,1,1.788,0v3.242a.879.879,0,0,0,1.758,0v-4.988a.894.894,0,1,1,1.788,0v3.733a.879.879,0,0,0,1.759,0v-.809a.894.894,0,1,1,1.787,0v2.1" transform="translate(-440.925 -220.744)" fill="none" stroke="#757575" stroke-miterlimit="10" stroke-width="1"/>
      </g>
    </g>
  </g>
</svg>
