<svg id="Call" xmlns="http://www.w3.org/2000/svg" width="17.459" height="17.459" viewBox="0 0 17.459 17.459">
  <path id="phone-1" d="M17.692,15.573l-2.259-1.882a.605.605,0,0,0-.61-.033l-1.255.836a.794.794,0,0,1-.445.133,5.223,5.223,0,0,1-1.118-.157A6.743,6.743,0,0,1,6.983,9.45a5.218,5.218,0,0,1-.157-1.118.793.793,0,0,1,.133-.444L7.8,6.633a.6.6,0,0,0-.033-.61L5.88,3.765a.373.373,0,0,0-.637,0L4,5.291A2.225,2.225,0,0,0,3.65,7.068a.793.793,0,0,1,.023.092A4.077,4.077,0,0,0,3.8,7.6a10.2,10.2,0,0,0,.571,1.364,18.135,18.135,0,0,0,3.468,4.655,18.122,18.122,0,0,0,4.656,3.467,10.207,10.207,0,0,0,1.365.571,4.209,4.209,0,0,0,.44.124.794.794,0,0,1,.11.029,2.175,2.175,0,0,0,1.758-.351l1.525-1.247a.372.372,0,0,0,0-.637Zm-3.75-3.235a2.178,2.178,0,0,1,2.507.134l2.26,1.882a1.951,1.951,0,0,1-.013,3.085l-1.525,1.247a3.745,3.745,0,0,1-3.225.642q-.3-.068-.582-.164a11.783,11.783,0,0,1-1.579-.659A19.713,19.713,0,0,1,6.713,14.74,19.71,19.71,0,0,1,2.948,9.671a11.774,11.774,0,0,1-.659-1.579A5.965,5.965,0,0,1,2.122,7.5a3.791,3.791,0,0,1,.644-3.215L4.014,2.762A1.954,1.954,0,0,1,7.1,2.749L8.983,5.007a2.169,2.169,0,0,1,.134,2.507L8.431,8.542a4.69,4.69,0,0,0,.1.541,5.192,5.192,0,0,0,.8,1.791,5.123,5.123,0,0,0,1.248,1.248,5.2,5.2,0,0,0,1.792.8,4.606,4.606,0,0,0,.541.1l1.029-.685Z" transform="translate(-2 -2)" fill="#fff"/>
</svg>
