<svg xmlns="http://www.w3.org/2000/svg" width="507.181" height="388.111" viewBox="0 0 507.181 388.111">
  <defs>
    <style>
      .cls-1, .cls-2, .cls-6 {
        fill: #e8ebef;
      }

      .cls-1 {
        opacity: 0.6;
      }

      .cls-3 {
        fill: #f9fafb;
      }

      .cls-12, .cls-13, .cls-4 {
        fill: #dce0e6;
      }

      .cls-5, .cls-6 {
        opacity: 0.8;
      }

      .cls-7, .cls-8 {
        fill: #fff;
      }

      .cls-7 {
        opacity: 0.5;
      }

      .cls-12, .cls-13, .cls-8 {
        opacity: 0.4;
      }

      .cls-9 {
        fill: #77cf59;
      }

      .cls-10 {
        fill: #3f250e;
      }

      .cls-11 {
        fill: #67b94d;
      }

      .cls-12, .cls-13 {
        stroke: #dce0e6;
      }

      .cls-12 {
        stroke-width: 0.5px;
      }

      .cls-13 {
        stroke-width: 0.663px;
      }
    </style>
  </defs>
  <g id="empty-state-client-tasks-065ce9ef9b7e07294d532c3ff7563257" transform="translate(-0.007 -0.003)">
    <path id="Path_2422" data-name="Path 2422" class="cls-1" d="M4.372,151.337C-2.457,209.21-9.106,331.6,49.592,364.845c70.6,39.987,445.616,49.626,446.887-158.47.116-19.3.555-38.571-2.417-57.448-4.37-27.773-38.135-136.2-130.055-143.062C173.333-8.378,22.775-4.091,4.371,151.335Z" transform="translate(0 0.329)"/>
    <rect id="Rectangle_637" data-name="Rectangle 637" class="cls-2" width="49.9" height="15.224" rx="4.141" transform="translate(108.682 323.535) rotate(-178.72)"/>
    <ellipse id="Ellipse_80" data-name="Ellipse 80" class="cls-2" cx="48.588" cy="48.561" rx="48.588" ry="48.561" transform="translate(95.695 271.15)"/>
    <rect id="Rectangle_638" data-name="Rectangle 638" class="cls-3" width="15.233" height="49.873" rx="4.141" transform="translate(60.919 314.525) rotate(-88.72)"/>
    <path id="Path_2423" data-name="Path 2423" class="cls-4" d="M45.869,191.018c12.165.273,24.467,0,36.6.818a5.141,5.141,0,0,1,4.995,5.141c.086,2.293-.193,4.671-2.258,6.064-1.933,1.307-4.789.829-7.017.782L53.775,203.3c-2.686-.063-5.412,0-8.1-.184-6.86-.473-6.691-11.854.19-12.075,2.022-.063,2.033-3.213,0-3.149-6.251.2-9.156,5.9-8.206,11.548.772,4.625,4.76,6.731,9.072,6.825l26.631.595c2.916.068,5.851.23,8.769.2,5.719-.063,8.523-4.562,8.482-9.815a8.383,8.383,0,0,0-8.515-8.562c-3.419-.127-6.828-.154-10.259-.232l-25.973-.584c-2.028-.036-2.028,3.113,0,3.155Z" transform="translate(21.95 110.02)"/>
    <ellipse id="Ellipse_81" data-name="Ellipse 81" class="cls-3" cx="48.588" cy="48.561" rx="48.588" ry="48.561" transform="translate(97.528 262.11)"/>
    <path id="Path_2424" data-name="Path 2424" class="cls-4" d="M63.676,213.354a47.017,47.017,0,1,1,36.651,46.911c-21.719-4.908-36.982-24.795-36.652-46.927.032-2.031-3.119-2.031-3.151,0a50.172,50.172,0,1,0,41.449-48.3c-23.438,4.028-40.745,24.72-41.449,48.3-.059,2.046,3.092,2.041,3.151.021Z" transform="translate(35.439 96.23)"/>
    <g id="Group_4575" data-name="Group 4575" class="cls-5" transform="translate(109.353 273.979)">
      <ellipse id="Ellipse_82" data-name="Ellipse 82" class="cls-4" cx="35.194" cy="35.173" rx="35.194" ry="35.173" transform="translate(1.569 1.519)"/>
      <path id="Path_2425" data-name="Path 2425" class="cls-4" d="M3.22,36.2A33.627,33.627,0,0,1,63.281,16.226,33.6,33.6,0,0,1,29.294,69.714,33.978,33.978,0,0,1,3.22,36.171a1.577,1.577,0,0,0-3.152,0,37.163,37.163,0,0,0,23.36,35.052A36.762,36.762,0,0,0,68.742,18.741,37.165,37.165,0,0,0,30.7.773C13.368,3.608.635,18.852.067,36.218c-.068,2,3.084,2,3.152-.022Z" transform="translate(-0.063 -0.294)"/>
    </g>
    <path id="Path_2426" data-name="Path 2426" class="cls-6" d="M70.858,190.078l-20.014-.225c-3.607-.079-5.578,1.758-5.661,5.364l-.048,2.1c-.079,3.606,2.81,5.05,6.419,5.134l18.137.3s-.42-.8.1-6.048,1.062-6.625,1.062-6.625Z" transform="translate(26.429 111.185)"/>
    <path id="Path_2427" data-name="Path 2427" class="cls-7" d="M105.882,174.744a33.774,33.774,0,0,0-34.919,32.807c-.558,19.424,14.182,33.714,32.818,34.375,9.712.346,17.024-3,23.531-9.219,0,0-33.768,6.982-37.708-22.68a35.23,35.23,0,0,1,16.278-35.284Z" transform="translate(41.546 102.332)"/>
    <rect id="Rectangle_639" data-name="Rectangle 639" class="cls-2" width="216.441" height="173.889" rx="3.313" transform="matrix(0.922, 0.386, -0.386, 0.922, 89.853, 17.023)"/>
    <rect id="Rectangle_640" data-name="Rectangle 640" class="cls-3" width="178.502" height="216.323" rx="3.313" transform="matrix(0.386, -0.922, 0.922, 0.386, 17.165, 167.064)"/>
    <path id="Path_2428" data-name="Path 2428" class="cls-4" d="M205.923,246.076l-16.1-6.741-39.564-16.57-49.927-20.9L53.133,182.1,21.764,168.972c-1.855-.777-3.886-1.418-5.662-2.374-3.53-1.9-1.754-5.16-.641-7.811l12.812-30.638L48.636,79.577l19.621-46.8c3.53-8.4,6.9-16.941,10.6-25.288A4.015,4.015,0,0,1,84.11,5.026c.393.136.777.325,1.161.487l8.4,3.519,35.087,14.7,48.624,20.36,49.076,20.536,36.4,15.224,9.382,3.928c2.626,1.093,4.659,2.594,3.409,6.006-2.864,7.838-6.487,15.476-9.712,23.166l-19.377,46.2-20.555,49.033-13.541,32.3c-1.224,2.924-2.217,7.02-6.539,5.545-1.923-.656-2.748,2.383-.836,3.04a6.986,6.986,0,0,0,8.876-4.08c.342-.766.652-1.543.978-2.32l4.947-11.807,18.032-43.022,21.4-51.029,16.11-38.422c1.081-2.589,2.267-5.161,3.262-7.786,1.633-4.332-.736-7.838-4.67-9.487l-23.29-9.753L206.459,52.821,154.811,31.244,109.985,12.469,86.053,2.448c-3.991-1.674-8.12-.572-9.98,3.674-1.05,2.426-2.042,4.889-3.067,7.351L57.211,51.088l-21.46,51.2L17.534,145.731l-5.115,12.21c-1.576,3.791-2.894,8.107,1.427,10.963a31.311,31.311,0,0,0,5.328,2.356l11.929,5,40.6,16.989,51.2,21.44,47.752,20.033,30.178,12.6,4.259,1.785C206.952,249.9,207.772,246.846,205.923,246.076Z" transform="translate(6.391 0.994)"/>
    <path id="Path_2429" data-name="Path 2429" class="cls-3" d="M227.72,103.326l-39.174,93.447a6.052,6.052,0,0,1-7.79,3.476L33.2,138.468a6.058,6.058,0,0,1-2.984-7.992L69.4,37.031l158.319,66.3Z" transform="translate(17.397 21.686)"/>
    <path id="Path_2430" data-name="Path 2430" class="cls-4" d="M227.159,103.418l-11.315,26.988-19.822,47.284-6.634,15.825c-1.538,3.674-3.293,8.022-8.4,6.168-7.57-2.724-14.95-6.259-22.372-9.366l-45.126-18.9-47.379-19.84-29.94-12.527c-3.566-1.491-6.619-3.506-4.858-8.261,1.245-3.371,2.8-6.663,4.2-9.975L54.252,76.1,69.574,39.516l.818-1.963-.993.568L123.093,60.6l85.019,35.609,19.608,8.217c.962.4,1.383-1.165.431-1.576L174.458,80.365l-85.015-35.6L69.835,36.555c-.441-.184-.845.206-1,.561L57.15,65,36.881,113.352l-6.266,14.94c-1.749,4.173-2.358,8.967,2.626,11.293,7.082,3.281,14.45,6.048,21.647,9.06l45.778,19.172,48.659,20.369L178.8,200.529c.631.263,1.253.561,1.892.793,3.71,1.343,7.243-.593,8.842-4.032,1.3-2.776,2.383-5.675,3.566-8.5l18.847-44.96,15.9-37.935.856-2.042c.415-.961-1.156-1.38-1.549-.43Z" transform="translate(17.181 21.38)"/>
    <rect id="Rectangle_641" data-name="Rectangle 641" class="cls-3" width="34.83" height="3.728" rx="0.994" transform="matrix(0.386, -0.922, 0.922, 0.386, 111.651, 32.396)"/>
    <path id="Path_2431" data-name="Path 2431" class="cls-4" d="M72.672,32.463c-1.66-.693-.238-2.73.173-3.706l2.941-7.02L82.5,5.726c.368-.888.825-3.076,1.576-3.737,1.142-1.018,1.955.162,1.855,1.191a7.179,7.179,0,0,1-.695,1.649l-6.255,14.9-3.557,8.494c-.409.97-1.17,4.557-2.746,4.242-.993-.193-1.419,1.322-.42,1.522,2.248.447,2.894-1.05,3.614-2.788l3.266-7.79,7.706-18.4c.688-1.638,1.459-3.414-.525-4.567S82.956.6,82.227,2.329q-3.653,8.693-7.286,17.377L71,29.114c-.861,2.047-1.308,3.794,1.251,4.871C73.187,34.374,73.59,32.851,72.672,32.463Z" transform="translate(41.182 0)"/>
    <rect id="Rectangle_642" data-name="Rectangle 642" class="cls-3" width="39.873" height="4.269" rx="0.994" transform="matrix(0.386, -0.922, 0.922, 0.386, 230.043, 87.984)"/>
    <path id="Path_2432" data-name="Path 2432" class="cls-4" d="M206.56,69.414c-2.185-.913-.924-2.483-.273-4.031l3.366-8.033,7.879-18.815c.463-1.1.961-3.58,1.855-4.414a1.458,1.458,0,0,1,2.405,1.265,6.687,6.687,0,0,1-.742,1.763l-7.2,17.22-4.318,10.258c-.42,1-1.34,5.114-2.978,4.789-.988-.2-1.413,1.322-.415,1.522,2.458.487,3.052-1.449,3.813-3.271l3.924-9.339,8.745-20.867c.756-1.812,1.576-3.676-.74-4.82-2.448-1.229-3.634.159-4.5,2.215L208.909,55.1l-4.456,10.621c-1.05,2.436-1.161,4.028,1.692,5.249.931.352,1.34-1.17.415-1.559ZM86.384,50.773,72.365,84.207,49.972,137.6l-5.185,12.368c-.4.961,1.162,1.381,1.576.431l14.022-33.437L82.759,63.577l5.185-12.368c.4-.956-1.167-1.376-1.578-.431l.016,0ZM112.8,61.833,98.782,95.27,76.4,148.655l-5.185,12.368c-.4.956,1.167,1.375,1.578.43l14.017-33.435,22.378-53.379,5.185-12.374c.4-.956-1.162-1.375-1.578-.43ZM139.216,72.9,125.2,106.336l-22.377,53.381-5.19,12.368c-.4.961,1.165,1.375,1.576.43l14.014-33.435L135.591,85.7l5.185-12.368c.4-.961-1.162-1.38-1.576-.43h.016Zm26.415,11.062L151.618,117.4l-22.377,53.379-5.206,12.368c-.4.962,1.161,1.381,1.576.431l14.014-33.435L162.013,96.76,167.2,84.392c.4-.961-1.167-1.38-1.578-.43h.011Zm26.42,11.06-14.019,33.437-22.377,53.379-5.185,12.368c-.4.962,1.167,1.381,1.576.431l14.009-33.414,22.377-53.381,5.185-12.368c.4-.961-1.167-1.38-1.576-.43Z" transform="translate(26.187 18.843)"/>
    <path id="Path_2433" data-name="Path 2433" class="cls-4" d="M56.213,54.09l53.1,22.237,84.647,35.447,19.435,8.136c.961.4,1.38-1.165.43-1.575L160.715,96.11,76.073,60.667,56.64,52.53c-.961-.4-1.376,1.165-.431,1.575l.006-.016Zm-10.4,24.8,53.1,22.237,84.648,35.442L203,144.705c.962.4,1.383-1.165.431-1.575l-53.1-22.237L65.678,85.462,46.242,77.325c-.961-.4-1.376,1.165-.43,1.575l0-.01Zm-10.4,24.779,53.1,22.237,84.648,35.447,19.435,8.131c.961.4,1.38-1.159.43-1.575l-53.1-22.237L55.282,110.257l-19.434-8.133c-.962-.4-1.376,1.161-.431,1.576l0-.032Z" transform="translate(20.425 30.725)"/>
    <path id="Path_2434" data-name="Path 2434" class="cls-3" d="M46.1,21.106,245.734,104.7" transform="translate(26.997 12.359)"/>
    <path id="Path_2435" data-name="Path 2435" class="cls-4" d="M46.165,22.17l19.9,8.333,47.547,19.913L171.395,74.6l49.747,20.831,16.488,6.9c2.437,1.023,5.253,2.756,7.843,3.281a2.022,2.022,0,0,1,.347.147c.936.393,1.338-1.135.414-1.517l-19.9-8.337L178.79,76l-57.78-24.186L71.258,30.991,54.77,24.083c-2.437-1.051-5.253-2.757-7.838-3.287a2.185,2.185,0,0,1-.346-.143c-.936-.393-1.345,1.129-.42,1.517Z" transform="translate(26.728 12.056)"/>
    <path id="Path_2436" data-name="Path 2436" class="cls-8" d="M85.734,4.118s-7.554,53.419,16.2,107.913,109.05,131.118,109.05,131.118-.525,4.857-6.476,2.7S13.934,165.994,13.934,165.994a4.4,4.4,0,0,1-1.077-5.4C14.474,157.355,77.64,5.726,77.64,5.726s1.617-4.305,8.095-1.606Z" transform="translate(7.235 1.89)"/>
    <path id="Path_2437" data-name="Path 2437" class="cls-9" d="M95.409,48.536c-.1.116-.159.425,0,.42l.277-.468-.279.048Zm.677,1.3a1.575,1.575,0,0,0,.745-1c-.384.381-.352.186-.767.679-.173,0-.2-.257-.1-.436-.1.111-.206-.193-.393.1.063.461.282.561.666.336.011.13-.1.241-.146.325Zm6.008,12.3.063-.089a.168.168,0,0,0-.063.09Zm-2.405,8.4a.116.116,0,0,0-.057-.138C99.636,70.468,99.641,70.532,99.688,70.538Zm-1.24.966.079-.052C98.48,71.451,98.428,71.467,98.448,71.5Zm3.645-9.362c-.052.079-.116.159-.174.238C102.094,62.4,102.062,62.258,102.094,62.142ZM98.632,49.758a.325.325,0,0,0-.2.032.665.665,0,0,1,.147.032l.057-.063Zm2.648,8.621v-.068h-.227Zm-.988-2.667c0,.068.431-.1.625-.168-.19.048-.289.041-.346,0a1.916,1.916,0,0,0-.279.168Zm1.2,4.724-.163.038a.568.568,0,0,0,.163-.038ZM87.182,44.944v.079C87.182,45.05,87.208,44.95,87.182,44.944ZM90.544,47.7h-.052a2.151,2.151,0,0,0-.054.254l.106-.254Zm5.908,25.462C96.468,73.073,96.452,73.11,96.452,73.162Zm-21.673-.016c0,.5-.671.159-.587.777C74.261,73.762,74.917,73.555,74.779,73.146Zm23.9-23.288a.573.573,0,0,1,.121.075.179.179,0,0,0-.121-.075ZM74.193,73.949v.059A.263.263,0,0,1,74.193,73.949ZM91.962,76.4a.769.769,0,0,0,.12.173.525.525,0,0,0-.12-.174Zm4.045-1.554-.12.025a.19.19,0,0,0,.12-.027Zm-6.114,2.665c-.068-.025-.1-.089-.174,0l.032.052c.027-.084.063-.116.143-.052Zm-2.507.179.048.089h.079Zm-8.807-32.37a1.8,1.8,0,0,1,.193.382c-.1-.316.311-.488-.193-.384Zm19.9,4.651c.079-.084.132-.116.184-.111l-.1-.036a.357.357,0,0,0-.084.147ZM90.244,81.084h-.48a1.616,1.616,0,0,0,.479,0ZM64.186,59.156l-.036-.116a.089.089,0,0,0,.036.116Zm24.2,22.1a.783.783,0,0,0-.277-.311.477.477,0,0,0-.048.116Z" transform="translate(37.56 26.32)"/>
    <path id="Path_2438" data-name="Path 2438" class="cls-10" d="M81.859,44.567c-.442,0-.179.593-.247.939-.5.2-.268-.425-.463-.718-.314.184-.523.745-.756.75-.025-.1-.073-.13-.032-.257-.289.525-1.007.132-1.316.788a.613.613,0,0,1-.075-.143,2.98,2.98,0,0,1,.178.8c-.184.036-.277.425-.414.048.116,0,.1-.163.136-.289l-.168.193c-.27-.525.236-.232.174-.641-.365.227-.721.782-1.051.677-.168-.523.65-.309.168-.718l.523.127c-.523-.793.295,0-.187-.851-.656-.032-.647.393-1.3.382-.068.333.147.431.079.761-.709.72-1.024-1.164-1.475-.289-.063.4.082,1.081-.463.877l-.043-.641c-.614.147-.041.94-.777.783,0-.279.377-.368.263-.4-.568-.316-.152.441-.447.55l-.268-.482a3.771,3.771,0,0,0-.836.677c-.273.257-.523.525-.825.761-.048-.163,0-.377-.252-.441a3.9,3.9,0,0,1-1.24.8c-.457.227-.977.373-1.433.572l.043.593c-.063.048-.258-.063-.254-.189-.393.111.19.236.186.488-.127.159-.384,0-.39-.211a4.812,4.812,0,0,1-.477,1.234,1.538,1.538,0,0,1-.9.856l-.043-.19c-.457.317.468,1.051-.163,1.162V52.8c-.772.831-.92,2.074-1.858,2.589.289.2.121.42,0,.65s-.2.468.246.641a4.859,4.859,0,0,1-.677.384,1.575,1.575,0,0,0-.593.629c-.1.227.525.473.525.767l-.488-.09c.143.163.284.32.441.484l-.618.111.082.293a.384.384,0,0,1,.395-.159c.162.447-.488.983-.736.983l.357,1.05c-.2-.027-.257-.2-.377-.341.482.566-.526.084-.075.609.111-.068.3.041.4.052a1.165,1.165,0,0,0-.132,1.249l-.346-.052a10.84,10.84,0,0,0,.523,2.461c.086-.341.685-.393.8-.173l-.488.222c.358.071.132-.295.6-.079,0,.309-.525.357-.74.214l.273.331c-.147.063-.252,0-.452,0,.179.036.1.236.048.441s-.052.4.257.43l-.143.068a10.941,10.941,0,0,0,.91,1.76c.415-.179.447.1.867.121a3.7,3.7,0,0,0,.393,1.67c.409.246.388-.1.72-.084-.336.246.032.723-.388.63a4.008,4.008,0,0,0,1.408,1.223c.073-.184.068-.314.209-.357.152.084.089.393-.079.525h-.057c.568.174.688.82.893,1.4a2.87,2.87,0,0,0,.352.793.724.724,0,0,0,.661.311h-.063c.311.075.606.159.915.211.247.3-.377.1-.325.466,1.124.048,1.05.972,1.922,1.05-.12.663.325.929.815,1.161s1.05.388,1.2.909l.1-.273c.314-.152.136.257.236.388.089-.211-.07-.331.114-.411,1.624.484,2.948,1.871,4.586,2.626.6.252.752-1.313,1.335-.461l-.352.466a4.568,4.568,0,0,1,1.969.132,3.679,3.679,0,0,0,1.928.068c-.09.116-.111.273-.232.257.222.42.983.1,1.008-.209.19.052,0,.289.132.461.252.257.693-.461.82-.068,0,.063-.079.127-.132.152.184-.184.813.073.656-.377.468.23.893-.211,1.272.052.22-.5.825.193.85-.525,0,.729.883.523,1.129.143-.073.23.285.187.211.523.341-.057.63-.23.525-.6.368.4.693.136.945-.063s.474-.373.8.132c.468-.357.909-.666,1.319-.967s.793-.607,1.165-.9c.316.687-.909.492-.561,1.18.75-.639.866-1.454,1.706-1.736.238-.048.068.341.059.482a4.231,4.231,0,0,1,1-.845,2.3,2.3,0,0,0,.815-.924c.041.048.025.163,0,.254.1-.116.352-.154.116-.39l-.059.168c-.252-.1-.3-.393-.314-.671a1.925,1.925,0,0,0-.084-.679c.477.867.682-.346,1.249.788a.446.446,0,0,0-.168-.452c.147-.063.279,0,.352.279.263-.525-.143-.618.184-.983.12.106.1.222.209.39-.068-.4-.152-.788.222-1.015.057.079.189.122.1.216a2.14,2.14,0,0,0,.257-1,1.234,1.234,0,0,1,.447-.9c.466.566.33-.1.866.19l.068-.453H101.4c.209-.3-.048-.8.279-.97l.1.352.214-.647-.384.227c-.111-.457-.693-.32-.331-.645,0,.111.163-.3.552-.32-.1-.238-.216-.479.027-.65.206,0,.593.314.729.323-.382-.35.184-.829-.246-1.223a1,1,0,0,0,.457.225l-.331-.273c.179-.111.247-.111.479,0,.241-.441-.772-.1-.274-.523,0,.055.084.051.116.162.327-.525.1-1.14.411-1.606.625,0,.032.492.571.45a5.773,5.773,0,0,0-.1-1.265,2.261,2.261,0,0,1,0-1.186l-.09.132c-.825-.232.526-.488.143-.924.052.1.461.179.368.143a1.316,1.316,0,0,0,0-.829c-.084-.306-.222-.647-.336-1.051l.216.106c.22-.3.114-.8.214-1.135-.22-.1-.189-.277-.523-.157.618-.525.387-1.018.167-1.459s-.525-.84-.1-1.381c.027.1.232.22.222.136-.106-.247-.243-.488-.358-.725-.352.143-.2.147-.452.368a.629.629,0,0,1-.488-.388c.311.262.584-.143.752-.341a3.545,3.545,0,0,1-.347.073c.525-.555-.74.127-.461-.493l.2-.032c-.159-.163-.458-.257-.463-.477.384-.222.252.143.593.041-.111-.293-.961-.293-.661-.693.163.075.232.247.393.325.368-.45.227-.446.222-.693v-.566l-.075.184c-.584.036-.72-.111-.82-.3a.65.65,0,0,0-.6-.461c.834.111.393-.116.84-.32.063-.19.084-.452.232-.468-.479,0,.032-.525-.658-.525.127-.1-.136-.241.227-.42-.289-.22-.184.225-.363.309-.357-.068-.42-.382-.525-.734a1.234,1.234,0,0,0-.225-.5.767.767,0,0,0-.568-.23c-.656-.258-1.113.073-1.7-.063,0-.316.484-.347.484-.347a.6.6,0,0,0-.652-.523c.132-.079.147-.211.168-.406-.227-.1-.452.388-.588,0a2.292,2.292,0,0,1,.525-.4,9.884,9.884,0,0,0-1.05.041c.063-.273.366-.293.523-.382-.362-.063-.907-.184-1.181.162l.122.232c-.116-.032.1-.363.225-.393.411-.174.295.32.232.461h-.232c-.127.461.068.493.331.493s.609-.079.772.059l-.525.466c.212-.084.433-.162.661-.236-.032.19-.211.525-.425.525.032.415.336-.041.293.395,0,.063-.041.079-.079.089h.333c-.133.073-.274.393-.333.216.054.3.27.314.463.33s.331.043.209.285h-.052c.61.308.388-.311,1.167-.333q-.324.541-.695,1.051l.42-.27a.209.209,0,0,1-.089.3c.42,0,.143-.168.484-.254-.073.274.1.415.236.568s.174.316-.136.561c.377-.1.073-.425.484-.266-.668.523.346.266.162.729-.42.132-.368-.211-.552.225.729-.2.111.584.342.72.262-.121.388-.032.473.136a1.79,1.79,0,0,0,.3.561c-.1,0-.1.232-.089.488a4.6,4.6,0,0,1-.048.782h-.1c.6-.1.6.32.777.584a.847.847,0,0,1-.688-.063l.063.257a.527.527,0,0,1,.42.238l-.452.025c.116.325.647.614.425,1.118.415,0,1.088-.525,1.44-.057-.22.048-.6.111-.709,0,.032.041.206.13.127.23l-.406-.152c-.136.232.333.075.317.254-.322.03-.217.151-.474.151-.036-.036.127-.162,0-.216a.793.793,0,0,1-.447.526c.179-.032.431-.043.484.1.048.363-.377.152-.525.368.232.075,0,.311.488.3,0,.1-.225.132-.352.174.211.178.073.864.577.66l.032-.048v.032a.935.935,0,0,1,.038.967,1.832,1.832,0,0,0-.216.945h-.163c.147.382,0,.825.3,1.143,0,.111-.331.206-.525.127.063.293.246.368-.1.714-.211-.336-.258.041-.143-.325-.2.33-.484.341-.143.818a.3.3,0,0,0-.482.331l.341-.168a.834.834,0,0,1-.152.523l-.488-.23c-.42.247-.247.631-.12.993s.159.693-.452.75c.284.317.388-.273.74.043-.19.3-1.05.331-1.077.414-.457.285.525.7.163,1.051.193.032.693.2.672.614-.232.284-.909,0-.947-.257a.1.1,0,0,1,.147-.052c0-.132,0-.289-.262-.27l.152.127c-.258.059-.447.463-.679.222.048.3.227.246.4.125-.436.246-.33.577-.718.845.12,0,.346.063.309.121-.525.415.168.446,0,.861-.389.036-.525-.473-.577,0-.32.1-.447-.257-.526-.431.075.526-.609.436-.8.526v-.243a.4.4,0,0,1-.132.289l.368.159c-.127.048-.19.121-.311,0,.111.257.525.341.647.755-.254,0-.168.526-.588.211.466-.247-.4-.3-.2-.672a.236.236,0,0,1-.2.216.136.136,0,0,1-.063-.127c-.65,0,.27.525-.089.883-.159-.247-.457-.311-.473-.216.143-.132.4.284.42.577-.388.043-.159.347-.3.436l.22-.043c.136.258,0,.336-.136.557-.159-.162.063-.252-.063-.277.063.277-.132.273-.341.252s-.457-.075-.495.162c-.246-.068-.325-.43-.523-.461-.1.525-.526-.089-.7.347.293.277.266.182.214.65.143-.193.295-.362.42-.571a5.817,5.817,0,0,1-.068.7c.19-.089.238-.436.374-.447,0,.379-.032.29.225.5-.525-.316-.316.582-.809.42l-.452-.84c-.584-.136-.525.8-1.181.845l.241.073c.032.19-.052.243-.159.274s-.246,0-.319.127a1.086,1.086,0,0,0-.384-.526c.079.222-.42.116-.3.745-.125-.1-.251-.225-.377-.336-.523-.073-.352,1.02-.888,1,.1-.368-.157-.525.116-.856-.146.036-.314,0-.282.209-.122-.182-.4.488-.6.211-.052.147-.036.482-.232.482a.383.383,0,0,1,0-.157c0,.163-.277.241-.073.584a.872.872,0,0,0-1.051-.368c-.357.057-.72.111-.951-.309a4.519,4.519,0,0,1-1.165.209c.027-.1,0-.159.068-.12-.446-.316-.336.909-.861.523-.236-.523.3-.251.152-.46,0-1.051-.656.1-.945-.563l.089-.052c-.216-.393-.7.309-1.14.163a.388.388,0,0,0,.032-.152,2.023,2.023,0,0,1-1.47.582c.225-.366.241-.168.252-.593-.206,0-.09.672-.526.688a1.674,1.674,0,0,1-.22-.951l.358.063c-.043-.6-.458-.089-.62-.236l.089-.236c-.525-.079-.736.525-1.3.311v.2c-.523.488-.152-.431-.618-.1l.12-.634a4.042,4.042,0,0,1-1.345.266,4.505,4.505,0,0,1,1.254-.577c-.2-.063-.682-.214-.9.036.1-.025.258-.13.3,0a1.11,1.11,0,0,1-1.251.274c.584-1.1-.9-.756-.72-1.77a1.235,1.235,0,0,1-1.008-.468,4.8,4.8,0,0,0-.9-.813c-.282.972-.22-.111-.734.736-.211-.063-.27-.122-.247-.184l-.147-.845c.059-.316.285-.063.4-.254-.3-.314.111-.444.048-.818-.174.316-.436.32-.526.052v.579c-.809.025.122-.977-.672-.951l.349-.116c-.358-.057-.821-.739-1.578-.393.043-.121.184-.362.331-.316-.209-.309-.656-.434-1.051-.63s-.725-.4-.7-.782l.225-.1c-.136-.063-.523.089-.42-.2.09-.052.227-.1.2-.159-.111,0-.561-.035-.525-.271l.3-.032c-.063-.384-.352-.525-.682-.6a2.255,2.255,0,0,1-.931-.4,1.2,1.2,0,0,0,.563-1.227l.1-.036a1.838,1.838,0,0,0-.7-.851,5.735,5.735,0,0,1-.883-.8,1.307,1.307,0,0,0,.238-1.15,2.236,2.236,0,0,1,.073-1.249.6.6,0,0,1-.642-.1c.122-.179-.523-.461.127-.468v.063c.641-.163.468-.488.477-.761l-.856-.057c.652-.363.526-.82.479-1.276s-.152-.888.446-.977c-.168-.216-.114-.436-.282-.666l.441.121a3.081,3.081,0,0,0,.441-1.265l.268.222c.143-.29-1.093-.847-.993-1.178l.666.168c.232-.566,1.01-.8.777-1.575.079.059.238.179.217.273.136-.246.951-.593.127-1.05.257.174.341.059.382-.147a4.077,4.077,0,0,0,.036-.723l.311.33c-.27-.582-.374-.7-.211-1.093.111-.032.316.2.147.2.388-.052-.136-.482.309-.571l.1.3c.257-.189.136-.277.048-.65.036-.279.525-.325.84,0-.12-.222-.179-.593.048-.614a.362.362,0,0,1,.111.282c.593-.073.382-.882.929-.718a.6.6,0,0,0,.193.2,2.364,2.364,0,0,1-.656.335c.238.343.525.232.65.845.027-.393.063-1.227.463-1.211l.106.1v.057c.084,0,.127-.063.146-.157a.625.625,0,0,0,.3,0c.182.293.419,0,.577-.048-.2-.409.032-.436-.311-.693.036,0,0,.068-.1.132a.18.18,0,0,0-.048.073v-.041a3.645,3.645,0,0,1-.373.209c0-.262.068-.5.352-.352a7.524,7.524,0,0,1-.079-.777c.484.473,1.051.631,1.235.972.393-.425,1.086-.561,1.191-1.47.127-.147.243.19.333.3-.063.1-.17.121-.186.252.238-.3.856-.3.8-.9.446.174-.1.584.409.368l-.032.2c.61.366.94-.09,1.34-.495s.845-.777,1.5-.225c-.089-.068-.136-.1-.163-.193a4.818,4.818,0,0,0,2.1-.059,2.74,2.74,0,0,1,2.1.316c.377.184.434-.2.687-.468l.059.493.436-.523c.618-.368.888,1.275,1.681.571l-.059-.336c.254.09.851-.1.761.279.032-.059.127-.331.211-.147l-.025.257.7-.346c.468.257-.225.991.473,1.15.279-.052.878-.6.809-.793a.409.409,0,0,1-.209-.457l.268-.089c.174-.736.525-1.459-.032-2.1l-.525.379-.089-.384.377.036c-.159-.373-.341-.089-.525.089a.65.65,0,0,0-.127-.425l-.523.65c0-.3.277-.523,0-.755-.254.3.1.682-.265.856-.162-.368-.068-.641-.357-.379a.384.384,0,0,1,.168-.382c-.252.2-.6.025-.761.409-.174-.447-.756.032-.666-.677-.09.162-.447.523-.653.523.442-.818-.766-.109-.6-1.012-.333.745-1.051.284-1.576.693.032-.059.089-.179.13-.143-.277-.073-.352-.3-.523-.45-.054.634-.49.771-.715,1.165-.347-.609.2-.752.1-1.334,0,.523-.6.523-.479.945-.268-.373-.232-.179-.377-.7,0,.793-.243.136-.447.634-.393-.371-.132-.739-.525-.476-.179-.274.2-.568.2-.568ZM72.3,48.384l.174-.121Zm-.739.446a2.017,2.017,0,0,0,.325-.189c.1.121.163.277.089.316-.025-.116-.241-.084-.425-.127h.011Zm2.962,1.958c-.073.1-.143.043-.2-.036a.756.756,0,0,0,.152-.132.191.191,0,0,1,0-.052,1.051,1.051,0,0,1,.032.222h.016Z" transform="translate(37.373 26.099)"/>
    <path id="Path_2439" data-name="Path 2439" class="cls-9" d="M74.254,48.474a.052.052,0,0,1,.032-.048.609.609,0,0,0-.1-.063v.143l.073-.032Zm27.907,12.1a.12.12,0,0,1,.063-.032ZM64.133,56.664l.114.021-.084-.1Zm39.078-.641a.268.268,0,0,0,.1-.089.357.357,0,0,0-.1.089Zm-.525-1.947.043-.325A.944.944,0,0,0,102.687,54.076Zm-.468-1.544a1.156,1.156,0,0,0-.184.068Zm-4.15,23.1a.158.158,0,0,0-.032.057C97.958,75.841,98.033,75.752,98.069,75.631Zm3.536-6.531a1.143,1.143,0,0,1,.1.3C101.789,69.3,101.841,69.216,101.605,69.1ZM90.3,79.616h-.052ZM101.553,69.7a.252.252,0,0,0,.152-.295C101.637,69.488,101.542,69.579,101.553,69.7ZM97.381,47.5l-.063-.052a.148.148,0,0,1-.041.063Zm-.1.01h-.1C97.213,47.54,97.245,47.549,97.276,47.513Zm-.316.032h.216C97.119,47.492,97.056,47.445,96.961,47.545Zm2.155,1.313.12-.116a.389.389,0,0,0-.12.116Zm.536.368c-.1-.132-.079-.525-.322-.588l-.1.089C99.472,48.605,99.357,49.341,99.652,49.225Zm.157,3.2-.179-.442c-.089.174-.216.395-.373.263-.079.75.241-.331.552.178Zm.5,1.332c-.179-.178-.227.121-.32.152C100.2,53.971,100.249,53.992,100.308,53.76Zm1.186,10.032-.4-.1C101.11,63.893,101.248,63.725,101.494,63.793Zm1.6,2.535.311-.127-.336-.2Zm-3.178.247-.032-.1.036.341ZM87.827,75.8l.073.526C88.027,76.219,88.032,75.631,87.827,75.8ZM80.4,75.238c0-.263-.143-.495-.347-.3C80.2,75.027,80.294,75.274,80.4,75.238ZM67.924,59.258l.163.141-.127-.257Z" transform="translate(37.556 27.788)"/>
    <rect id="Rectangle_643" data-name="Rectangle 643" class="cls-2" width="20.049" height="20.038" rx="0.924" transform="matrix(0.922, 0.386, -0.386, 0.922, 168.942, 97.482)"/>
    <rect id="Rectangle_644" data-name="Rectangle 644" class="cls-2" width="20.049" height="20.038" rx="0.924" transform="matrix(0.922, 0.386, -0.386, 0.922, 131.69, 110.969)"/>
    <rect id="Rectangle_645" data-name="Rectangle 645" class="cls-2" width="20.049" height="20.038" rx="0.924" transform="matrix(0.922, 0.386, -0.386, 0.922, 158.686, 121.756)"/>
    <rect id="Rectangle_646" data-name="Rectangle 646" class="cls-2" width="20.049" height="20.038" rx="0.924" transform="matrix(0.922, 0.386, -0.386, 0.922, 184.059, 132.004)"/>
    <rect id="Rectangle_647" data-name="Rectangle 647" class="cls-2" width="20.049" height="20.038" rx="0.924" transform="matrix(0.922, 0.386, -0.386, 0.922, 111.181, 160.069)"/>
    <rect id="Rectangle_648" data-name="Rectangle 648" class="cls-2" width="20.049" height="20.038" rx="0.924" transform="matrix(0.922, 0.386, -0.386, 0.922, 138.174, 171.398)"/>
    <rect id="Rectangle_649" data-name="Rectangle 649" class="cls-2" width="20.049" height="20.038" rx="0.924" transform="matrix(0.922, 0.386, -0.386, 0.922, 84.726, 149.28)"/>
    <rect id="Rectangle_650" data-name="Rectangle 650" class="cls-2" width="176.489" height="197.918" rx="10.759" transform="translate(279.399 177.14) rotate(-15.93)"/>
    <rect id="Rectangle_651" data-name="Rectangle 651" class="cls-3" width="176.489" height="197.918" rx="10.759" transform="translate(283.155 171.185) rotate(-15.93)"/>
    <path id="Path_2440" data-name="Path 2440" class="cls-4" d="M384.839,270.017l-58.645,16.721L251.643,308c-2.727.777-5.417,1.706-8.29,1.654-7.316-.132-12.91-5.3-14.864-12.075-2.1-7.267-4.154-14.548-6.235-21.823l-24.525-85.919-10.332-36.2c-1.728-6.048-5.315-14.044-3.866-20.4s6.278-10.248,12.249-11.954l9.387-2.672,36.564-10.43,81.022-23.1c2.626-.756,5.29-1.522,7.943-2.267,7.8-2.179,16.335,1.254,19.367,9.086,2.017,5.214,3.151,10.893,4.725,16.275L378.52,191.3c5.632,19.735,11.415,39.432,16.9,59.213a15.784,15.784,0,0,1-10.562,19.529c-1.876.577-1.078,3.523.809,2.94A18.9,18.9,0,0,0,398.455,250c-.457-1.728-.983-3.439-1.471-5.155l-8.772-30.7-25.58-89.608-8.138-28.5a41.032,41.032,0,0,0-2.2-6.647c-3.947-8.153-13.339-11.959-21.931-9.653-21.593,5.773-43.019,12.268-64.514,18.373l-70.985,20.265c-5.661,1.617-10.468,4.916-13.01,10.416-2.18,4.725-1.985,9.6-.6,14.458l7.1,24.868,25.427,89.058,9.65,33.8c.718,2.521,1.427,5.039,2.158,7.56a19.11,19.11,0,0,0,13.216,13.513c7.475,2.036,16.283-1.855,23.411-3.9l39.711-11.323L380.8,274.342l4.849-1.386a1.525,1.525,0,0,0-.809-2.94Z" transform="translate(105.536 46.308)"/>
    <rect id="Rectangle_652" data-name="Rectangle 652" class="cls-3" width="139.196" height="154.344" rx="3.054" transform="translate(307.606 189.862) rotate(-15.93)"/>
    <path id="Path_2441" data-name="Path 2441" class="cls-4" d="M365.272,244.037,318,257.512l-68.5,19.54-7.606,2.172c-2.274.647-4.433.333-5.321-2.3-1.812-5.385-3.151-10.992-4.7-16.457l-20.444-71.629-9.539-33.41c-1.576-5.559-3.42-11.114-4.774-16.741-.625-2.577.85-4.158,3.151-4.814l7.438-2.1,29.615-8.447,71.825-20.474c4.763-1.361,9.712-3.335,14.6-4.17,3.52-.591,4.05,2.217,4.727,4.668l2.442,8.4L350.39,180l16.394,57.48c.688,2.405,1.869,5.318-1.513,6.558-1.887.693-1.051,3.737.84,3.04,7.575-2.783,3.493-11.188,1.949-16.607L359.6,200.815l-21.739-76.122-6.377-22.342c-.688-2.417-1.267-4.757-3.679-6.122-2.51-1.418-4.879-.6-7.353.1l-62.822,17.918c-19.435,5.539-38.912,10.9-58.3,16.621-3.766,1.113-6.346,4.069-5.369,8.231.331,1.427.809,2.84,1.213,4.248l7.261,25.44,21.8,76.384,7.754,27.157c1.449,5.071,2.7,12.016,9.98,10.132,18.463-4.782,36.736-10.5,55.079-15.707l65.212-18.595,3.861-1.1a1.571,1.571,0,0,0-.845-3.024Z" transform="translate(113.464 55.898)"/>
    <path id="Path_2442" data-name="Path 2442" class="cls-3" d="M316.48,110.451c-1.015-1.481-8.174-5.916-11.913-6.62s-10.28,1.165-16.978,2.483-10.121,1.712-11.986-.7-.777-6.85-.777-6.85L271.25,86.228c-.311-1.088-6.546,1.868-9.733,1.013-2.033-.525-3.982-3.377-5.138-5.36a10.874,10.874,0,0,0-1.051-1.99A11.033,11.033,0,0,0,235.1,85.665a10.814,10.814,0,0,0,.159,2.242c.068,2.294-.1,5.727-1.535,7.262-2.258,2.409-9.113,3.186-8.8,4.272l3.577,12.531s3.266,3.192,2.957,6.227-3.431,4.514-9.818,6.925-12.926,4.278-15.731,6.825-6.546,10.11-6.623,11.9a6.018,6.018,0,0,0,.936,3.271l58.3-16.637.523-.152,58.306-16.637a5.956,5.956,0,0,0-.877-3.244ZM247.145,89.568a4.813,4.813,0,1,1,3.474-5.021,4.812,4.812,0,0,1-3.474,5.021v-.006Z" transform="translate(116.709 43.892)"/>
    <path id="Path_2443" data-name="Path 2443" class="cls-4" d="M318.145,109.834c-1.418-1.812-3.871-3.083-5.83-4.2a21.7,21.7,0,0,0-7.568-2.96c-7.881-.95-15.711,3.292-23.544,3.58-3.519.127-4.868-1.847-4.506-5.348a8.249,8.249,0,0,0-.262-3.7l-1.955-6.85c-.388-1.365-.587-3.612-1.533-4.725-1.481-1.754-5.142,0-6.9.347-2.242.45-3.807.577-5.494-1.208a20.644,20.644,0,0,1-3.319-5.2,1.576,1.576,0,0,0-2.16-.561l2.155.561a12.736,12.736,0,0,0-23.166,6.568l1.578-1.575a1.576,1.576,0,0,0-1.576,1.575c.352,3.244.82,7.828-2.569,9.5-2.006.991-5.505,1.143-7.05,2.876-1.145,1.286-.084,3.3.317,4.725l2.188,7.663a8.922,8.922,0,0,0,1.8,3.639c2.447,3.113,1.89,5.48-1.465,7.25-4.123,2.168-8.737,3.449-13.1,5.066-3.151,1.177-6.755,2.383-9.2,4.839a29.094,29.094,0,0,0-5.478,8.758c-1.208,2.715-1.833,5.275-.116,7.99a1.612,1.612,0,0,0,1.781.725l51.391-14.658,41.676-11.886,24.162-6.886a1.623,1.623,0,0,0,1.161-1.522,8.171,8.171,0,0,0-1.15-4.064c-.988-1.77-3.709-.184-2.721,1.575a4.823,4.823,0,0,1,.72,2.474l1.154-1.517-51.366,14.647-41.674,11.886L200.375,146.1l1.781.725c-1.655-2.626.382-5.591,1.674-7.928,1.624-2.933,3.314-5.428,6.357-6.986,4.2-2.169,8.929-3.428,13.335-5.13,2.827-1.086,6.2-2.147,8.356-4.384a6.221,6.221,0,0,0,1.142-6.886,12.237,12.237,0,0,0-2.191-3.471c-.152-.168-.809-1.05-.42-.346s0-.136,0-.336c-.414-2.267-1.3-4.546-1.933-6.768l-.993-3.476a4.077,4.077,0,0,0-.309-1.1,1.621,1.621,0,0,0-.116-.393l-.238,1.05.317-.143c.856.29,3.944-1.311,4.8-1.663a9.217,9.217,0,0,0,3.679-2.347c2.252-2.624,2.006-7.181,1.659-10.4L235.7,87.7a1.607,1.607,0,0,0,1.576-1.575,9.555,9.555,0,0,1,17.292-4.977,1.6,1.6,0,0,0,2.16.568l-2.155-.568c1.34,2.8,3.273,6.221,6.152,7.7,2.451,1.253,5.556.336,8.057-.279a8.253,8.253,0,0,0,1.86-.441c-.121.068.725-.143.709-.089s-.767-.967-.929-.618.625,2.182.734,2.57l2.071,7.251a15.176,15.176,0,0,0,.641,2.231c.2.45.143-.967,0-.4a11.206,11.206,0,0,0-.238,1.575c-.273,2.662.132,5.681,2.375,7.424,1.944,1.517,4.549,1.459,6.882,1.2,4.407-.493,8.734-1.611,13.067-2.51,4.25-.882,8.111-1.617,12.171.232,2.589,1.177,6.057,2.762,7.879,5.05,1.181,1.606,3.382-.634,2.142-2.21Z" transform="translate(116.158 43.402)"/>
    <path id="Path_2444" data-name="Path 2444" class="cls-4" d="M231.892,86.681c-4.05.924-5.84-5.055-1.808-6.227s5.748,4.873,1.808,6.227c-1.906.656-1.086,3.674.836,3.04a6.5,6.5,0,0,0,4.413-7.874,6.393,6.393,0,0,0-12.365,3.222,6.494,6.494,0,0,0,7.952,4.668C234.708,89.269,233.867,86.229,231.892,86.681Z" transform="translate(131.547 45.265)"/>
    <rect id="Rectangle_653" data-name="Rectangle 653" class="cls-3" width="25.667" height="25.653" rx="1.855" transform="translate(332.482 208.635) rotate(-15.709)"/>
    <path id="Path_2445" data-name="Path 2445" class="cls-4" d="M239.4,150.732l-17.077,4.873a7.942,7.942,0,0,1-2,.571c-1.8-.073-1.817-1.28-2.158-2.472l-2.921-10.227-1.313-4.592a10.863,10.863,0,0,1-.752-2.624c.041-2.515,4.6-2.819,6.3-3.3l10.411-2.981c1.98-.568,4.2-1.765,5.195.777,1.3,3.338,2.012,7.05,2.994,10.5l1.576,5.613c.293,1.05,1.361,3.186-.295,3.874-1.849.766-1.05,3.817.836,3.04,4.2-1.738,3.219-5.25,2.244-8.653L238.9,132.6c-.883-3.086-1.676-7.154-5.9-6.691-2.989.32-6.083,1.652-8.962,2.472-3.514,1-7.121,1.854-10.589,3.019-3.677,1.243-3.677,4.351-2.8,7.484l3.482,12.265c.8,2.792,1.218,7.113,4.511,8.042a7.526,7.526,0,0,0,4.2-.461l6.587-1.874,10.8-3.083a1.577,1.577,0,0,0-.834-3.04Z" transform="translate(123.083 73.715)"/>
    <rect id="Rectangle_654" data-name="Rectangle 654" class="cls-3" width="25.738" height="25.724" rx="1.855" transform="translate(345.89 249.358) rotate(-15.93)"/>
    <path id="Path_2446" data-name="Path 2446" class="cls-4" d="M246.943,177.161l-17.076,4.868a7.812,7.812,0,0,1-2,.571c-1.8-.068-1.817-1.281-2.16-2.474L222.787,169.9l-1.308-4.594a10.786,10.786,0,0,1-.756-2.624c.048-2.515,4.6-2.819,6.3-3.308l10.421-2.971c1.98-.561,4.2-1.763,5.195.783,1.3,3.338,2.014,7.05,3,10.5l1.6,5.613c.295,1.05,1.356,3.192-.3,3.879-1.843.767-1.05,3.812.84,3.035,4.2-1.733,3.216-5.249,2.244-8.647l-3.584-12.536c-.882-3.092-1.674-7.156-5.892-6.7-2.994.325-6.083,1.654-8.961,2.474-3.52,1-7.129,1.852-10.6,3.024-3.677,1.243-3.677,4.351-2.8,7.484l3.5,12.281c.8,2.788,1.218,7.113,4.518,8.038,1.459.414,2.789-.063,4.2-.457l6.56-1.9,10.8-3.081a1.572,1.572,0,0,0-.84-3.029Z" transform="translate(127.5 89.19)"/>
    <rect id="Rectangle_655" data-name="Rectangle 655" class="cls-3" width="25.738" height="25.724" rx="1.855" transform="translate(357.282 289.232) rotate(-15.93)"/>
    <path id="Path_2447" data-name="Path 2447" class="cls-4" d="M254.134,202.315l-17.1,4.866a7.823,7.823,0,0,1-2,.571c-1.795-.068-1.817-1.28-2.158-2.472l-2.921-10.227-1.313-4.592a10.875,10.875,0,0,1-.752-2.626c.043-2.509,4.6-2.813,6.3-3.3l10.422-2.971c1.98-.568,4.2-1.765,5.195.777,1.3,3.344,2.012,7.056,2.994,10.5l1.6,5.612c.295,1.05,1.361,3.192-.293,3.879-1.849.761-1.051,3.812.836,3.035,4.2-1.732,3.219-5.249,2.242-8.647l-3.577-12.543c-.882-3.086-1.674-7.154-5.9-6.691-2.989.325-6.083,1.652-8.961,2.472-3.514,1-7.123,1.852-10.589,3.019-3.679,1.248-3.679,4.351-2.8,7.491l3.5,12.279c.8,2.788,1.218,7.108,4.511,8.038,1.459.414,2.794-.063,4.2-.457l6.587-1.885,10.8-3.081c1.95-.568,1.119-3.607-.834-3.044Z" transform="translate(131.698 103.921)"/>
    <path id="Path_2448" data-name="Path 2448" class="cls-11" d="M245.65,117.4c-.079-.116-.309-.32-.32-.222l.336.406-.016-.184Zm-1.056-.289a2.651,2.651,0,0,0,.752.918c-.3-.415-.132-.289-.493-.772,0-.1.214,0,.341.159-.075-.116.168,0-.036-.27-.358-.209-.463-.119-.317.211a1.218,1.218,0,0,1-.246-.246Zm-5.662,5.439h.079A.1.1,0,0,0,238.932,122.551Zm-2.989,3.885a.14.14,0,0,0-.063-.106C235.843,126.3,235.9,126.42,235.943,126.436Zm-.924.409h.052C235.023,126.814,234.992,126.818,235.019,126.845Zm3.913-4.294h-.2c.132.13.136.041.206,0Zm5.851-3.8a.356.356,0,0,0-.052-.147.4.4,0,0,1,0,.084Zm-4.868,1.847v-.032a1.872,1.872,0,0,0-.147-.159l.147.19Zm.986-1.345a3.265,3.265,0,0,0,.431.447c-.127-.132-.179-.211-.179-.257S241.008,119.328,240.9,119.253Zm2.317-1.459v-.073a.469.469,0,0,0,0,.073Zm-4.091,3.706a1.049,1.049,0,0,0-.136-.079.913.913,0,0,0,.136.079Zm-23.7,29.052.043-.063C215.437,150.521,215.421,150.548,215.426,150.552Zm-.393-2.865h.036l.136-.206Zm18.7-19.808C233.721,127.8,233.721,127.843,233.737,127.879ZM227.85,140.7c.43,0,.373.431.872.379C228.552,141.035,228.164,140.62,227.85,140.7Zm16.862-21.964a.121.121,0,0,1-.043.048c.032-.011.048-.027.041-.048ZM228.72,141.081h.048Zm3.509-9.969a.841.841,0,0,0,.19.059A.82.82,0,0,0,232.229,131.112Zm1.824-2-.079.025C234.021,129.133,234.042,129.124,234.053,129.108Zm-1.9,3.506c-.043,0-.1,0-.073.075h.052C232.093,132.657,232.077,132.62,232.156,132.614Zm-.636,1.265h.089v-.048Zm-12.406,18.806c.041-.121.1-.247.157-.374-.152.279-.384.263-.159.374ZM244.6,118.576c.079.084.111.132.111.163a.152.152,0,0,0,0-.052.718.718,0,0,0-.111-.111Zm-9.355,15.682-.159.162A.393.393,0,0,0,235.245,134.258ZM228.007,150.8l.036.063S228.054,150.827,228.007,150.8Zm6.844-15.78a.883.883,0,0,0-.33-.027l.089.075Z" transform="translate(125.93 68.54)"/>
    <path id="Path_2449" data-name="Path 2449" class="cls-10" d="M217.842,152.217c.174.121.395-.425.615-.682.3,0-.136.425-.227.718.216-.043.609-.425.693-.341a.525.525,0,0,1-.13.209c.393-.3.425.254.909-.132a.817.817,0,0,1-.059.138,5.794,5.794,0,0,1,.411-.688c.084.041.346-.216.168.127-.043-.043-.132.082-.216.166l.174-.084c-.227.525-.222.084-.438.425.258-.041.695-.3.736-.089-.268.461-.388-.036-.484.468l-.084-.295c-.309.8-.084-.127-.436.72.168.293.431-.048.6.247.222-.211.222-.379.436-.595.65-.214-.447,1.313.206.888.262-.257.655-.809.65-.384l-.395.468c.216.209.615-.641.652-.132-.174.168-.3.043-.3.127-.089.523.3-.211.436-.127l-.268.463.163.057.209.052c.143.032.285.052.42.073a3.436,3.436,0,0,1,.772.152c-.057.152-.184.27-.111.525a2,2,0,0,1,.983.6c.325.32.677.74,1.051,1.165.048-.147.089-.3.127-.468a.718.718,0,0,1,.119.436c.3.4-.068-.393,0-.571.111.03.258.482.216.618a.783.783,0,0,1,.572-.232.239.239,0,0,1,.084,0h.048v-.068a.725.725,0,0,1,.073-.22.174.174,0,0,1,.254-.1l.052.284c.114-.063,0-.493-.09-.856s-.189-.666,0-.555l.036.162a4.52,4.52,0,0,0,.4-1.086c.132-.368.289-.641.682-.72a.393.393,0,0,1-.035-.593c.1-.163.162-.347-.247-.593.273-.1.447-.116.609-.168a3.267,3.267,0,0,0,.525-.32c.075-.089-.5-.336-.523-.493l.46.146-.425-.335.584.1-.079-.165a.525.525,0,0,1-.373,0c-.143-.262.479-.35.714-.277l-.241-.577a.777.777,0,0,1,.32.268c-.388-.395.5.127.143-.243a1.381,1.381,0,0,1-.363-.146.357.357,0,0,0,.352-.479l.3.147c.2-.3.094-.745.23-1.107-.2.079-.736-.147-.745-.274l.523.132c-.277-.178-.225.048-.523-.225.1-.121.582.1.714.236l-.111-.227a4.053,4.053,0,0,1,.395.184c-.279-.178.584-.116.1-.4l.147.041c.13-.368,0-.593.111-.9-.417-.159-.279-.241-.585-.452.216-.173.631-.293.695-.566-.143-.263-.333-.184-.526-.363.379.127.442-.146.663.089a1.511,1.511,0,0,0-.084-.943.641.641,0,0,1-.373-.068c-.038-.1.22-.106.393-.027l.036.036c-.393-.666,1.5-.6.852-1.265l.032.036-.263-.523c.132-.143.241.214.525.182-.466-.645.336-.593.052-1.081,1.208.2.295-.92,1.135-.966l-.268-.089c-.216-.19.2-.043.279-.079-.206-.079-.274,0-.388-.116,0-.877,1.018-1.359,1.575-1.995.19-.241-1.254-.75-.488-.818l.431.314c-.331-.813.525-1.113.3-1.868.089.084.232.152.206.2.393.048.214-.411-.063-.525.073-.063.262.1.43.121.254,0-.3-.493.063-.388a.2.2,0,0,1,.116.121c-.132-.159.2-.32-.222-.446.285-.106,0-.468.317-.526-.385-.32.382-.23-.216-.571.629.33.687-.09.457-.363.168.136.252,0,.493.179.063-.147,0-.336-.325-.484.893.132-.336-.84.7-.482a4.472,4.472,0,0,1-.075-1.576c.615.352-.168.447.495.783-.059-.488-.484-.988-.138-1.256.138-.048.243.2.333.289-.059-.492.434-.65.271-1.154a.4.4,0,0,1,.132.163c0-.075.168-.1-.116-.247l.043.1c-.463-.136-.709-.734-.915-.872.742.568.39-.189,1.3.563a.7.7,0,0,0-.32-.293c.089-.032.209,0,.382.2,0-.3-.362-.4-.236-.6a3.113,3.113,0,0,1,.311.268c-.206-.257-.4-.525-.19-.615.075.059.19.106.159.152.132-.309-.4-.907.041-1.075.526.45.258,0,.767.3l-.048-.263-.284-.084c.1-.143-.189-.5.059-.523l.136.239.079-.335-.29.036c-.157-.311-.641-.379-.373-.488,0,.073.106-.143.447-.032-.111-.174-.227-.352-.036-.384.178.075.523.373.65.425-.366-.336.106-.414-.273-.793a1.822,1.822,0,0,0,.4.295l-.331-.284c.152,0,.211.027.411.174.193-.163-.668-.349-.243-.411,0,.036.075.059.1.132.3-.147.1-.609.4-.72.525.27,0,.273.457.479.116-.379-.132-1.051.2-1.272h-.1c-.65-.523.525,0,.284-.362a1.145,1.145,0,0,0,.279.252c.252-.127.13-.525.141-1.008l.147.163c.241,0,.314-.254.488-.325-.143-.163-.059-.216-.342-.358,1.276.347.063-1.15,1.142-.877-.027.043.073.216.1.179l.075-.415c-.306-.2-.206-.1-.474-.209-.141-.174-.2-.362-.146-.436.084.284.457.363.661.431-.1-.059-.179-.159-.268-.222.625.247-.525-.482-.048-.423l.143.13c0-.143-.152-.373-.043-.425.352.232.084.211.352.431.068-.136-.43-.736,0-.579.048.127,0,.2.036.32.484.2.395.106.526.075l.336-.052-.147-.038c-.72-.845.1-.419-.284-1.081.357.631.273.285.625.609.143.038.32.059.4.168-.214-.341.363.043.043-.45.121.1.1-.09.373.184,0-.2-.225-.147-.368-.285-.236-.523.845,0,.525-.75,0-.414-.362-.8-.362-1.186a.793.793,0,0,1,.362.436c.274.041.32-.068.29-.295a.9.9,0,0,0,.336.254c.052-.111-.358-.436-.084-.395a5.324,5.324,0,0,1,.373.525c0-.193-.132-.488-.136-.682.22.159.236.341.33.493a.872.872,0,0,0-.168-.788l-.178-.032c0-.057.284.232.309.317.147.323-.241.035-.357-.063v-.143c-.725-.525-.174.4-.347.525l-.42-.525.254.525c-.154-.084-.442-.309-.447-.452-.336-.111.084.258-.27.1a.143.143,0,0,1-.078-.079l.043.238c-.079-.111-.358-.295-.227-.295-.457-.063.079.634-.357.373v-.041c-.079.409.331.346.577.92l-1.066-.631.336.341c-.036,0-.111.052-.247-.089.159.325.174.121.357.388-.446-.152-.162.523-.772.036.238.284.327.052.395.362-.656-.492-.032.258-.425.136-.295-.314,0-.282-.415-.409.484.525-.327.143-.311.336.431.373,0,.384,0,.677-.141-.132-.523.132-.813.179l-.073-.068c.425.4.2.523.2.7a1.129,1.129,0,0,1-.42-.492l-.1.125a.461.461,0,0,1,.165.357l-.317-.295c-.109.174.149.636-.241.663.317.257,1.02.523,1.051.9a1.955,1.955,0,0,1-.525-.452c0,.032.089.174,0,.152l-.227-.309c-.2,0,.206.236.121.289-.246-.19-.22-.079-.4-.236,0-.041.152,0,.079-.1a.7.7,0,0,1-.525-.068c.146.1.33.258.316.342-.106.173-.342-.168-.526-.174.143.168-.116.136.258.42-.043.043-.222-.079-.336-.132.1.2-.243.431.225.625h.041v.027c.174.552-.625.42-.661.818l-.127-.1c.027.27-.178.431,0,.742-.036.048-.314-.048-.45-.174,0,.2.136.3-.206.342-.13-.279-.225-.09-.068-.243-.23.09-.461,0-.236.4-.289-.284-.523-.152-.45,0l.309.041a.331.331,0,0,1-.168.243l-.409-.336c-.761,0,.492,1.229-.568.909.246.289.336-.048.641.266-.163.122-.9-.12-.936-.073-.388.063.526.618.2.74.174.073.614.316.65.577-.162.12-.786-.225-.85-.4,0-.048.073-.032.127,0a.279.279,0,0,0-.258-.241l.143.12c-.216,0-.343.211-.568,0a.257.257,0,0,0,.368.174c-.358.067-.206.325-.495.444.111,0,.317.106.295.138-.388.193.22.325.163.582-.322-.032-.558-.4-.484-.057-.247.032-.441-.232-.525-.363.189.384-.427.247-.552.333l-.111-.2a.209.209,0,0,1,0,.211l.357.13c-.1.027-.127.079-.262,0,.174.19.568.27.777.563-.209,0,.027.352-.415.13.3-.173-.446-.225-.388-.482,0,.068,0,.12-.1.147a.147.147,0,0,1-.1-.09c-.523,0,.415.395.254.647-.222-.174-.495-.211-.468-.138.068-.1.43.184.561.388-.277.054.043.258-.032.331l.147-.048c.222.174.147.238.159.395-.2-.1-.074-.179-.179-.184.357.373-.6.036-.415.377-.209,0-.461-.247-.614-.236.2.377-.458.032-.311.388.363.121.289.068.525.393l-.036-.476.352.487c.063-.1-.084-.336,0-.368.211.257.136.2.436.3-.572-.132.132.441-.293.42l-.815-.457c-.525.052.174.672-.209.882l.2-.025c.3.22-.07.22,0,.4a1.6,1.6,0,0,0-.6-.189c.206.1-.143.232.388.552l-.436-.048c-.284.19.631.714.4.92-.257-.232-.525-.222-.641-.5-.048.084-.136.132.052.232-.2-.038.254.43-.052.373.1.1.388.257.32.341a.635.635,0,0,1-.136-.075c.136.075.111.243.457.317-1-.174-.316.755-1.165.612a2.1,2.1,0,0,1-.075.682c-.079-.046-.136-.067-.1-.082-.371.111.737.525.317.656-.526-.079-.174-.257-.39-.257-.94-.4-.025.382-.65.3l-.038-.068c-.377,0,.2.523,0,.693a.652.652,0,0,0-.141-.063,1.434,1.434,0,0,1,.457,1.013c-.331-.238-.147-.19-.525-.316,0,.121.609.241.625.484a2.418,2.418,0,0,1-.872-.127l.063-.193c-.552-.136-.089.246-.222.3l-.219-.116c-.052.316.525.571.336.856l.184.048c.488.409-.379,0-.032.346l-.595-.2a3.249,3.249,0,0,1,.4.861,3.234,3.234,0,0,1-.672-.866.441.441,0,0,0,.132.566c-.036-.068-.152-.182-.041-.189.388.325.523.593.43.809-1.092-.525-.525.446-1.443.241.246.557-.526.693-.622,1.177.936.2-.032.143.872.477,0,.127,0,.159-.079.147l-.661.1c-.289-.027-.159-.179-.362-.247-.159.2-.415-.057-.715,0,.331.1.425.27.252.352l.484-.025c.352.523-.861,0-.525.5l-.243-.216c.1.238-.252.62.4,1.05-.116,0-.373-.068-.409-.167-.27.362.415,1.186-.143,1.332l-.209-.114c.036.1.362.289.1.3-.084-.041-.206-.114-.232-.084.059.068.311.342.147.395l-.216-.179c-.436.289.379.829.411,1.213a1.083,1.083,0,0,0-1.142.111l-.087-.038c-.258.425.257.977.362,1.491-.8,0-.609.788-1.161,1.078a.84.84,0,0,1,.525.282c-.168.052.358.431-.236.211v-.032c-.614-.127-.525.13-.6.289l.777.293c-1.288.032.052,1.238-1.051,1.124.163.168.122.293.285.457l-.422-.143c-.057.084-.079.059-.1.063h-.048v.1l-.273-.2c0-.025,1.078.84,1.051.988q-.274-.224-.526-.473c0,.063-.141,0-.2-.032s-.063,0,.121.393c-.063-.114-.193-.341-.209-.382-.027.041-.316-.484.252.739-.184-.4-.2-.4-.159-.236s.147.526.2.745l-.236-.676c.263.845.32,1.05.274,1.218-.054-.106-.168-.525-.09-.347-.168-.377.1.557-.1.152l-.052-.368c-.089-.1-.032.116,0,.525-.032.19-.232-.282-.279-.786,0,.3,0,.672-.073.493a1.538,1.538,0,0,1,0-.341c-.073-.227-.116-.1-.174,0s-.121.162-.141-.1a2.408,2.408,0,0,0,0-.295c.1.075.174.152.163.184a9.875,9.875,0,0,1,0-1.213,2.822,2.822,0,0,1-.1.615c-.052.184-.127.273-.136.157s0-.089.025-.152v-.041c0-.048,0,0-.052.041v-.147c.111-.325.027-.2,0-.23a3.71,3.71,0,0,0-.33.666c0-.036.032-.041.063-.041s0,0,.036-.032v.032l.111.036c-.1.2-.227.346-.174.084a5.123,5.123,0,0,1-.395.6l.232-.745a2.074,2.074,0,0,1,.168-.582c-.388.041-.688-.247-1.3.346-.127.043.048-.252.1-.384.082-.041.125,0,.214-.084-.257.084-.473-.2-.82.258-.041-.336.388-.384.09-.463l.13-.127c0-1.1-1.606.726-1.5-.623a.341.341,0,0,1-.048.209c-.336-.84-1.544-.409-1.706-1.506-.079-.252-.3.048-.563.216l.222-.425-.479.341c-.479.174.189-1.265-.525-.84l-.132.3c-.084-.132-.473-.084-.254-.379-.048.038-.219.254-.178.084l.136-.209-.525.168c-.127-.293.568-.8.273-1.05a1.507,1.507,0,0,0-.788.55c.043.043.043.216-.089.427l-.179.036a3.674,3.674,0,0,0-.92,1.784l.431-.257-.132.341-.173-.084c-.089.336.127.127.3,0a.987.987,0,0,0-.136.384l.568-.468c-.132.254-.395.427-.352.636.263-.216.263-.593.525-.677-.089.336-.268.525,0,.377a.614.614,0,0,1-.262.295c.214-.127.3.084.561-.211-.127.4.379.116,0,.693.121-.121.468-.35.568-.32-.609.6.3.254-.227.972.526-.525.6,0,1.051-.216-.043.043-.132.127-.127.084.084.127,0,.341,0,.525.352-.523.615-.523.92-.761-.184.593-.484.525-.752,1.05.27-.425.526-.257.7-.641a1.682,1.682,0,0,1-.222.677c.438-.634.174-.041.526-.382-.048.425-.352.634-.048.55.016.247-.289.379-.289.379Zm5.253,1.8-.132-.057Zm.525.32a1.5,1.5,0,0,0-.222-.162c0-.174.054-.336.1-.295-.057.1.043.263.106.457h.021Zm.1-3.59c.036-.048,0,.036,0,.127l-.052.032v.046a.255.255,0,0,1,.032-.206h.021Z" transform="translate(125.563 68.725)"/>
    <path id="Path_2450" data-name="Path 2450" class="cls-11" d="M220.094,151.086v.1l.063-.121Zm15.969-28.9a.111.111,0,0,1,.063,0Zm-10.957,28.753L225,150.9l.079.068Zm13.557-29.631a.261.261,0,0,0,.1.048A.525.525,0,0,0,238.664,121.307Zm.688-.7h.209a.616.616,0,0,0-.209,0Zm.652-.42a1.672,1.672,0,0,0-.138-.136l.136.136Zm-6.316,9.982v.035c.048.1.038.043,0-.036Zm.951-3.56a.927.927,0,0,1,.116.209C234.818,126.784,234.85,126.747,234.639,126.611Zm.016.341c.111,0,.121-.059.1-.132C234.7,126.847,234.628,126.873,234.655,126.952Zm7.648-9.026h.036l-.048-.052Zm-.01-.062V117.8A.049.049,0,0,0,242.293,117.865Zm-.038-.2v.136S242.334,117.76,242.255,117.66Zm-.777.85.111.116a.962.962,0,0,0-.111-.116Z" transform="translate(128.894 68.906)"/>
    <path id="Path_2451" data-name="Path 2451" class="cls-11" d="M240.771,118.641c.073,0,.373.106.368-.036l-.089-.1C241.2,118.7,240.614,118.4,240.771,118.641Zm-2.326-.362.268-.116c-.163-.079-.374-.184-.327-.3-.6-.084.331.2.059.415Zm-.72.452c.025-.159-.2-.159-.263-.227C237.536,118.672,237.55,118.715,237.725,118.731Zm-3.541,4.624-.325-.241C233.843,123.234,233.986,123.2,234.184,123.355Zm1.1,2.079.263.054-.279-.247Zm-2.746-1.043-.021-.075.021.232ZM227.776,133l.457.189c-.048-.1-.541-.363-.457-.19Zm-1.33,4.037c-.241-.059-.434,0-.246.152.073-.075.289-.084.247-.152Zm-5.3,11.471-.132-.136.079.193Zm32.961,10.311c-.073-.117-.3-.322-.316-.222l.331.411-.016-.19Zm-1.051-.29a2.534,2.534,0,0,0,.752.92,8.666,8.666,0,0,0-.525-.772c0-.1.216,0,.346.159-.079-.111.163,0-.041-.27-.357-.2-.463-.121-.316.211a1.049,1.049,0,0,1-.216-.247Zm-5.662,5.455h.079a.1.1,0,0,0-.079,0Zm-2.989,3.874a.131.131,0,0,0-.068-.1A.136.136,0,0,0,244.4,167.862Zm-.9.411a.2.2,0,0,0,.057-.027C243.5,168.241,243.449,168.241,243.5,168.273Zm3.891-4.284h-.209C247.316,164.1,247.327,164.016,247.394,163.989Zm5.846-3.817a.34.34,0,0,0-.052-.143.427.427,0,0,1,0,.086Zm-4.87,1.849v-.032a1.73,1.73,0,0,0-.141-.159l.143.19Zm.988-1.34a4.034,4.034,0,0,0,.431.447c-.127-.136-.174-.211-.179-.258A2.626,2.626,0,0,0,249.359,160.681Zm2.317-1.46v-.078a.2.2,0,0,0,0,.079Zm-4.113,3.682-.13-.084a.921.921,0,0,0,.13.084ZM223.888,191.98l.043-.068C223.9,191.944,223.879,191.971,223.888,191.98Zm-.4-2.865h.036l.143-.206Zm18.7-19.794C242.183,169.239,242.179,169.264,242.195,169.321Zm-5.883,12.812c.425,0,.373.425.872.371-.174-.057-.558-.461-.872-.373Zm16.86-21.972a.206.206,0,0,1-.041.054A.05.05,0,0,0,253.172,160.161Zm-12.485,12.374a1.343,1.343,0,0,0,.19.063A.774.774,0,0,0,240.687,172.535Zm1.828-2-.084.025a.175.175,0,0,0,.084-.025Zm-1.9,3.511c-.048,0-.1,0-.079.07h.059c-.048-.038-.063-.068.021-.068Zm-.641,1.261h.1v-.052Zm-12.406,18.8a2.614,2.614,0,0,1,.162-.368c-.152.258-.388.258-.163.368Z" transform="translate(129.434 69.016)"/>
    <path id="Path_2452" data-name="Path 2452" class="cls-11" d="M247.348,144.434c.079.079.111.127.116.159a.151.151,0,0,0,0-.048.57.57,0,0,0-.116-.111Zm-9.354,15.676-.159.163a.341.341,0,0,0,.159-.163Zm-7.234,16.543.032.068A.065.065,0,0,0,230.761,176.653Zm6.839-15.782a.988.988,0,0,0-.325-.025.448.448,0,0,0,.089.073l.238-.048Z" transform="translate(135.141 84.586)"/>
    <path id="Path_2453" data-name="Path 2453" class="cls-10" d="M225.4,178.62c.166.127.387-.425.609-.682.3,0-.138.425-.227.725.222-.048.609-.431.7-.347a.665.665,0,0,1-.135.216c.393-.3.43.247.909-.136a.667.667,0,0,1-.059.136,5.926,5.926,0,0,1,.411-.688c.084.048.346-.209.173.127-.048-.043-.132.089-.222.174l.174-.086c-.222.525-.216.084-.436.42.257-.043.693-.3.736-.089-.263.466-.388-.036-.484.473l-.079-.3c-.309.8-.084-.125-.441.721.168.293.431-.043.6.251.22-.214.22-.382.441-.593.65-.214-.447,1.313.206.883.262-.254.655-.8.65-.384l-.393.468c.209.209.614-.641.645-.132-.174.173-.3.041-.3.132-.1.523.3-.216.431-.132l-.263.466.163.054.206.057a3.793,3.793,0,0,0,.423.068,3.252,3.252,0,0,1,.767.159c-.057.146-.184.266-.1.523a2,2,0,0,1,.977.6c.325.316.682.741,1.05,1.165a3.4,3.4,0,0,0,.127-.468.721.721,0,0,1,.127.431c.293.4-.075-.393,0-.571.114.035.262.482.22.623a.777.777,0,0,1,.571-.236h.127a.22.22,0,0,0,0-.063.828.828,0,0,1,.074-.22c.057-.116.141-.157.252-.1l.052.289c.121-.063,0-.5-.09-.861s-.189-.666,0-.55l.032.157a4.494,4.494,0,0,0,.4-1.081c.127-.373.29-.645.679-.725a.389.389,0,0,1-.038-.587c.1-.17.168-.354-.241-.595.273-.1.447-.121.609-.174a3.753,3.753,0,0,0,.526-.314c.073-.1-.526-.341-.552-.5l.461.152-.425-.336.583.089-.079-.159a.525.525,0,0,1-.368,0c-.147-.257.473-.35.709-.271l-.236-.579c.179.075.216.168.316.27-.388-.4.5.119.143-.243a1.455,1.455,0,0,1-.358-.147.357.357,0,0,0,.347-.477l.3.143c.2-.3.089-.742.225-1.11-.193.079-.729-.141-.745-.266l.525.127c-.273-.174-.22.048-.525-.227.1-.116.583.1.709.236l-.1-.225c.133.054.262.116.388.182-.277-.173.588-.114.1-.4l.147.041c.132-.362,0-.593.111-.9-.415-.159-.279-.236-.584-.452.214-.168.63-.289.693-.566-.136-.263-.331-.184-.525-.357.382.127.446-.152.666.084a1.575,1.575,0,0,0-.084-.945.652.652,0,0,1-.377-.068c-.032-.1.22-.1.4,0l.032.032c-.395-.666,1.5-.6.85-1.261l.032.032-.263-.525c.132-.143.243.209.526.178-.473-.645.33-.587.048-1.081,1.207.2.293-.92,1.134-.961l-.263-.089c-.22-.193.19-.041.274-.084-.2-.073-.27,0-.39-.116,0-.872,1.051-1.359,1.576-1.988.19-.243-1.249-.752-.488-.82l.431.309c-.327-.813.525-1.107.3-1.863.1.084.236.147.209.2.395.052.211-.4-.063-.525.07-.068.258.1.427.116.254,0-.3-.488.068-.388a.241.241,0,0,1,.111.121c-.132-.152.2-.32-.222-.441.285-.111,0-.468.322-.525-.39-.32.377-.231-.222-.572.631.336.695-.084.458-.363.173.143.257,0,.493.179.068-.147,0-.336-.325-.477.893.13-.336-.847.709-.484a4.52,4.52,0,0,1-.079-1.575c.615.357-.168.446.5.786-.063-.488-.484-.991-.136-1.259.136-.043.241.2.33.293-.063-.5.431-.65.274-1.161a.425.425,0,0,1,.127.163c0-.073.173-.089-.111-.247l.041.106c-.461-.132-.714-.736-.92-.867.742.568.39-.193,1.3.563a.7.7,0,0,0-.325-.3c.089-.025.209,0,.389.2,0-.3-.368-.4-.243-.593a2.587,2.587,0,0,1,.311.262c-.2-.252-.4-.523-.19-.609.075.059.2.1.159.147.132-.311-.4-.909.041-1.05.526.446.258,0,.767.3l-.048-.257-.284-.084c.1-.143-.189-.523.059-.523l.136.235.084-.33-.289.036c-.163-.311-.641-.384-.379-.488.027.068.1-.147.447-.036-.111-.174-.227-.358-.032-.388.174.079.525.377.645.425-.362-.336.111-.409-.268-.788a1.821,1.821,0,0,0,.4.295L246,152.5a.62.62,0,0,1,.4.174c.193-.163-.666-.346-.238-.409,0,.036.07.063.1.136.295-.152.1-.609.4-.725.526.268,0,.277.452.484.116-.384-.132-1.051.2-1.276h-.089c-.658-.525.492,0,.282-.368,0,.075.343.32.274.254.257-.127.13-.526.143-1.008l.146.166c.241,0,.316-.257.488-.325-.143-.168-.057-.22-.341-.362,1.281.346.068-1.15,1.145-.877-.032.041.068.216.1.184l.073-.42c-.3-.2-.2-.1-.473-.211-.143-.173-.206-.357-.147-.434.084.289.457.362.661.434-.1-.063-.173-.157-.268-.225.631.252-.523-.484-.041-.425l.136.132c0-.143-.152-.373-.043-.427.358.231.084.211.352.436.075-.136-.425-.74,0-.577.048.121,0,.2.038.316.477.2.393.111.523.073l.343-.052-.147-.032c-.718-.85.1-.425-.282-1.086.35.634.273.289.625.609.143.036.32.057.4.168-.216-.341.357.048.041-.452.122.1.1-.084.368.19,0-.2-.225-.147-.362-.285-.238-.523.845,0,.523-.75,0-.42-.362-.809-.355-1.186a.756.756,0,0,1,.357.43c.273.043.32-.068.289-.293a.92.92,0,0,0,.341.257c.048-.111-.357-.441-.089-.393a4.477,4.477,0,0,1,.373.523c0-.193-.132-.487-.132-.687.216.159.238.341.333.5a.888.888,0,0,0-.174-.793l-.179-.032c.027-.052.285.232.311.316.146.325-.238.041-.358-.059v-.143c-.725-.523-.173.395-.352.526l-.42-.525.258.523c-.159-.082-.447-.309-.447-.45-.341-.116.079.252-.273.1a.158.158,0,0,1-.079-.079l.048.238c-.084-.117-.362-.295-.232-.3-.457-.063.079.636-.357.374v-.043c-.073.415.336.347.583.924l-1.008-.65.341.346a.227.227,0,0,1-.247-.089c.159.32.168.121.352.382-.446-.152-.162.525-.766.036.236.289.32.054.393.363-.661-.493-.036.262-.431.136-.289-.309,0-.284-.414-.4.488.525-.327.143-.311.336.436.373,0,.377,0,.677-.143-.136-.523.132-.813.174l-.068-.063c.425.393.2.523.2.7a1.218,1.218,0,0,1-.427-.493l-.1.121a.461.461,0,0,1,.163.363l-.314-.3c-.106.179.152.636-.238.668.311.258,1.015.525,1.051.9a2.1,2.1,0,0,1-.525-.457c0,.036.1.178,0,.157l-.222-.309c-.2,0,.206.236.122.289-.247-.19-.222-.079-.409-.243,0-.036.152,0,.079-.089a.725.725,0,0,1-.526-.068c.147.1.336.254.32.341-.1.174-.341-.173-.525-.173.143.168-.121.136.252.415-.036.048-.222-.075-.336-.132.1.2-.238.43.225.629h.043v.027c.178.55-.625.425-.663.818l-.127-.089c.032.268-.171.425,0,.734-.035.054-.314-.048-.45-.173,0,.2.143.3-.2.347-.136-.285-.232-.1-.073-.247-.227.089-.463,0-.238.4-.289-.289-.523-.152-.45,0l.314.036a.347.347,0,0,1-.173.247l-.4-.336c-.761,0,.493,1.229-.572.9.247.293.341-.048.645.273-.162.114-.9-.127-.939-.075-.39.063.523.618.193.74.179.068.615.309.656.571-.163.122-.793-.219-.856-.4,0-.048.075-.032.127,0a.284.284,0,0,0-.258-.247l.143.122c-.211,0-.336.209-.563,0a.257.257,0,0,0,.363.178c-.357.063-.206.32-.488.441.111,0,.316.1.293.136-.388.2.216.327.159.583-.316-.027-.557-.4-.484-.059-.241.032-.441-.23-.525-.362.189.388-.427.252-.552.33l-.068-.182a.206.206,0,0,1,0,.209l.357.132c-.1.032-.127.084-.257,0,.174.189.561.273.777.566-.216,0,.027.347-.42.127.3-.174-.447-.227-.384-.484.027.074,0,.121-.1.152a.2.2,0,0,1-.1-.1c-.523.027.415.4.254.647-.222-.174-.495-.206-.468-.136.068-.1.43.189.566.388-.284.057.036.262-.032.336l.143-.048c.225.168.147.236.163.393-.2-.1-.075-.178-.179-.184.352.368-.6.038-.415.379-.209,0-.461-.254-.614-.243.2.379-.458.032-.317.395.365.121.29.063.526.388l-.036-.473.352.488c.063-.106-.084-.336,0-.368.206.252.132.2.431.3-.574-.132.13.441-.295.419l-.809-.45c-.525.048.174.672-.216.882l.206-.032c.3.222-.07.225,0,.4a1.575,1.575,0,0,0-.6-.184c.2.1-.143.232.393.523l-.441-.041c-.285.19.63.709.409.915-.262-.231-.525-.216-.645-.5-.048.084-.136.136.057.236-.2-.041.254.425-.052.368.1.1.388.257.316.341a.74.74,0,0,1-.136-.068c.136.068.111.241.461.316-1-.179-.316.75-1.165.614a2.3,2.3,0,0,1-.079.682c-.079-.052-.136-.068-.1-.089-.373.111.736.525.322.656-.526-.079-.179-.257-.39-.252-.945-.4-.032.377-.656.3l-.032-.068c-.382,0,.19.525,0,.693a.574.574,0,0,0-.141-.068,1.443,1.443,0,0,1,.463,1.013c-.336-.232-.154-.184-.526-.316,0,.121.61.247.625.484a2.291,2.291,0,0,1-.866-.127l.057-.193c-.552-.136-.089.247-.22.3l-.216-.116c-.057.32.526.577.333.861l.182.043c.488.414-.373,0-.032.346l-.593-.2a3.3,3.3,0,0,1,.4.867,3.282,3.282,0,0,1-.783-.883.441.441,0,0,0,.136.568c-.036-.068-.152-.184-.048-.19.39.333.526.6.431.809-1.092-.523-.525.447-1.443.243.251.561-.495.7-.622,1.177.936.193-.032.141.872.476,0,.127,0,.163-.079.147l-.661.106c-.289-.032-.159-.179-.362-.254-.159.206-.415-.057-.714,0,.33.1.423.263.251.349h.488c.347.523-.861,0-.525.492l-.241-.214c.1.236-.247.625.409,1.05-.116,0-.379-.063-.415-.163-.262.363.415,1.188-.143,1.329l-.209-.116c.036.1.368.289.111.3-.089-.036-.211-.116-.238-.084.063.068.317.346.149.4l-.216-.178c-.436.284.377.829.409,1.213a1.083,1.083,0,0,0-1.14.1l-.089-.036c-.254.43.257.977.363,1.491-.8,0-.61.793-1.158,1.077a.856.856,0,0,1,.526.289c-.168.052.357.43-.241.2v-.032c-.62-.127-.526.136-.6.289l.777.295c-1.286.032.052,1.243-1.05,1.127.162.163.116.29.277.457l-.42-.146c-.057.084-.079.063-.1.068h-.048v.1c-.089-.063-.178-.132-.273-.19s1.083.836,1.051.983l-.525-.468c0,.063-.143,0-.211-.038s-.063,0,.127.395q-.112-.186-.211-.379c-.016-.041-.316-.487.247.736-.184-.393-.2-.4-.152-.238s.143.526.193.752l-.236-.682c.263.85.32,1.05.279,1.218-.052-.1-.174-.525-.1-.341-.168-.384.1.555-.1.147l-.052-.368c-.09-.1-.032.121,0,.523,0,.2-.227-.277-.279-.78,0,.3,0,.671-.068.488a1.536,1.536,0,0,1,0-.342c-.079-.225-.116-.1-.174,0s-.125.168-.146-.1a2.318,2.318,0,0,0,0-.293c.1.073.174.152.168.189a9.971,9.971,0,0,1,0-1.218,2.888,2.888,0,0,1-.1.618c-.052.179-.127.274-.136.152V177.4c0-.048,0,0-.052.048a.525.525,0,0,0,0-.147c.111-.331,0-.206,0-.232a4.071,4.071,0,0,0-.333.663c0-.032.032-.043.07-.043a.057.057,0,0,0,.032-.032v.036l.111.032c-.106.206-.227.352-.179.089a6.246,6.246,0,0,1-.395.6c.079-.257.163-.525.238-.752a2.079,2.079,0,0,1,.162-.582c-.388.048-.688-.247-1.3.347-.132.048.048-.254.089-.379.089-.041.132,0,.222-.089-.263.089-.474-.206-.825.262-.038-.341.393-.382.087-.466l.132-.127c0-1.1-1.6.729-1.5-.625a.457.457,0,0,1-.048.216c-.336-.845-1.575-.415-1.706-1.513-.084-.251-.3.048-.563.216l.222-.425-.484.347c-.473.168.189-1.272-.526-.84l-.136.293c-.084-.127-.473-.084-.252-.377-.041.041-.22.257-.173.084l.132-.211-.525.174c-.127-.3.571-.809.273-1.05a1.513,1.513,0,0,0-.783.555c.043.043.036.211-.1.42l-.178.038a3.7,3.7,0,0,0-.92,1.784l.431-.252-.132.336-.168-.084c-.1.341.127.127.3,0a.913.913,0,0,0-.132.379l.563-.468c-.132.257-.39.425-.352.641.262-.222.268-.593.523-.682-.087.341-.262.55,0,.377a.6.6,0,0,1-.262.3c.222-.132.3.079.568-.216-.132.409.377.116,0,.693.121-.121.461-.347.568-.316-.615.593.293.254-.232.972.525-.525.6,0,1.05-.222-.048.043-.13.132-.13.086.084.13,0,.341,0,.523.352-.523.609-.523.913-.766-.179.593-.484.552-.745,1.05.262-.425.523-.257.7-.634a1.745,1.745,0,0,1-.225.677c.441-.634.174-.048.525-.384-.052.42-.357.631-.052.525a.629.629,0,0,1-.247.373Zm5.252,1.8-.136-.057Zm.525.325a.965.965,0,0,0-.216-.162c0-.179.048-.336.1-.3-.068.086.032.263.1.463Zm.1-3.59c.036-.052,0,.032,0,.121l-.048.032-.025.052.073-.206Z" transform="translate(129.973 84.219)"/>
    <path id="Path_2454" data-name="Path 2454" class="cls-11" d="M227.649,177.507h-.025v.1l.068-.121-.041.016Zm15.964-28.889h.057ZM232.66,177.359l-.109-.032.084.063Zm13.553-29.625.106.048a.215.215,0,0,0-.106-.048Zm.688-.7h.211A.624.624,0,0,0,246.9,147.037Zm.652-.43-.132-.136Zm-6.314,9.974a.1.1,0,0,0,0,.036C241.286,156.728,241.281,156.676,241.238,156.581Zm.951-3.544a1.251,1.251,0,0,1,.116.206C242.369,153.211,242.4,153.175,242.19,153.037Zm.016.343c.111,0,.127-.063.1-.136C242.258,153.269,242.179,153.3,242.206,153.38Zm7.648-9.026h.036l-.048-.052Zm-.011-.068v-.063A.043.043,0,0,0,249.842,144.286Zm-.036-.2v.138S249.885,144.186,249.806,144.086Zm-.777.84.116.121a1.05,1.05,0,0,0-.116-.12Zm-.168.252c.079,0,.377.1.368-.041l-.084-.09c.143.2-.436-.1-.284.132Zm-2.326-.366.266-.111c-.157-.079-.373-.184-.325-.3-.6-.084.331.2.057.415Zm-.71.45c.032-.159-.189-.159-.262-.225C245.626,145.205,245.642,145.247,245.824,145.263Zm-3.566,4.625-.32-.241C241.938,149.758,242.08,149.758,242.258,149.888Zm1.113,2.079.263.059-.279-.247Zm-2.746-1.045-.021-.068.021.232Zm-4.759,8.621.461.189c-.048-.1-.541-.368-.461-.19Zm-1.324,4.037c-.247-.063-.442,0-.247.146C234.379,163.653,234.579,163.647,234.542,163.58Zm-5.306,11.464-.132-.13.084.193Z" transform="translate(133.304 84.383)"/>
    <rect id="Rectangle_656" data-name="Rectangle 656" class="cls-12" width="27.839" height="4.2" rx="1.324" transform="translate(356.773 158.355) rotate(-15.93)"/>
    <ellipse id="Ellipse_83" data-name="Ellipse 83" class="cls-13" cx="46.487" cy="1.586" rx="46.487" ry="1.586" transform="translate(328.266 177.127) rotate(-15.93)"/>
    <path id="Path_2455" data-name="Path 2455" class="cls-4" d="M234.726,136.878,304.428,117m-69.282,21.392,60.984-17.387,8.718-2.489a1.577,1.577,0,0,0-.84-3.038l-60.984,17.391-8.718,2.489A1.575,1.575,0,0,0,235.146,138.394Zm2.967,10.348,69.705-19.881m-69.29,21.414,60.932-17.368,8.8-2.508a1.578,1.578,0,0,0-.84-3.04l-60.93,17.371-8.8,2.51a1.575,1.575,0,0,0,.836,3.035h0Zm7,28.285,69.708-19.875m-69.288,21.4,60.989-17.391,8.719-2.489a1.578,1.578,0,0,0-.84-3.04l-60.984,17.395-8.719,2.493a1.577,1.577,0,0,0,.836,3.04Zm2.967,10.343,69.708-19.876m-69.287,21.394,60.984-17.395,8.718-2.482a1.577,1.577,0,0,0-.836-3.04L257.221,186.42l-8.718,2.488a1.575,1.575,0,0,0,.836,3.035Zm7.437,26,69.7-19.881m-69.288,21.4,60.93-17.372,8.8-2.505a1.577,1.577,0,0,0-.84-3.038l-60.932,17.371-8.794,2.51a1.575,1.575,0,0,0,.836,3.035Zm2.968,10.346,69.707-19.881m-69.287,21.4,60.93-17.371,8.8-2.509a1.576,1.576,0,0,0-.84-3.035l-60.932,17.372-8.792,2.5a1.577,1.577,0,0,0,.836,3.04Z" transform="translate(136.566 67.59)"/>
  </g>
</svg>
