<svg xmlns="http://www.w3.org/2000/svg" width="44.102" height="18.089" viewBox="0 0 44.102 18.089">
  <g id="Group_4650" data-name="Group 4650" transform="translate(0.755 0.747)">
    <g id="Group_4507" data-name="Group 4507" transform="translate(0 0)">
      <path id="Path_2397" data-name="Path 2397" d="M82.182,97.361l.213-4.468A18.337,18.337,0,0,0,71.6,97.813ZM97.4,106.22c.452-.092.908-.165,1.357-.274,1.194-.29,1.656-.229,1.978-1.533.424-1.717.106-4.71-2.291-5.761-8.057-3.532-14.806-11.8-27.616-1.28l-1.441.485a21.854,21.854,0,0,0-9.034,2.027,2.541,2.541,0,0,0-1.028,1.57,3.808,3.808,0,0,0-.656,3.825c.24.681.493.884.885.914l2.883.057c-.433-8.055,10.767-6.934,9.019.4l16.84-.143a3.115,3.115,0,0,1-.207-1.67A4.712,4.712,0,1,1,97.4,106.22Z" transform="translate(-58.403 -92.218)" fill="none" stroke="#707070" stroke-width="1.5" fill-rule="evenodd"/>
    </g>
    <g id="Group_4508" data-name="Group 4508" transform="translate(4.441 8.779)">
      <path id="Path_2398" data-name="Path 2398" d="M110.614,202.906a3.511,3.511,0,1,0,3.511,3.511,3.511,3.511,0,0,0-3.511-3.511m0-.742a4.253,4.253,0,1,0,4.253,4.253A4.253,4.253,0,0,0,110.614,202.164Z" transform="translate(-80.644 -202.164)" fill="#757575" fill-rule="evenodd"/>
      <path id="Path_2399" data-name="Path 2399" d="M432.7,203.624a3.511,3.511,0,1,0,3.511,3.511,3.511,3.511,0,0,0-3.511-3.511m0-.742a4.253,4.253,0,1,0,4.253,4.253A4.253,4.253,0,0,0,432.7,202.882Z" transform="translate(-428.445 -202.825)" fill="#757575" fill-rule="evenodd"/>
      <path id="Path_2400" data-name="Path 2400" d="M142.058,236.6a1.258,1.258,0,1,0,1.258,1.258,1.258,1.258,0,0,0-1.258-1.258m0-.266a1.524,1.524,0,1,0,1.524,1.524A1.524,1.524,0,0,0,142.058,236.338Z" transform="translate(-112.089 -233.609)" fill="#757575" fill-rule="evenodd"/>
      <path id="Path_2401" data-name="Path 2401" d="M464.143,237.322a1.258,1.258,0,1,0,1.258,1.258,1.258,1.258,0,0,0-1.258-1.258m0-.266a1.524,1.524,0,1,0,1.524,1.524A1.524,1.524,0,0,0,464.143,237.056Z" transform="translate(-459.89 -234.27)" fill="#757575" fill-rule="evenodd"/>
    </g>
  </g>
</svg>
