<svg xmlns="http://www.w3.org/2000/svg" width="35.807" height="54.238" viewBox="0 0 35.807 54.238">
  <g id="Group_4718" data-name="Group 4718" transform="translate(0 0)">
    <path id="Path_1081" data-name="Path 1081" d="M567.872,1009.572c.226-.561.375-.952.54-1.337a16.826,16.826,0,0,0,1.311-6.633,4.906,4.906,0,0,0-5.814-4.647,4.274,4.274,0,0,0-3.106,2.951,66.08,66.08,0,0,1-2.894,6.6,5.922,5.922,0,0,1-4.611,2.845,35.609,35.609,0,0,1-3.884.213c-1.776.04-2.264.485-2.264,2.193q0,10.813,0,21.627c0,2.069.346,2.38,2.434,2.434a61.419,61.419,0,0,1,6.8.333,45.531,45.531,0,0,1,4.962,1.429,33.785,33.785,0,0,0,11.4.514c3.185-.272,4.816-2.93,4.035-6.014a.836.836,0,0,1,.5-1.1,3.96,3.96,0,0,0,2.031-2.764,16.972,16.972,0,0,0,.035-2.965c3.6-1.983,4.169-3.852,2.268-7.769a4.5,4.5,0,0,0,.755-5.224,4.881,4.881,0,0,0-4.783-2.69C574.412,1009.567,571.238,1009.572,567.872,1009.572Zm3.467-13.619a5.589,5.589,0,0,0,1.082-.6q2.432-2.336,4.815-4.721a1.328,1.328,0,0,0,.114-2.063,1.413,1.413,0,0,0-2.185.059c-.846.767-1.641,1.588-2.453,2.391a26.758,26.758,0,0,0-2.315,2.368,1.84,1.84,0,0,0-.266,1.532C570.291,995.346,570.912,995.61,571.339,995.954Zm-11.392-1.522a3.419,3.419,0,0,0-.429-.994c-1.71-1.717-3.408-3.45-5.221-5.057a1.956,1.956,0,0,0-1.718.119,1.1,1.1,0,0,0-.251,1.754c1.705,1.769,3.456,3.5,5.268,5.162a1.713,1.713,0,0,0,1.466.072C559.443,995.332,559.663,994.792,559.947,994.431Zm-8.052,6.9c1.044,0,2.089.018,3.133-.005,1.016-.023,1.536-.507,1.549-1.38a1.325,1.325,0,0,0-1.5-1.424c-2.088-.025-4.177-.021-6.265,0a1.42,1.42,0,1,0,.06,2.809C549.878,1001.347,550.887,1001.334,551.895,1001.332Zm26.029,0c1.044,0,2.089.02,3.132-.005,1.01-.025,1.528-.52,1.531-1.4s-.515-1.4-1.518-1.407c-2.088-.024-4.177-.021-6.265,0a1.412,1.412,0,1,0-.013,2.805C575.835,1001.35,576.879,1001.332,577.923,1001.332Zm-11.586-12.551c0-1.063.006-2.127,0-3.19a1.262,1.262,0,0,0-1.4-1.4,1.292,1.292,0,0,0-1.463,1.358q-.05,3.189,0,6.379a1.29,1.29,0,0,0,1.472,1.348,1.265,1.265,0,0,0,1.386-1.411C566.342,990.836,566.338,989.809,566.338,988.781Z" transform="translate(-547.148 -984.191)" fill="#fff"/>
    <g id="Group_4903" data-name="Group 4903" transform="translate(0 -0.912)">
      <path id="Path_1082" data-name="Path 1082" d="M567.908,1056.535c3.372,0,6.551-.006,9.731,0a4.875,4.875,0,0,1,4.791,2.74,4.643,4.643,0,0,1-.756,5.321c1.9,3.989,1.337,5.893-2.272,7.913a17.571,17.571,0,0,1-.035,3.021,4.029,4.029,0,0,1-2.035,2.815.855.855,0,0,0-.5,1.115c.782,3.141-.852,5.849-4.042,6.126a33.305,33.305,0,0,1-11.422-.524,44.971,44.971,0,0,0-4.97-1.455,60.35,60.35,0,0,0-6.812-.339c-2.091-.055-2.438-.372-2.438-2.479q0-11.014,0-22.029c0-1.74.489-2.193,2.268-2.234a35.073,35.073,0,0,0,3.891-.217,5.923,5.923,0,0,0,4.619-2.9,67.885,67.885,0,0,0,2.9-6.723,4.314,4.314,0,0,1,3.112-3.006,4.937,4.937,0,0,1,5.824,4.734,17.388,17.388,0,0,1-1.313,6.756C568.283,1055.565,568.134,1055.964,567.908,1056.535Zm-17.618,23.649c.627,0,1.163.015,1.7,0a23.638,23.638,0,0,1,9.429,1.609,11.7,11.7,0,0,0,3.582.745c2.345.119,4.7.062,7.05.044a1.785,1.785,0,0,0,1.952-1.734c-.04-.961-.787-1.57-1.938-1.633a5.722,5.722,0,0,1-2.009-.255,1.756,1.756,0,0,1-.884-1.294,2.035,2.035,0,0,1,.855-1.332,2.525,2.525,0,0,1,1.353-.247c1.156-.036,2.318.037,3.469-.048a1.626,1.626,0,0,0,1.591-1.625,1.677,1.677,0,0,0-1.634-1.691c-.431-.038-.868-.006-1.3-.019-1.208-.037-1.969-.653-1.962-1.579s.758-1.537,1.984-1.555c1.41-.022,2.821.012,4.231-.014a1.805,1.805,0,0,0,1.948-1.632c.034-.983-.759-1.672-1.943-1.736a5.682,5.682,0,0,1-2.009-.256,1.757,1.757,0,0,1-.879-1.3,2.213,2.213,0,0,1,.864-1.334c.255-.223.747-.2,1.138-.238.358-.036.723,0,1.084-.014a1.773,1.773,0,0,0,1.865-1.707,1.7,1.7,0,0,0-1.9-1.65c-4.123-.016-8.246.031-12.367-.047a2.908,2.908,0,0,1-1.922-.868c-.58-.656-.069-1.411.4-2.045a13.5,13.5,0,0,0,2.593-7.02,3.4,3.4,0,0,0-.208-1.887,2.434,2.434,0,0,0-1.561-1.069c-.33-.046-.935.661-1.136,1.146-.636,1.53-1.056,3.15-1.709,4.671-1.529,3.561-4.055,6.041-7.973,6.8-1.223.239-2.485.28-3.758.415Z" transform="translate(-547.148 -1030.682)" fill="#523105"/>
      <path id="Path_1085" data-name="Path 1085" d="M552.144,1054.228c-1.01,0-2.02.014-3.03,0a1.443,1.443,0,1,1-.06-2.861c2.092-.019,4.184-.023,6.276,0a1.338,1.338,0,0,1,1.5,1.451c-.012.888-.534,1.382-1.552,1.405C554.237,1054.246,553.19,1054.227,552.144,1054.228Z" transform="translate(-547.389 -1036.767)" fill="#523105"/>
      <path id="Path_1086" data-name="Path 1086" d="M672.167,1054.228c-1.046,0-2.092.019-3.138-.006a1.436,1.436,0,1,1,.013-2.857q3.138-.029,6.276,0a1.34,1.34,0,0,1,1.52,1.434c0,.893-.522,1.4-1.534,1.422C674.259,1054.247,673.213,1054.228,672.167,1054.228Z" transform="translate(-641.337 -1036.768)" fill="#523105"/>
      <path id="Path_1088" data-name="Path 1088" d="M561.62,1091.621v-20.4c1.273-.135,2.535-.176,3.758-.415,3.919-.764,6.444-3.244,7.973-6.8.653-1.521,1.074-3.141,1.709-4.671.2-.485.807-1.192,1.137-1.146a2.434,2.434,0,0,1,1.56,1.069,3.4,3.4,0,0,1,.208,1.887,13.5,13.5,0,0,1-2.593,7.019c-.47.635-.982,1.39-.4,2.045a2.91,2.91,0,0,0,1.922.868c4.121.078,8.244.031,12.367.047a1.7,1.7,0,0,1,1.9,1.65,1.773,1.773,0,0,1-1.865,1.707c-.361.018-.726-.022-1.084.014-.391.04-.883.015-1.138.238a2.212,2.212,0,0,0-.864,1.334,1.757,1.757,0,0,0,.879,1.3,5.674,5.674,0,0,0,2.009.257c1.184.064,1.977.753,1.943,1.736a1.806,1.806,0,0,1-1.948,1.632c-1.41.025-2.821-.009-4.231.014-1.225.019-1.976.627-1.984,1.555s.753,1.542,1.962,1.579c.434.013.87-.019,1.3.019a1.678,1.678,0,0,1,1.634,1.691,1.627,1.627,0,0,1-1.591,1.625c-1.151.085-2.313.012-3.469.048a2.524,2.524,0,0,0-1.353.247,2.035,2.035,0,0,0-.855,1.332,1.756,1.756,0,0,0,.884,1.294,5.724,5.724,0,0,0,2.009.255c1.151.063,1.9.672,1.938,1.633a1.785,1.785,0,0,1-1.952,1.734c-2.35.018-4.705.075-7.05-.044a11.682,11.682,0,0,1-3.582-.745,23.643,23.643,0,0,0-9.429-1.609C562.783,1091.635,562.247,1091.621,561.62,1091.621Z" transform="translate(-558.478 -1042.118)" fill="#fed100"/>
    </g>
    <g id="Group_4902" data-name="Group 4902" transform="translate(4.855)">
      <path id="Path_1083" data-name="Path 1083" d="M654.145,1010.451c-.428-.35-1.05-.619-1.211-1.057a1.9,1.9,0,0,1,.266-1.56,26.99,26.99,0,0,1,2.319-2.412c.813-.818,1.61-1.654,2.457-2.436a1.4,1.4,0,0,1,2.189-.06,1.367,1.367,0,0,1-.114,2.1q-2.384,2.432-4.823,4.808A5.591,5.591,0,0,1,654.145,1010.451Z" transform="translate(-634.766 -998.469)" fill="#523105"/>
      <path id="Path_1084" data-name="Path 1084" d="M577.475,1009.447c-.284.367-.5.917-.888,1.075a1.692,1.692,0,0,1-1.468-.073c-1.815-1.693-3.569-3.456-5.277-5.257a1.126,1.126,0,0,1,.252-1.787,1.931,1.931,0,0,1,1.721-.121c1.817,1.637,3.517,3.4,5.23,5.151A3.519,3.519,0,0,1,577.475,1009.447Z" transform="translate(-569.508 -999.016)" fill="#523105"/>
      <path id="Path_1087" data-name="Path 1087" d="M625.263,988.866c0,1.047,0,2.094,0,3.14a1.278,1.278,0,0,1-1.389,1.437,1.3,1.3,0,0,1-1.475-1.373q-.053-3.248,0-6.5a1.3,1.3,0,0,1,1.466-1.383,1.275,1.275,0,0,1,1.4,1.427C625.269,986.7,625.263,987.783,625.263,988.866Z" transform="translate(-610.895 -984.19)" fill="#523105"/>
    </g>
  </g>
</svg>
