<svg xmlns="http://www.w3.org/2000/svg" width="23" height="25.629" viewBox="0 0 23 25.629">
  <path id="Path_2467" data-name="Path 2467" d="M49.046,52.244c2.409-2.388,3.156-5.786,3.5-9.069a29.456,29.456,0,0,0,0-5.86.863.863,0,0,0-.842-.842c-2.188,0-4.429-1.368-6.313-2.43a43.08,43.08,0,0,1-3.766-2.409.81.81,0,0,0-.842,0,43.042,43.042,0,0,1-3.766,2.409c-1.841,1.052-4.082,2.42-6.313,2.43a.852.852,0,0,0-.842.842A25.25,25.25,0,0,0,31.024,48.33,13.908,13.908,0,0,0,36.779,54.9,19.987,19.987,0,0,0,40,56.747a2.472,2.472,0,0,0,1.547.389A12.879,12.879,0,0,0,44.3,55.853a23.145,23.145,0,0,0,4.745-3.577c.779-.757-.41-1.946-1.189-1.189a19.769,19.769,0,0,1-6.523,4.3c-.537.2,0-.053.105.095-.053-.095-.515-.189-.61-.231a20.2,20.2,0,0,1-2.651-1.431c-2.3-1.462-4.513-3.272-5.481-5.892a20.907,20.907,0,0,1-1.126-6.575,27.255,27.255,0,0,1,.105-4.04l-.842.842c2.4,0,4.8-1.336,6.839-2.493a45.934,45.934,0,0,0,4.04-2.567h-.842a45.949,45.949,0,0,0,4,2.609c2.041,1.157,4.44,2.483,6.839,2.494l-.842-.842a29.723,29.723,0,0,1,0,5.387c-.221,2.977-.863,6.176-3.04,8.354a.842.842,0,0,0,1.189,1.189Z" transform="translate(-29.695 -31.516)" fill="#757575"/>
</svg>
