<svg id="Group_4646" data-name="Group 4646" xmlns="http://www.w3.org/2000/svg" width="17.003" height="16.744" viewBox="0 0 17.003 16.744">
  <path id="path" d="M5.309,19.689a1.377,1.377,0,0,0,1.778,1.75l2.55-.609a8.37,8.37,0,0,0,3.864.913A8.373,8.373,0,1,0,13.5,5,8.413,8.413,0,0,0,5,13.372a8.3,8.3,0,0,0,.927,3.843l-.618,2.474Zm2.2-2.4a.75.75,0,0,0-.077-.571,6.789,6.789,0,0,1-.889-3.349,6.957,6.957,0,0,1,13.911,0,6.924,6.924,0,0,1-6.956,6.85,7.061,7.061,0,0,1-3.4-.875.759.759,0,0,0-.58-.076l-2.705.647.7-2.626Zm9.468-4.681a.761.761,0,1,0,0-1.522H10.024a.761.761,0,1,0,0,1.522Zm0,3.044a.761.761,0,1,0,0-1.522H12.342a.761.761,0,1,0,0,1.522Z" transform="translate(-5 -5)" fill="#fff"/>
</svg>
