<svg xmlns="http://www.w3.org/2000/svg" width="76.395" height="54.277" viewBox="0 0 76.395 54.277">
  <defs>
    <style>
      .cls-1 {
        stroke: #523106;
        stroke-linecap: round;
        stroke-linejoin: round;
      }

      .cls-2 {
        fill: #3e2510;
      }
    </style>
  </defs>
  <g id="Component_249_1" data-name="Component 249 – 1" transform="translate(0.5 0.5)">
    <path id="Path_848" data-name="Path 848" class="cls-1" d="M431.684,224.906s-1.248.045-1.449,2.338h0c-.2-2.293-1.448-2.338-1.448-2.338h0s1.246-.045,1.448-2.338h0c.2,2.293,1.449,2.338,1.449,2.338Z" transform="translate(-427.572 -207.276)"/>
    <path id="Path_849" data-name="Path 849" class="cls-1" d="M435.86,261.354s-1.248.045-1.449,2.338h0c-.2-2.293-1.448-2.338-1.448-2.338h0s1.247-.045,1.448-2.338h0c.2,2.293,1.449,2.338,1.449,2.338Z" transform="translate(-429.228 -221.735)"/>
    <path id="Path_855" data-name="Path 855" class="cls-1" d="M465.687,204.7s-2.3.083-2.664,4.3h0c-.37-4.219-2.666-4.3-2.666-4.3h0s2.3-.083,2.666-4.3h0c.369,4.219,2.664,4.3,2.664,4.3Z" transform="translate(-395.767 -198.482)"/>
    <path id="Path_856" data-name="Path 856" class="cls-1" d="M432.1,247.172s-2.295.082-2.665,4.3h0c-.37-4.219-2.665-4.3-2.665-4.3h0s2.294-.082,2.665-4.3h0c.37,4.219,2.665,4.3,2.665,4.3Z" transform="translate(-426.772 -215.33)"/>
    <path id="Path_857" data-name="Path 857" class="cls-1" d="M436.518,201.523s-2.295.083-2.664,4.3h0c-.37-4.218-2.665-4.3-2.665-4.3h0s2.294-.081,2.665-4.3h0c.369,4.219,2.664,4.3,2.664,4.3Z" transform="translate(-428.524 -197.221)"/>
    <path id="Path_895" data-name="Path 895" class="cls-1" d="M475.569,260.042s-3.248.1-3.769,5.026h0c-.524-4.93-3.77-5.026-3.77-5.026h0s3.245-.1,3.77-5.026h0c.521,4.93,3.769,5.026,3.769,5.026Z" transform="translate(-400.174 -223.175)"/>
    <path id="Path_896" data-name="Path 896" class="cls-2" d="M1062.815,543.388v0a.743.743,0,0,0-.254-.677q-.47-.329-.94-.645t-.961-.616c-.322-.2-.638-.393-.964-.578s-.656-.363-.984-.532a20.409,20.409,0,0,0-1.888-.863,6.209,6.209,0,0,0-1.8-.6c-.437-.023-.625.27-.956.576-.275.258-.567.511-.856.755s-.577.479-.873.705a17.949,17.949,0,0,1-3.585,2.15.357.357,0,0,0,0,.66,17.941,17.941,0,0,1,3.585,2.15c.3.226.583.461.873.705s.581.5.856.756c.331.306.519.6.956.575a6.209,6.209,0,0,0,1.8-.6,20.409,20.409,0,0,0,1.888-.863q.491-.254.984-.532c.326-.185.642-.379.964-.578s.641-.405.961-.616.627-.426.94-.645a.743.743,0,0,0,.254-.677Zm-7.733,3.175a21.484,21.484,0,0,0-4.754-3.175,21.505,21.505,0,0,0,4.754-3.175,23.357,23.357,0,0,1,5.809,3.174h0A23.366,23.366,0,0,1,1055.082,546.563Z" transform="translate(-1000.04 -516.487)"/>
    <path id="Path_897" data-name="Path 897" class="cls-2" d="M1044.876,596.293q-.116-.563-.243-1.114c-.165-.73-.372-1.462-.593-2.161-.209-.663-.462-1.322-.726-1.944a6.365,6.365,0,0,0-.847-1.7c-.292-.325-.633-.252-1.086-.271-.758-.027-1.523-.1-2.255-.19a17.8,17.8,0,0,1-4.054-1.012.355.355,0,0,0-.465.465,17.815,17.815,0,0,1,1.012,4.054c.095.733.163,1.5.189,2.256.019.453-.053.794.271,1.086a6.368,6.368,0,0,0,1.7.847c.621.264,1.28.517,1.943.726.7.221,1.431.428,2.161.593q.551.128,1.115.243c.375.077.746.142,1.124.209a.747.747,0,0,0,.66-.3h0a.747.747,0,0,0,.3-.66C1045.018,597.039,1044.952,596.668,1044.876,596.293Zm-1.455.425a23.062,23.062,0,0,1-6.354-1.864,21.339,21.339,0,0,0-1.114-5.6,21.358,21.358,0,0,0,5.6,1.114,23.058,23.058,0,0,1,1.864,6.354h0Z" transform="translate(-989.878 -552.175)"/>
    <path id="Path_898" data-name="Path 898" class="cls-2" d="M1049.755,601.649c-.076-.274-.157-.546-.244-.812s-.14-.712-.367-.883a2.6,2.6,0,0,0-1.024-.228c-.447-.077-.9-.168-1.336-.274a.561.561,0,0,0-.629.629c.107.439.2.889.275,1.336a2.593,2.593,0,0,0,.227,1.024c.171.228.605.278.883.367s.538.168.812.243.546.141.823.208a.578.578,0,0,0,.569-.217h0a.578.578,0,0,0,.217-.569C1049.9,602.195,1049.827,601.92,1049.755,601.649Zm-1.116.286c-.363-.089-.717-.188-1.065-.3q-.1-.5-.216-.984.486.112.984.216.163.521.3,1.065Z" transform="translate(-998.3 -560.597)"/>
    <path id="Path_899" data-name="Path 899" class="cls-2" d="M989.387,538.728a7.323,7.323,0,1,0-1.585,2.37A7.3,7.3,0,0,0,989.387,538.728Zm-4.316,3.086a6.383,6.383,0,1,1,2.065-1.381A6.357,6.357,0,0,1,985.071,541.815Z" transform="translate(-946.741 -509.038)"/>
    <path id="Path_900" data-name="Path 900" class="cls-2" d="M958.017,511.314l.1-.109a18.971,18.971,0,0,0,11.981,2.009.589.589,0,0,0,.42-.388.609.609,0,0,0-.021-.571,19.923,19.923,0,0,0-4.531-4.456,18.164,18.164,0,0,0-5.363-2.6l.006-.15-.006-.15a18.163,18.163,0,0,0,5.363-2.6,19.922,19.922,0,0,0,4.531-4.456.609.609,0,0,0,.021-.571.589.589,0,0,0-.42-.388,18.972,18.972,0,0,0-11.981,2.009l-.1-.109-.109-.1a18.972,18.972,0,0,0,2.009-11.982.589.589,0,0,0-.388-.419.608.608,0,0,0-.571.021,19.92,19.92,0,0,0-4.456,4.531,18.163,18.163,0,0,0-2.6,5.362l-.15-.006-.15.006a18.165,18.165,0,0,0-2.6-5.362,19.921,19.921,0,0,0-4.457-4.531.607.607,0,0,0-.571-.021.589.589,0,0,0-.388.419,18.973,18.973,0,0,0,2.009,11.982l-.109.1-.1.109a18.973,18.973,0,0,0-11.981-2.009.589.589,0,0,0-.42.388.608.608,0,0,0,.021.571,19.922,19.922,0,0,0,4.531,4.456,18.165,18.165,0,0,0,5.362,2.6l-.006.15.006.15a18.166,18.166,0,0,0-5.362,2.6,19.923,19.923,0,0,0-4.531,4.456.608.608,0,0,0-.021.571.589.589,0,0,0,.42.388,18.972,18.972,0,0,0,11.981-2.009l.1.109.109.1A18.973,18.973,0,0,0,943.6,523.4a.589.589,0,0,0,.388.419.607.607,0,0,0,.571-.021,19.923,19.923,0,0,0,4.457-4.531,18.163,18.163,0,0,0,2.6-5.362l.15.006.15-.006a18.161,18.161,0,0,0,2.6,5.362,19.921,19.921,0,0,0,4.456,4.531.608.608,0,0,0,.571.021.588.588,0,0,0,.388-.419,18.972,18.972,0,0,0-2.009-11.982Zm6.469-2.9a19.045,19.045,0,0,1,3.4,3.323,19.03,19.03,0,0,1-4.76-.06q-.287-.04-.569-.088c-.191-.033-.382-.07-.57-.109-.377-.078-.745-.165-1.109-.264a17.729,17.729,0,0,1-2.135-.734,9.007,9.007,0,0,0,.555-.8,17.232,17.232,0,0,0,4.448.7.353.353,0,0,0,.347-.22.364.364,0,0,0-.09-.4c-.139-.132-.277-.261-.419-.388s-.291-.253-.437-.374c-.294-.244-.588-.475-.891-.7a17.1,17.1,0,0,0-1.894-1.194l.056-.234c.018-.078.027-.158.042-.238l.044-.237.028-.241A17.739,17.739,0,0,1,964.486,508.413Zm-4.547.026c.047-.128.1-.252.148-.38l.13-.386c.432.274.854.571,1.273.891s.808.655,1.2,1.017a17.1,17.1,0,0,1-3.1-.4C959.719,508.938,959.832,508.69,959.939,508.439Zm-.349-7.511a17.121,17.121,0,0,1,3.1-.4c-.393.362-.787.7-1.2,1.017s-.841.616-1.273.891l-.13-.386c-.046-.128-.1-.252-.148-.38C959.832,501.417,959.719,501.169,959.59,500.928Zm1.292-2.037c.364-.1.732-.186,1.109-.264.188-.039.379-.076.57-.109s.378-.061.569-.088a19.015,19.015,0,0,1,4.76-.06,19.045,19.045,0,0,1-3.4,3.323,17.739,17.739,0,0,1-3.949,2.251l-.028-.241-.044-.237c-.016-.079-.024-.159-.042-.237l-.056-.234a17.09,17.09,0,0,0,1.894-1.194c.3-.22.6-.451.891-.7q.22-.183.437-.374c.141-.126.28-.255.419-.388a.364.364,0,0,0,.09-.4.353.353,0,0,0-.347-.22,17.234,17.234,0,0,0-4.448.7,9.007,9.007,0,0,0-.555-.8A17.729,17.729,0,0,1,960.882,498.891Zm-5.766-6.568a19.05,19.05,0,0,1,3.323-3.4,19.009,19.009,0,0,1-.06,4.759q-.04.287-.088.569c-.033.191-.07.382-.109.57-.078.377-.166.746-.264,1.109a17.77,17.77,0,0,1-.734,2.135,8.978,8.978,0,0,0-.8-.555,17.234,17.234,0,0,0,.7-4.447.353.353,0,0,0-.219-.348.363.363,0,0,0-.4.09c-.132.139-.261.277-.388.419s-.252.29-.374.437c-.244.294-.475.588-.7.891a17.009,17.009,0,0,0-1.193,1.894l-.234-.056c-.078-.018-.158-.027-.238-.042l-.237-.044-.241-.029A17.745,17.745,0,0,1,955.116,492.323Zm1.168,1.795a17.114,17.114,0,0,1-.4,3.1c-.241-.128-.489-.242-.739-.349-.128-.046-.252-.1-.38-.148l-.386-.13c.274-.432.57-.855.891-1.273S955.922,494.511,956.284,494.118Zm-10.689,1.809c-.1-.364-.186-.732-.264-1.109-.039-.188-.076-.379-.109-.57s-.061-.378-.088-.569a19.032,19.032,0,0,1-.06-4.759,19.07,19.07,0,0,1,3.323,3.4,17.734,17.734,0,0,1,2.25,3.949l-.241.029-.237.044c-.079.015-.159.024-.238.042l-.234.056a17.045,17.045,0,0,0-1.193-1.894c-.221-.3-.451-.6-.7-.891q-.183-.22-.374-.437c-.127-.142-.255-.28-.388-.419a.363.363,0,0,0-.4-.09.353.353,0,0,0-.22.348,17.229,17.229,0,0,0,.7,4.447,8.944,8.944,0,0,0-.8.555A17.642,17.642,0,0,1,945.594,495.927Zm3.542.664-.386.13c-.128.046-.252.1-.38.148-.25.107-.5.221-.739.349a17.114,17.114,0,0,1-.4-3.1c.362.393.7.787,1.017,1.2S948.862,496.159,949.137,496.592Zm-10.11,5.1a19.041,19.041,0,0,1-3.4-3.323,19.013,19.013,0,0,1,4.759.06q.287.04.569.088c.191.033.382.07.57.109.377.078.746.165,1.109.264a17.731,17.731,0,0,1,2.135.734,9.007,9.007,0,0,0-.555.8,17.236,17.236,0,0,0-4.448-.7.352.352,0,0,0-.347.22.363.363,0,0,0,.09.4c.139.132.277.261.419.388s.29.252.437.374c.294.244.588.475.891.7a17.133,17.133,0,0,0,1.894,1.194l-.056.234c-.018.078-.027.158-.042.237L943,503.7l-.028.241A17.741,17.741,0,0,1,939.027,501.693Zm4.547-.026c-.047.128-.1.252-.148.38l-.13.386c-.432-.275-.855-.57-1.273-.891s-.807-.655-1.2-1.017a17.124,17.124,0,0,1,3.1.4C943.794,501.169,943.68,501.417,943.573,501.667Zm.349,7.512a17.107,17.107,0,0,1-3.1.4c.393-.362.787-.7,1.2-1.017s.841-.616,1.273-.891l.13.386c.046.128.1.252.148.38C943.68,508.69,943.794,508.938,943.922,509.179Zm-1.292,2.037c-.364.1-.732.186-1.109.264-.188.039-.379.076-.57.109s-.378.061-.569.088a19.027,19.027,0,0,1-4.759.06,19.041,19.041,0,0,1,3.4-3.323,17.741,17.741,0,0,1,3.949-2.251l.028.241.044.237c.016.079.024.16.042.238l.056.234a17.142,17.142,0,0,0-1.894,1.194c-.3.22-.6.451-.891.7q-.22.183-.437.374c-.141.126-.28.255-.419.388a.363.363,0,0,0-.09.4.352.352,0,0,0,.347.22,17.233,17.233,0,0,0,4.448-.7,9.007,9.007,0,0,0,.555.8A17.731,17.731,0,0,1,942.63,511.215Zm5.766,6.568a19.069,19.069,0,0,1-3.323,3.4,19.032,19.032,0,0,1,.06-4.759q.04-.287.088-.569c.033-.191.07-.382.109-.57.078-.377.165-.745.264-1.109a17.628,17.628,0,0,1,.734-2.136,8.944,8.944,0,0,0,.8.555,17.228,17.228,0,0,0-.7,4.447.353.353,0,0,0,.22.348.363.363,0,0,0,.4-.09c.132-.139.261-.277.388-.419s.252-.29.374-.437c.244-.293.474-.588.7-.891a17.056,17.056,0,0,0,1.193-1.894l.234.056c.078.018.159.027.238.042l.237.044.241.029A17.737,17.737,0,0,1,948.4,517.783Zm-1.168-1.795a17.113,17.113,0,0,1,.4-3.1c.241.128.489.242.739.349.128.046.252.1.38.148l.386.13c-.275.432-.57.855-.891,1.273S947.591,515.6,947.229,515.988Zm4.527-3.022a7.888,7.888,0,1,1,3.026-.6A7.923,7.923,0,0,1,951.756,512.966Zm4.527,3.022c-.362-.393-.7-.787-1.017-1.2s-.616-.841-.891-1.273l.386-.13c.128-.046.252-.1.38-.148.25-.107.5-.221.739-.349A17.113,17.113,0,0,1,956.284,515.988Zm1.635-1.809c.1.364.186.732.264,1.109.039.188.076.379.109.57s.061.378.088.569a19.008,19.008,0,0,1,.06,4.759,19.049,19.049,0,0,1-3.323-3.4,17.747,17.747,0,0,1-2.251-3.949l.241-.029.237-.044c.079-.015.16-.024.238-.042l.234-.056a17.02,17.02,0,0,0,1.193,1.894c.22.3.451.6.7.891q.183.22.374.437c.127.142.255.28.388.419a.364.364,0,0,0,.4.09.353.353,0,0,0,.219-.348,17.233,17.233,0,0,0-.7-4.447,8.978,8.978,0,0,0,.8-.555A17.755,17.755,0,0,1,957.918,514.179Z" transform="translate(-915.855 -478.153)"/>
    <path id="Path_901" data-name="Path 901" class="cls-2" d="M993.277,606.508c-.244-.29-.479-.577-.705-.873a17.946,17.946,0,0,1-2.15-3.585.357.357,0,0,0-.66,0,17.974,17.974,0,0,1-2.15,3.585c-.226.3-.461.583-.705.873s-.5.581-.756.856c-.306.331-.6.519-.575.956a6.2,6.2,0,0,0,.6,1.8,20.322,20.322,0,0,0,.862,1.888q.254.491.532.984c.185.326.379.642.578.964s.405.641.616.962.426.627.645.94a.742.742,0,0,0,.678.254h0a.743.743,0,0,0,.678-.254q.328-.47.645-.94t.616-.962c.2-.322.393-.638.578-.964s.363-.656.532-.984A20.452,20.452,0,0,0,994,610.12a6.2,6.2,0,0,0,.6-1.8c.023-.437-.269-.625-.575-.956C993.775,607.089,993.521,606.8,993.277,606.508Zm-3.185,7.679h0a23.365,23.365,0,0,1-3.174-5.808,21.508,21.508,0,0,0,3.175-4.754,21.487,21.487,0,0,0,3.175,4.754A23.366,23.366,0,0,1,990.092,614.187Z" transform="translate(-954.191 -562.337)"/>
    <path id="Path_902" data-name="Path 902" class="cls-2" d="M997.034,618.751c-.235.383-.488.771-.749,1.14-.179.257-.518.57-.563.883-.04.282.231.626.365.885.254.5.539.988.836,1.474a.576.576,0,0,0,.554.25h0a.577.577,0,0,0,.555-.25c.3-.486.582-.969.836-1.474.134-.26.405-.6.365-.885-.045-.314-.384-.626-.562-.883-.261-.369-.514-.757-.75-1.14a.561.561,0,0,0-.889,0Zm.988,2.1q-.254.484-.543.963h0q-.29-.479-.543-.963.279-.425.543-.848Q997.743,620.431,998.022,620.856Z" transform="translate(-961.578 -574.501)"/>
    <path id="Path_903" data-name="Path 903" class="cls-2" d="M941.148,587.9a17.8,17.8,0,0,1-4.053,1.012c-.733.095-1.5.163-2.256.19-.452.019-.794-.053-1.086.271a6.352,6.352,0,0,0-.846,1.7c-.265.622-.517,1.28-.726,1.944-.221.7-.428,1.431-.593,2.161q-.128.551-.243,1.114c-.077.375-.142.746-.209,1.124a.746.746,0,0,0,.3.66h0a.747.747,0,0,0,.66.3c.378-.067.749-.133,1.124-.209s.747-.158,1.114-.243c.73-.165,1.462-.372,2.161-.593.663-.21,1.322-.462,1.943-.726a6.362,6.362,0,0,0,1.7-.847c.325-.292.252-.633.271-1.086.027-.758.1-1.523.19-2.256a17.805,17.805,0,0,1,1.012-4.054.355.355,0,0,0-.466-.465Zm-1.995,6.951a23.057,23.057,0,0,1-6.354,1.864h0a23.048,23.048,0,0,1,1.864-6.354,21.359,21.359,0,0,0,5.6-1.114A21.344,21.344,0,0,0,939.154,594.854Z" transform="translate(-914.54 -552.175)"/>
    <path id="Path_904" data-name="Path 904" class="cls-2" d="M944.378,603.041h0a.577.577,0,0,0,.569.217c.277-.067.552-.135.823-.208s.546-.157.812-.243.713-.139.883-.367a2.594,2.594,0,0,0,.228-1.024c.077-.447.168-.9.275-1.336a.561.561,0,0,0-.629-.629c-.439.107-.889.2-1.336.274a2.6,2.6,0,0,0-1.024.228c-.228.171-.278.605-.367.883s-.168.538-.244.812-.141.546-.208.823A.577.577,0,0,0,944.378,603.041Zm1.4-2.17q.5-.1.985-.216-.112.486-.216.984c-.348.108-.7.208-1.065.3h0Q945.618,601.391,945.782,600.871Z" transform="translate(-924.022 -560.597)"/>
    <path id="Path_905" data-name="Path 905" class="cls-2" d="M912.047,547.329c.276-.258.567-.512.856-.756s.577-.479.873-.705a17.957,17.957,0,0,1,3.585-2.15.357.357,0,0,0,0-.66,17.965,17.965,0,0,1-3.585-2.15c-.3-.226-.583-.461-.873-.705s-.581-.5-.856-.755c-.331-.306-.519-.6-.956-.576a6.211,6.211,0,0,0-1.8.6,20.446,20.446,0,0,0-1.888.863q-.492.254-.984.532c-.326.185-.642.379-.964.578s-.641.405-.962.616-.627.426-.94.645a.743.743,0,0,0-.254.677v0a.743.743,0,0,0,.254.677q.47.329.94.645t.962.616c.322.2.638.393.964.578s.656.363.984.532a20.446,20.446,0,0,0,1.888.863,6.211,6.211,0,0,0,1.8.6C911.528,547.927,911.715,547.635,912.047,547.329Zm-6.823-3.941h0a23.358,23.358,0,0,1,5.809-3.174,21.5,21.5,0,0,0,4.754,3.175,21.48,21.48,0,0,0-4.754,3.175A23.367,23.367,0,0,1,905.224,543.388Z" transform="translate(-894.272 -516.487)"/>
    <path id="Path_906" data-name="Path 906" class="cls-2" d="M925.935,550.331c-.383-.235-.771-.488-1.14-.749-.258-.179-.57-.518-.884-.563-.281-.04-.626.232-.885.365-.5.254-.988.539-1.474.836a.576.576,0,0,0-.25.555h0a.577.577,0,0,0,.25.555c.486.3.969.582,1.474.836.26.134.6.406.885.365.314-.045.626-.384.884-.562.368-.261.756-.515,1.14-.75a.561.561,0,0,0,0-.889Zm-2.1.987q-.484-.253-.964-.542h0q.479-.29.964-.542.425.279.848.543Q924.256,551.04,923.831,551.319Z" transform="translate(-907.384 -523.875)"/>
    <path id="Path_907" data-name="Path 907" class="cls-2" d="M931.344,486.52q.116.563.243,1.114c.165.73.372,1.462.593,2.161.209.663.462,1.322.726,1.943a6.352,6.352,0,0,0,.846,1.7c.292.325.633.252,1.086.271.758.027,1.523.1,2.256.19a17.816,17.816,0,0,1,4.053,1.012.355.355,0,0,0,.466-.465,17.805,17.805,0,0,1-1.012-4.054c-.095-.733-.163-1.5-.19-2.256-.019-.453.054-.794-.271-1.086a6.362,6.362,0,0,0-1.7-.847c-.622-.264-1.28-.517-1.943-.726-.7-.221-1.431-.428-2.161-.593q-.551-.128-1.114-.243c-.375-.077-.746-.142-1.124-.209a.747.747,0,0,0-.66.3h0a.746.746,0,0,0-.3.66C931.2,485.774,931.268,486.145,931.344,486.52Zm1.455-.424a23.047,23.047,0,0,1,6.354,1.864,21.35,21.35,0,0,0,1.114,5.605,21.346,21.346,0,0,0-5.6-1.115A23.046,23.046,0,0,1,932.8,486.1h0Z" transform="translate(-914.54 -476.837)"/>
    <path id="Path_908" data-name="Path 908" class="cls-2" d="M944.369,499.068c.076.274.157.546.244.812s.139.713.367.883a2.6,2.6,0,0,0,1.024.228c.447.077.9.168,1.336.274a.561.561,0,0,0,.629-.629c-.107-.439-.2-.889-.275-1.336a2.6,2.6,0,0,0-.228-1.024c-.17-.228-.605-.278-.883-.367s-.538-.168-.812-.244-.546-.141-.823-.208a.578.578,0,0,0-.569.217h0a.578.578,0,0,0-.217.569C944.228,498.522,944.3,498.8,944.369,499.068Zm1.116-.286c.363.089.718.188,1.065.3q.1.5.216.984-.486-.112-.985-.216-.162-.521-.3-1.065h0Z" transform="translate(-924.022 -486.318)"/>
    <path id="Path_909" data-name="Path 909" class="cls-2" d="M986.906,466.2c.244.29.479.577.705.873a17.974,17.974,0,0,1,2.15,3.585.357.357,0,0,0,.66,0,17.946,17.946,0,0,1,2.15-3.585c.226-.3.461-.583.705-.873s.5-.581.756-.856c.306-.331.6-.519.575-.956a6.2,6.2,0,0,0-.6-1.8,20.445,20.445,0,0,0-.863-1.888q-.254-.491-.532-.983c-.185-.326-.379-.642-.578-.964s-.405-.641-.616-.962-.426-.627-.645-.94a.743.743,0,0,0-.678-.253h0a.743.743,0,0,0-.678.253q-.328.47-.645.94t-.616.962c-.2.322-.393.638-.578.964s-.363.656-.532.983a20.316,20.316,0,0,0-.862,1.888,6.2,6.2,0,0,0-.6,1.8c-.023.437.269.625.575.956C986.409,465.619,986.662,465.911,986.906,466.2Zm3.185-7.679h0a23.366,23.366,0,0,1,3.174,5.808,21.487,21.487,0,0,0-3.175,4.754,21.508,21.508,0,0,0-3.175-4.754A23.365,23.365,0,0,1,990.091,458.521Z" transform="translate(-954.191 -456.57)"/>
    <path id="Path_910" data-name="Path 910" class="cls-2" d="M997.924,479.232c.235-.383.488-.771.75-1.14.178-.258.518-.57.563-.883.04-.281-.232-.626-.365-.885-.254-.5-.539-.988-.836-1.474a.577.577,0,0,0-.555-.25h0a.576.576,0,0,0-.554.25c-.3.486-.582.969-.836,1.474-.134.26-.405.6-.365.885.045.314.384.626.563.883.261.369.514.757.749,1.14a.561.561,0,0,0,.889,0Zm-.987-2.1q.254-.483.543-.963h0q.29.479.543.963-.279.425-.543.848Q997.215,477.552,996.937,477.127Z" transform="translate(-961.578 -469.68)"/>
    <path id="Path_911" data-name="Path 911" class="cls-2" d="M1035.072,494.91a17.817,17.817,0,0,1,4.054-1.012c.733-.095,1.5-.163,2.255-.19.453-.019.794.053,1.086-.271a6.365,6.365,0,0,0,.847-1.7c.264-.622.517-1.28.726-1.943.221-.7.428-1.431.593-2.161q.128-.551.243-1.114c.076-.375.142-.746.209-1.124a.747.747,0,0,0-.3-.66h0a.747.747,0,0,0-.66-.3c-.378.067-.749.133-1.124.209s-.747.158-1.115.243c-.73.165-1.462.372-2.161.593-.663.209-1.322.462-1.943.726a6.368,6.368,0,0,0-1.7.847c-.325.292-.252.633-.271,1.086-.027.758-.095,1.523-.189,2.256a17.815,17.815,0,0,1-1.012,4.054.355.355,0,0,0,.465.465Zm1.995-6.951a23.051,23.051,0,0,1,6.354-1.864h0a23.057,23.057,0,0,1-1.864,6.354,21.346,21.346,0,0,0-5.6,1.115A21.345,21.345,0,0,0,1037.067,487.959Z" transform="translate(-989.878 -476.837)"/>
    <path id="Path_912" data-name="Path 912" class="cls-2" d="M1049.746,497.676h0a.578.578,0,0,0-.569-.217c-.277.067-.552.135-.823.208s-.546.157-.812.244-.713.139-.883.367a2.593,2.593,0,0,0-.227,1.024c-.077.447-.168.9-.275,1.336a.561.561,0,0,0,.629.629c.439-.107.889-.2,1.336-.274a2.6,2.6,0,0,0,1.024-.228c.227-.171.278-.605.367-.883s.168-.538.244-.812.141-.546.208-.823A.578.578,0,0,0,1049.746,497.676Zm-1.4,2.17q-.5.1-.984.216.112-.486.216-.984c.348-.108.7-.208,1.065-.3h0Q1048.506,499.326,1048.342,499.847Z" transform="translate(-998.3 -486.318)"/>
    <path id="Path_913" data-name="Path 913" class="cls-2" d="M1069.837,550.22c-.486-.3-.969-.582-1.474-.836-.26-.134-.6-.405-.886-.365-.314.045-.626.384-.883.563-.368.261-.757.514-1.14.749a.561.561,0,0,0,0,.889c.383.235.772.488,1.14.75.258.179.57.518.883.563.281.04.626-.232.886-.365.5-.254.988-.539,1.474-.836a.577.577,0,0,0,.25-.555h0A.577.577,0,0,0,1069.837,550.22Zm-1.315.556q-.479.29-.963.542-.425-.279-.848-.542.422-.264.848-.543.484.253.963.542Z" transform="translate(-1012.204 -523.875)"/>
  </g>
</svg>
