<svg xmlns="http://www.w3.org/2000/svg" width="151.383" height="164.541" viewBox="0 0 151.383 164.541">
  <defs>
    <style>
      .cls-1 {
        fill: #404852;
      }

      .cls-2 {
        fill: #f7b519;
      }
    </style>
  </defs>
  <g id="Unknown_3" data-name="Unknown 3" transform="translate(0)">
    <path id="Path_2059" data-name="Path 2059" class="cls-1" d="M133.716,17.045H82.308a26.344,26.344,0,0,0-7.277.505,13.475,13.475,0,0,0-9.668,12.97c-.168,6.94,0,13.913,0,20.853V71.417H21.232a18.865,18.865,0,0,0-7.31.842A13.475,13.475,0,0,0,5.5,84.69V120.2a2.931,2.931,0,0,0,5.828,0V86.172A8.422,8.422,0,0,1,14.7,78.289a10.847,10.847,0,0,1,6.165-1.145H68.025a2.964,2.964,0,0,0,3.167-2.83V32.171a8.658,8.658,0,0,1,3.537-8.388,12.262,12.262,0,0,1,6.94-1.145h52.048a2.931,2.931,0,0,0,0-5.592Z" transform="translate(12.816 40.335)"/>
    <path id="Path_2060" data-name="Path 2060" class="cls-1" d="M140.464,23.322c-1.145-7.041-2.324-14.082-3.369-21.122A3,3,0,0,0,133.389.078L113.513,5.1,110.65,5.8a2.934,2.934,0,1,0,1.55,5.66l14.755-3.739-19.707,30.05H58.366a2.965,2.965,0,0,0-2.931,2.931q0,22.6-.168,45.209v3.6H2.68a2.931,2.931,0,0,0,0,5.828H58.164a2.965,2.965,0,0,0,2.931-2.931q0-22.571.168-45.209V43.569h45.95a4.413,4.413,0,0,0,4.346-1.785c3.773-5.491,7.31-11.117,10.949-16.676l9.9-14.924,2.426,14.722a2.931,2.931,0,1,0,5.626-1.55Z" transform="translate(-0.063 0.033)"/>
    <path id="Path_2061" data-name="Path 2061" class="cls-2" d="M9.79,114.686V85.849A10.443,10.443,0,0,1,20.2,75.44H69.687V31.645A10.41,10.41,0,0,1,80.1,21H128.4v93.585Z" transform="translate(22.978 49.855)"/>
  </g>
</svg>
