<svg id="Unknown" xmlns="http://www.w3.org/2000/svg" width="128.156" height="160.253" viewBox="0 0 128.156 160.253">
  <defs>
    <style>
      .cls-1 {
        fill: #f7b519;
      }

      .cls-2 {
        fill: #404852;
      }
    </style>
  </defs>
  <path id="Path_2062" data-name="Path 2062" class="cls-1" d="M73.732.993c9.377.227,11.849,22.192,11.849,22.192H.25S.9,6.137,6.189,3.295,57.848.652,73.732.993Z" transform="translate(0.671 1.498)"/>
  <path id="Path_2063" data-name="Path 2063" class="cls-1" d="M3.921,66c5.456,5.427,9.6,5.427,25.8,4.717s51.318-.682,51.318-.682a27.875,27.875,0,0,1-17.049-9.945c-4.6-6.223-6.024-13.242-5.314-12.56H.256S-.114,61.908,3.921,66Z" transform="translate(0.665 87.462)"/>
  <g id="Group_4380" data-name="Group 4380" transform="translate(0 0)">
    <path id="Path_2064" data-name="Path 2064" class="cls-2" d="M72.851,155.984H17.839a14.208,14.208,0,0,1-7.473-1.648,12.361,12.361,0,0,1-6.024-10.542V17.317A14.691,14.691,0,0,1,5,12.487a12.219,12.219,0,0,1,11.366-8.24c11.707-.17,23.414,0,35.121,0H81.518a19.18,19.18,0,0,1,5.257.426A12.275,12.275,0,0,1,95.7,16.351V84.377a2.1,2.1,0,0,0,4.205,0V25.586a63.907,63.907,0,0,0-.313-12.645A16.6,16.6,0,0,0,88.224.666,22.391,22.391,0,0,0,81.859.012H15.935A16.452,16.452,0,0,0,1.728,9.105a24.38,24.38,0,0,0-1.7,11.366V143.879a16.566,16.566,0,0,0,7.814,13.838c4.916,3.126,10.8,2.472,16.339,2.472H72.851a2.1,2.1,0,0,0,0-4.205Z" transform="translate(0.074 0.007)"/>
    <path id="Path_2065" data-name="Path 2065" class="cls-2" d="M33.8,54.89H26.953a2.1,2.1,0,0,0,0,4.205H33.8a2.1,2.1,0,1,0,0-4.205Z" transform="translate(45.972 101.101)"/>
    <path id="Path_2066" data-name="Path 2066" class="cls-2" d="M33.227,54.89H29.363a2.074,2.074,0,0,0-1.478.625,2.1,2.1,0,0,0-.625,1.478,2.074,2.074,0,0,0,2.1,2.1h3.808a2.273,2.273,0,0,0,1.506-.6,2.245,2.245,0,0,0,.625-1.506,2.188,2.188,0,0,0-.625-1.478,2.131,2.131,0,0,0-1.506-.625Z" transform="translate(50.41 101.101)"/>
    <path id="Path_2067" data-name="Path 2067" class="cls-2" d="M2.1,12.615H97.664a2.1,2.1,0,1,0,0-4.205H2.1a2.1,2.1,0,1,0,0,4.205Z" transform="translate(0.21 15.506)"/>
    <path id="Path_2068" data-name="Path 2068" class="cls-2" d="M1.962,50.744H60.924a2.131,2.131,0,0,0,0-4.234H1.962a2.131,2.131,0,0,0,0,4.234Z" transform="translate(0.351 85.669)"/>
    <path id="Path_2069" data-name="Path 2069" class="cls-2" d="M41.042,50.864q-1.023.6-2.131,1.108a1.733,1.733,0,0,0-.568.54,1.875,1.875,0,0,0-.4.739,1.62,1.62,0,0,0,0,.824,1.392,1.392,0,0,0,.256.8l.313.426a2.615,2.615,0,0,0,.938.54h.568a1.96,1.96,0,0,0,1.051-.284q1.108-.511,2.131-1.108a1.563,1.563,0,0,0,.6-.54,1.648,1.648,0,0,0,.369-.739,1.364,1.364,0,0,0,0-.824,1.62,1.62,0,0,0-.227-.8L43.6,51.12a2.216,2.216,0,0,0-.938-.54h-.54A2.046,2.046,0,0,0,41.042,50.864Z" transform="translate(69.988 93.164)"/>
    <path id="Path_2070" data-name="Path 2070" class="cls-2" d="M45.683,47.156v.227h0c0,.341,0,.313-.2.455l-.426.938c-.313.6-.654,1.193-.995,1.79a17.545,17.545,0,0,1-1.108,1.7l-.6.852-.17.2-.313.4A2.245,2.245,0,0,0,41.25,55.2,2.131,2.131,0,0,0,44.859,56.7a32.109,32.109,0,0,0,4.859-8.155,2.1,2.1,0,0,0-3.1-2.387,2.415,2.415,0,0,0-.995,1.25Z" transform="translate(76.174 84.483)"/>
    <path id="Path_2071" data-name="Path 2071" class="cls-2" d="M84.065,64.5a30.177,30.177,0,1,0-23.67,27.336c2.643-.54,1.506-4.6-1.137-4.063A26.028,26.028,0,1,1,79.831,64.5C79.66,67.342,83.866,67.342,84.065,64.5Z" transform="translate(44.015 59.267)"/>
    <path id="Path_2072" data-name="Path 2072" class="cls-2" d="M29.31,53.375,39.142,64.6a2.1,2.1,0,0,0,2.842,0L59.2,44.907l2.444-2.842c1.79-2.017-1.193-5.03-2.842-2.842L41.585,58.916l-2.444,2.842h2.842L32.151,50.392c-1.79-2.046-4.774.938-2.984,2.984Z" transform="translate(52.907 70.847)"/>
  </g>
  <ellipse id="Ellipse_74" data-name="Ellipse 74" class="cls-1" cx="26.199" cy="26.199" rx="26.199" ry="26.199" transform="translate(25.102 45.37)"/>
  <path id="Path_2073" data-name="Path 2073" class="cls-2" d="M53.759,73.926A30.149,30.149,0,1,1,64.33,29.6c1.478,2.017,4.887,0,3.381-1.989a33.891,33.891,0,1,0-11.849,49.7c2.273-1.137.284-4.546-1.961-3.381Z" transform="translate(11.409 24.41)"/>
  <path id="Path_2074" data-name="Path 2074" class="cls-2" d="M30.014,31.553c-.426.654-.909,1.307-1.392,1.932l.313-.4A35.375,35.375,0,0,1,25.7,36.7a1.961,1.961,0,0,0,0,2.842,1.989,1.989,0,0,0,2.842,0,33.729,33.729,0,0,0,4.831-5.882,1.962,1.962,0,0,0-3.381-1.989Z" transform="translate(46.406 56.553)"/>
  <path id="Path_2075" data-name="Path 2075" class="cls-2" d="M29.308,26.451v4.461a32.28,32.28,0,0,1-1.051,4.575A1.961,1.961,0,0,0,29.621,37.9a2.017,2.017,0,0,0,2.415-1.392,34.383,34.383,0,0,0,1.307-10.059,1.961,1.961,0,0,0-1.961-1.961,1.989,1.989,0,0,0-1.961,1.961Z" transform="translate(52.113 45.118)"/>
  <path id="Path_2076" data-name="Path 2076" class="cls-2" d="M17.134,18.611V42.2a1.989,1.989,0,0,0,2.842,1.7L38.3,36.029a1.961,1.961,0,0,0,.71-2.671,2.017,2.017,0,0,0-2.7-.71L18.1,40.519,20.941,42.2V18.611a1.961,1.961,0,1,0-3.921,0Z" transform="translate(31.553 30.68)"/>
  <path id="Path_2077" data-name="Path 2077" class="cls-2" d="M10.721,28.641h7.843a1.989,1.989,0,0,0,1.989-1.961,2.018,2.018,0,0,0-1.989-1.96H10.721a1.961,1.961,0,1,0,0,3.921Z" transform="translate(16.342 45.542)"/>
  <path id="Path_2078" data-name="Path 2078" class="cls-2" d="M17.52,32.911v7.843a1.961,1.961,0,0,0,3.921,0V32.911a1.961,1.961,0,0,0-3.921,0Z" transform="translate(32.474 57.014)"/>
</svg>
