<svg id="Unknown2" xmlns="http://www.w3.org/2000/svg" width="193.44" height="145.171" viewBox="0 0 193.44 145.171">
  <defs>
    <style>
      .cls-1 {
        fill: #f7b519;
      }

      .cls-2 {
        fill: #fff;
      }

      .cls-3 {
        fill: #404852;
      }
    </style>
  </defs>
  <rect id="Rectangle_522" data-name="Rectangle 522" class="cls-1" width="154.171" height="83.664" rx="1.11" transform="translate(20.018 38.624)"/>
  <rect id="Rectangle_523" data-name="Rectangle 523" class="cls-2" width="154.171" height="83.664" rx="1.11" transform="translate(19.493 30.108)"/>
  <path id="Path_2079" data-name="Path 2079" class="cls-3" d="M156.65,90.838H15.112c-3.067,0-5.489.4-5.691-3.39-.4-7.224,0-14.57,0-21.794V34.093a115.951,115.951,0,0,1,0-19.453c.605-3.511,4.52-2.543,7.386-2.543H149.991c2.543,0,7.83-1.09,8.677,2.018a19.775,19.775,0,0,1,0,4.883V86.035c0,2.341.484,4.48-2.664,4.883s-1.776,5.166,1.332,4.762c7.709-1.049,6.256-9.727,6.256-15.336V20.412c0-5.61.646-12.592-6.982-13.238-12.108-.969-24.619,0-36.686,0H53.17c-13.641,0-27.484-.646-41.166,0C5.587,7.5,4.5,12.3,4.5,17.546V76.389c0,4.6-1.534,12.915,1.655,16.83s8.072,2.543,11.744,2.543H156.65a2.462,2.462,0,1,0,0-4.924Z" transform="translate(12.534 20.472)"/>
  <ellipse id="Ellipse_75" data-name="Ellipse 75" class="cls-1" cx="23.166" cy="23.166" rx="23.166" ry="23.166" transform="translate(72.404 49.722)"/>
  <g id="Group_4381" data-name="Group 4381" transform="translate(28.534 37.493)">
    <path id="Path_2080" data-name="Path 2080" class="cls-3" d="M38.714,57.014a20.5,20.5,0,1,1,17.6-35.556c2.381,2.058,5.892-1.413,3.511-3.471A25.426,25.426,0,0,0,21.238,50.274a25.87,25.87,0,0,0,16.144,11.22c3.067.646,4.4-4.036,1.291-4.762Z" transform="translate(24.529 -2.448)"/>
    <path id="Path_2081" data-name="Path 2081" class="cls-3" d="M33.372,22.486c-.807.444-1.614.848-2.462,1.211l.565-.242a23.811,23.811,0,0,1-5.812,1.574,2.462,2.462,0,0,0-1.7,3.027,2.543,2.543,0,0,0,1.13,1.453,2.785,2.785,0,0,0,1.9.242,24.458,24.458,0,0,0,8.839-3.027,2.462,2.462,0,0,0,.888-3.35,2.5,2.5,0,0,0-3.35-.888Z" transform="translate(43.956 29.819)"/>
    <path id="Path_2082" data-name="Path 2082" class="cls-3" d="M31.425,19.672v1.776a6.051,6.051,0,0,1,0,.888v.2a22.52,22.52,0,0,1-.726,3.269,4.418,4.418,0,0,1-.525,1.493,4.03,4.03,0,0,0,0,.4l-.283.646a28.249,28.249,0,0,1-1.614,2.825,2.462,2.462,0,0,0,.888,3.35,2.5,2.5,0,0,0,3.35-.888A25.547,25.547,0,0,0,36.55,19.672a2.462,2.462,0,1,0-4.924,0Z" transform="translate(56.316 14.754)"/>
    <path id="Path_2083" data-name="Path 2083" class="cls-3" d="M65.348,74.914H26.725l2.462,2.462a20.179,20.179,0,0,0-19.7-19.7l2.462,2.462V28.985L9.492,31.447a20.179,20.179,0,0,0,19.7-19.7l-2.462,2.462H45.451a2.462,2.462,0,1,0,0-4.924H26.725a2.543,2.543,0,0,0-2.462,2.462A14.973,14.973,0,0,1,9.492,26.523,2.5,2.5,0,0,0,7.07,28.985V60.142A2.462,2.462,0,0,0,9.492,62.6,14.933,14.933,0,0,1,24.263,77.376a2.5,2.5,0,0,0,2.462,2.462H65.348a2.462,2.462,0,1,0,0-4.924Z" transform="translate(-7.07 -9.29)"/>
    <path id="Path_2084" data-name="Path 2084" class="cls-3" d="M40.586,25.55H26.662A2.462,2.462,0,0,0,24.2,28.012a2.5,2.5,0,0,0,2.462,2.462H40.586a2.462,2.462,0,0,0,2.462-2.462A2.5,2.5,0,0,0,40.586,25.55Z" transform="translate(44.935 40.074)"/>
    <path id="Path_2085" data-name="Path 2085" class="cls-3" d="M28.852,14.214H65.175l-2.462-2.462a20.18,20.18,0,0,0,19.7,19.7l-2.462-2.462V60.142l2.462-2.462a20.179,20.179,0,0,0-19.7,19.7l2.462-2.462H45.762a2.462,2.462,0,1,0,0,4.924H65.175a2.5,2.5,0,0,0,2.462-2.462A14.973,14.973,0,0,1,82.408,62.6a2.5,2.5,0,0,0,2.462-2.462V28.985a2.5,2.5,0,0,0-2.462-2.462A15.014,15.014,0,0,1,67.637,11.752,2.5,2.5,0,0,0,65.175,9.29H28.852a2.462,2.462,0,1,0,0,4.924Z" transform="translate(51.583 -9.29)"/>
    <path id="Path_2086" data-name="Path 2086" class="cls-3" d="M21.252,14.214H38.324a2.462,2.462,0,1,0,0-4.924H21.252a2.543,2.543,0,0,0-2.462,2.462A2.5,2.5,0,0,0,21.252,14.214Z" transform="translate(28.511 -9.29)"/>
  </g>
  <path id="Path_2087" data-name="Path 2087" class="cls-1" d="M13.762,7.749C11.583,5.57,12.471,0,10.13,0S8.718,5.57,6.538,7.749C3.269,11.018,0,11.26,0,12.592s2.785,1.09,5.973,4.278c1.655,1.655,2.543,8.475,4.036,8.475s2.543-6.821,4.036-8.475c3.471-3.188,6.135-2.987,6.135-4.278s-3.148-1.574-6.417-4.843Z" transform="translate(0)"/>
  <path id="Path_2088" data-name="Path 2088" class="cls-1" d="M56.732,37.439c-2.179-2.179-1.291-7.749-3.592-7.749s-1.453,5.57-3.632,7.749c-3.269,3.269-6.538,3.552-6.538,4.843s2.785,1.09,5.973,4.278c1.655,1.7,2.583,8.475,4.036,8.475s2.5-6.78,4.036-8.475c3.188-3.188,5.973-2.946,5.973-4.278S60,40.708,56.732,37.439Z" transform="translate(130.452 90.136)"/>
</svg>
