<svg xmlns="http://www.w3.org/2000/svg" width="45.161" height="51.587" viewBox="0 0 45.161 51.587">
  <g id="Group_2122" data-name="Group 2122" transform="translate(6.151 -8.778)">
    <g id="Group_2121" data-name="Group 2121" transform="translate(6.991 9.588)">
      <path id="Path_851" data-name="Path 851" d="M450.753,252.491s-.618,4.191.005,5.384c1.894,3.622,5.812,9.5,5.812,13.153a7.983,7.983,0,1,1-15.967,0c0-3.658,3.924-9.533,5.818-13.156.623-1.193,0-5.381,0-5.381" transform="translate(-439.25 -228.735)" fill="none" stroke="#523106" stroke-miterlimit="10" stroke-width="1"/>
      <path id="Path_852" data-name="Path 852" d="M455.2,283.711a3.185,3.185,0,1,1-3.185-3.185A3.185,3.185,0,0,1,455.2,283.711Z" transform="translate(-442.514 -239.856)" fill="none" stroke="#523106" stroke-miterlimit="10" stroke-width="1"/>
      <path id="Path_853" data-name="Path 853" d="M457.034,227.994a9.337,9.337,0,0,1-18.674,0c0-4.454,2.617-6.023,3.928-9.208a8.769,8.769,0,0,0,.052-5.672,68.528,68.528,0,0,1,7.219,2.947C455.681,219.168,457.034,222.837,457.034,227.994Z" transform="translate(-438.36 -213.114)" fill="none" stroke="#523106" stroke-miterlimit="10" stroke-width="1"/>
      <path id="Path_854" data-name="Path 854" d="M442.656,226.269v5.015a1.316,1.316,0,0,0,2.633,0v-1.439a1.338,1.338,0,1,1,2.677,0V234.7a1.316,1.316,0,0,0,2.633,0v-7.469a1.338,1.338,0,1,1,2.677,0v5.589a1.317,1.317,0,0,0,2.633,0v-1.211a1.338,1.338,0,1,1,2.676,0v3.148" transform="translate(-440.064 -218.183)" fill="none" stroke="#523106" stroke-miterlimit="10" stroke-width="1"/>
    </g>
    <g id="Group_2147" data-name="Group 2147" transform="translate(-984.311 -630.501)">
      <g id="Group_2122-2" data-name="Group 2122" transform="translate(978.66 641.501)">
        <path id="Path_848" data-name="Path 848" d="M431.113,224.906s-1,.045-1.163,2.338h0c-.162-2.293-1.162-2.338-1.162-2.338h0s1-.045,1.162-2.338h0c.161,2.293,1.163,2.338,1.163,2.338Z" transform="translate(-427.812 -207.276)" stroke="#523106" stroke-linecap="round" stroke-linejoin="round" stroke-width="1"/>
        <path id="Path_849" data-name="Path 849" d="M435.288,261.354s-1,.045-1.163,2.338h0c-.162-2.293-1.163-2.338-1.163-2.338h0s1-.045,1.163-2.338h0c.161,2.293,1.163,2.338,1.163,2.338Z" transform="translate(-429.965 -221.735)" stroke="#523106" stroke-linecap="round" stroke-linejoin="round" stroke-width="1"/>
        <path id="Path_855" data-name="Path 855" d="M464.634,204.7s-1.842.083-2.138,4.3h0c-.3-4.219-2.14-4.3-2.14-4.3h0s1.842-.083,2.14-4.3h0c.3,4.219,2.138,4.3,2.138,4.3Z" transform="translate(-424.868 -198.482)" stroke="#523106" stroke-linecap="round" stroke-linejoin="round" stroke-width="1"/>
        <path id="Path_856" data-name="Path 856" d="M431.049,247.172s-1.842.082-2.139,4.3h0c-.3-4.219-2.139-4.3-2.139-4.3h0s1.841-.082,2.139-4.3h0c.3,4.219,2.139,4.3,2.139,4.3Z" transform="translate(-426.772 -215.33)" stroke="#523106" stroke-linecap="round" stroke-linejoin="round" stroke-width="1"/>
        <path id="Path_857" data-name="Path 857" d="M435.466,201.523s-1.842.083-2.138,4.3h0c-.3-4.218-2.139-4.3-2.139-4.3h0s1.841-.081,2.139-4.3h0c.3,4.219,2.138,4.3,2.138,4.3Z" transform="translate(-429.05 -197.221)" stroke="#523106" stroke-linecap="round" stroke-linejoin="round" stroke-width="1"/>
        <path id="Path_895" data-name="Path 895" d="M474.081,260.042s-2.607.1-3.025,5.026h0c-.421-4.93-3.026-5.026-3.026-5.026h0s2.6-.1,3.026-5.026h0c.418,4.93,3.025,5.026,3.025,5.026Z" transform="translate(-429.919 -223.175)" stroke="#523106" stroke-linecap="round" stroke-linejoin="round" stroke-width="1"/>
      </g>
    </g>
  </g>
</svg>
