<svg width="46" height="46" viewBox="0 0 46 46" fill="none" xmlns="http://www.w3.org/2000/svg">
<path d="M23.3602 44.36C35.2785 44.36 44.9402 34.6982 44.9402 22.7799C44.9402 10.8616 35.2785 1.19995 23.3602 1.19995C11.4419 1.19995 1.78027 10.8616 1.78027 22.7799C1.78027 34.6982 11.4419 44.36 23.3602 44.36Z" stroke="#3F250E" stroke-width="2"/>
<path d="M31.3604 31.78V29.78C31.3604 28.7192 30.9389 27.7018 30.1888 26.9516C29.4386 26.2015 28.4212 25.78 27.3604 25.78H19.3604C18.2995 25.78 17.282 26.2015 16.5318 26.9516C15.7817 27.7018 15.3604 28.7192 15.3604 29.78V31.78" stroke="#3F250E" stroke-width="2" stroke-linecap="round" stroke-linejoin="round"/>
<path d="M23.3604 21.78C25.5695 21.78 27.3604 19.9892 27.3604 17.78C27.3604 15.5709 25.5695 13.78 23.3604 13.78C21.1512 13.78 19.3604 15.5709 19.3604 17.78C19.3604 19.9892 21.1512 21.78 23.3604 21.78Z" stroke="#3F250E" stroke-width="2" stroke-linecap="round" stroke-linejoin="round"/>
</svg>
