<svg xmlns="http://www.w3.org/2000/svg" width="21.298" height="21.003" viewBox="0 0 21.298 21.003">
  <g id="Group_4995" data-name="Group 4995" transform="translate(1 1)">
    <g id="Group_4609" data-name="Group 4609" transform="translate(0)">
      <path id="path" d="M.5,5.9V1.849A1.284,1.284,0,0,1,1.87.5h4.11" transform="translate(-0.5 -0.5)" fill="none" stroke="#757575" stroke-linecap="round" stroke-miterlimit="10" stroke-width="2"/>
      <path id="path-2" data-name="path" d="M14.5.5h4.11a1.284,1.284,0,0,1,1.37,1.349V5.9" transform="translate(-0.681 -0.5)" fill="none" stroke="#757575" stroke-linecap="round" stroke-miterlimit="10" stroke-width="2"/>
      <path id="path-3" data-name="path" d="M19.979,14.5v4.047A1.284,1.284,0,0,1,18.61,19.9H14.5" transform="translate(-0.681 -0.893)" fill="none" stroke="#757575" stroke-linecap="round" stroke-miterlimit="10" stroke-width="2"/>
      <path id="path-4" data-name="path" d="M5.979,19.9H1.87A1.284,1.284,0,0,1,.5,18.547V14.5" transform="translate(-0.5 -0.893)" fill="none" stroke="#757575" stroke-linecap="round" stroke-miterlimit="10" stroke-width="2"/>
    </g>
    <g id="Group_4608" data-name="Group 4608" transform="translate(5.856 5.766)">
      <line id="line" x2="7.587" transform="translate(0 3.736)" fill="none" stroke="#757575" stroke-linecap="round" stroke-miterlimit="10" stroke-width="2"/>
      <line id="line-2" data-name="line" y2="7.471" transform="translate(3.695)" fill="none" stroke="#757575" stroke-linecap="round" stroke-miterlimit="10" stroke-width="2"/>
    </g>
  </g>
</svg>
