<svg xmlns="http://www.w3.org/2000/svg" width="52.395" height="67.335" viewBox="0 0 52.395 67.335">
  <defs>
    <style>
      .cls-1 {
        fill: rgba(0,0,0,0);
        stroke: #000;
        opacity: 0.7;
        mix-blend-mode: multiply;
        isolation: isolate;
      }

      .cls-1, .cls-2 {
        stroke-miterlimit: 10;
        stroke-width: 0.75px;
      }

      .cls-2 {
        fill: none;
        stroke: #3e2510;
      }

      .cls-3 {
        stroke: #523106;
        stroke-linecap: round;
        stroke-linejoin: round;
      }
    </style>
  </defs>
  <g id="Component_251_1" data-name="Component 251 – 1" transform="translate(0.5 0.378)">
    <path id="Path_858" data-name="Path 858" class="cls-1" d="M53.241,396.761c0-1.195-3.665-2.224-8.936-2.689-.363-1.274-.715-2.464-.859-2.816-.351-.848,1.192-5.1,1.4-5.744s-2.321-8.9-2.581-9.068c-.242-.161.35-5.379.438-5.6l1.22-3.065a.863.863,0,0,0,.057-.4l-.277-2.861a.858.858,0,0,0-.91-.774l-.1.006q-.245-1.313-.491-2.626a4.263,4.263,0,0,0-.147-.566c-.075-.222-.163-.44-.258-.653a17.258,17.258,0,0,1-.836-1.923c-.021-.071-.041-.138-.058-.205a2.017,2.017,0,0,1-.047-.211c-.013-.072-.024-.143-.034-.217a2.779,2.779,0,0,1,.1-1c.082-.333.2-.671.289-.987.041-.135.078-.266.109-.391.02-.082.039-.165.06-.248.031-.128.066-.258.1-.4a7.876,7.876,0,0,1,.261-.795,4.555,4.555,0,0,1,.322-.671,2.885,2.885,0,0,1,1.1-1.1l.276-3.824a2.855,2.855,0,0,0-.451-.529c-.979-.858-2.356-.936-3.6-1.217a6.985,6.985,0,0,1-.722-.2.857.857,0,0,1-.246-.131l-.894-.689a.812.812,0,0,0,.1-.128,7.172,7.172,0,0,0,1-3.528c.011-.175.017-.353.021-.537.009-.205.013-.415.016-.631a.856.856,0,0,0-.083-.363,2.82,2.82,0,0,0,.045-.578,2.645,2.645,0,0,0-.3-.932,3.219,3.219,0,0,0-.363-.491c-.092-.107-.192-.21-.3-.31-.043-.042-.09-.079-.135-.119-.062-.056-.123-.112-.188-.164s-.121-.091-.182-.136-.1-.076-.153-.11c-.069-.047-.137-.087-.206-.128-.033-.019-.066-.043-.1-.061l0,0c-.031-.017-.062-.039-.093-.055A3.479,3.479,0,0,0,34.5,336.6c-.055.009-.11.019-.163.03s-.1.02-.156.033a3.268,3.268,0,0,0-1.739,1.043,4.62,4.62,0,0,1-.465.42l0,0c-.1.082-.2.163-.3.247l-.125.1c-.04.035-.08.07-.119.107s-.078.072-.115.11a2.415,2.415,0,0,0-.208.235,1.54,1.54,0,0,0-.293.612,2.574,2.574,0,0,0,0,.875,4.17,4.17,0,0,0,.59,1.654,3.443,3.443,0,0,0,1.417,1.051c-.122-.167-.233-.341-.34-.518.106.177.219.351.341.517a.342.342,0,0,0,.139,0,3.72,3.72,0,0,0,.215.474,3.612,3.612,0,0,0,.565.765c.016.017.042.035.06.052a4.286,4.286,0,0,1-.01,1.269.958.958,0,0,1-.066.18,1.1,1.1,0,0,1-.1.177.026.026,0,0,0,0,.009,3.7,3.7,0,0,1-1.37.995q-.579.282-1.159.56a.93.93,0,0,1-.084.055c-.031.018-.077.042-.134.074a8.386,8.386,0,0,0-1.638,1.087,8.521,8.521,0,0,0,.049,1.488c.014.182.03.369.044.551.024.282.049.554.071.788.058.617.411.588.757.649a.841.841,0,0,1,.345.127,4.9,4.9,0,0,1,.8.687c.061.065.121.133.175.2a4.892,4.892,0,0,1,.676,3.444,10.412,10.412,0,0,1-1.375,2.878c-.085.091-.172.181-.263.265.072-.069.149-.134.223-.2-.307.492-.542.836-.542.836a.868.868,0,0,0-.13.273l-.8,2.876a.855.855,0,0,0-.021.1c0,.008,0,.015,0,.023l-.34-.015c-.54-.03-.726.333-1.253.989-.22.276-.175.311-.34,2.6-.024.327-.01.259,1.293,2.733.412.781-.415,1.208-.7,1.408-.437.3-.358.513-.537,2.992a.865.865,0,0,0,.879.925c.488.036.59.3,1.567,1.533.413.522.14.816-.858,3.111-.139.319-.079.384.274,2.169.119.6.659.675,1.07.793a.861.861,0,0,1,.574,1.107l-.584,1.689a21.377,21.377,0,0,0-.246,2.994.859.859,0,0,0,.245.666l.874.885c.439.445.323.618-.813,3.825-4.562.511-7.634,1.466-7.634,2.559,0,1.632,6.835,2.956,15.267,2.956q8.127,0,0,0c-8.433,0-15.267-1.324-15.267-2.957v2.825c0,1.633,6.834,2.957,15.267,2.957s15.267-1.324,15.267-2.957v-2.825Zm-21.6-56.718Zm.238,1.264a5.493,5.493,0,0,1-.14-.539A5.493,5.493,0,0,0,31.882,341.308Zm-.167-.686a4.982,4.982,0,0,1-.065-.509A4.982,4.982,0,0,0,31.715,340.622Zm.43,1.365c.083.182.177.36.278.534C32.322,342.346,32.228,342.168,32.145,341.986Zm-.225-.568c.057.165.12.33.192.491C32.04,341.748,31.976,341.583,31.92,341.418Z" transform="translate(-13.786 -335.961)"/>
    <path id="Path_862" data-name="Path 862" class="cls-1" d="M31.612,385.13c1.191.065,4.426.1,4.559.317s6.938-.207,9.341-.362a.858.858,0,0,1,.91.775l.277,2.861a.863.863,0,0,1-.057.4l-1.22,3.065c-.089.223-.681,5.441-.438,5.6.259.172,2.792,8.425,2.581,9.068s-1.754,4.9-1.4,5.744c.263.637,1.209,4.039,1.663,5.693a.859.859,0,0,1-.674,1.073l-4.256.778a.864.864,0,0,1-.325,0l-7.437-1.5-1.983-.4a.86.86,0,0,1-.644-1.125c1.643-4.734,1.866-4.886,1.365-5.4l-.874-.886a.859.859,0,0,1-.245-.666A21.377,21.377,0,0,1,33,407.176l.583-1.689A.859.859,0,0,0,33,404.38c-.411-.119-.951-.191-1.07-.794-.354-1.785-.413-1.849-.274-2.169,1-2.295,1.271-2.589.858-3.111-.977-1.237-1.079-1.5-1.567-1.533a.865.865,0,0,1-.879-.925c.179-2.479.1-2.689.537-2.992.288-.2,1.115-.627.7-1.408-1.3-2.474-1.317-2.406-1.293-2.733.165-2.285.119-2.32.34-2.6C30.886,385.463,31.072,385.1,31.612,385.13Z" transform="translate(-17.088 -357.893)"/>
    <path id="Path_863" data-name="Path 863" class="cls-2" d="M31.1,391.082c.895.271,11.865,1.893,15.064.173-1.057,2.473-13.554,1.74-14.189,1.886S31.1,391.082,31.1,391.082Z" transform="translate(-17.581 -360.604)"/>
    <path id="Path_864" data-name="Path 864" class="cls-2" d="M31.743,399.294s10.849-.423,13.933-1.737c-2.708,2.879-14.093,3.955-14.093,3.955Z" transform="translate(-17.797 -363.53)"/>
    <path id="Path_865" data-name="Path 865" class="cls-2" d="M34.635,413s8.5-.483,11.9-3.092c-.109,1.859-11.967,4.734-11.967,4.734Z" transform="translate(-19.147 -369.112)"/>
    <path id="Path_866" data-name="Path 866" class="cls-2" d="M37.164,420.594c.328.024,7.465-2.2,10.325-6.5-.541,4.792-10.444,10.737-10.444,10.737Z" transform="translate(-20.265 -371.003)"/>
    <path id="Path_867" data-name="Path 867" class="cls-2" d="M37.547,430.237s8.7-4.749,10.84-13.049c1.41,1.748-8.455,16.239-8.455,16.239Z" transform="translate(-20.492 -372.401)"/>
    <path id="Path_868" data-name="Path 868" class="cls-2" d="M53.437,424.8l-6.962,10.877,4,.948S52.724,428.6,53.437,424.8Z" transform="translate(-24.526 -375.84)"/>
    <path id="Path_870" data-name="Path 870" class="cls-2" d="M47.415,372.616a29.444,29.444,0,0,0-2.383-2.466,3.883,3.883,0,0,0-3.13-.844,9.852,9.852,0,0,0-4.546,1.488,9.6,9.6,0,0,0-1.109.809c-.132.112-.26.228-.385.346a5.418,5.418,0,0,0,1.638-3.142,4.892,4.892,0,0,0-.676-3.444c-.049-.075-.1-.149-.154-.22.819-.486,1.594.2,2.5.1.509-.057.993-.249,1.494-.355A5.9,5.9,0,0,1,43,364.6a5.068,5.068,0,0,1,.7.357,4,4,0,0,0,3.721-.032,4.558,4.558,0,0,0-.322.671,7.883,7.883,0,0,0-.261.795c-.038.138-.074.268-.1.4-.021.083-.04.166-.06.248-.031.124-.068.255-.109.391-.094.316-.207.653-.289.987a2.775,2.775,0,0,0-.1,1c.01.073.021.145.034.217s.027.139.047.211.037.134.058.205a17.264,17.264,0,0,0,.836,1.923C47.252,372.176,47.341,372.394,47.415,372.616Z" transform="translate(-19.73 -348.61)"/>
    <path id="Path_871" data-name="Path 871" class="cls-2" d="M47.4,350.443a4.457,4.457,0,0,1-2.429,1.433c-1.777.382-2.354-.489-3.251-1.77a.957.957,0,0,0,.066-.18,9.184,9.184,0,0,0-.021-1.871.859.859,0,0,1,.919-.795l1.707.124a.858.858,0,0,1,.795.919l-.025.343a.855.855,0,0,0,.334.742l.939.723a.854.854,0,0,0,.246.131A6.977,6.977,0,0,0,47.4,350.443Z" transform="translate(-22.377 -340.801)"/>
    <path id="Path_872" data-name="Path 872" class="cls-2" d="M45.814,342.024a7.173,7.173,0,0,1-1,3.528.86.86,0,0,1-.8.415l-.39-.028-.517-.039a3.3,3.3,0,0,1-.952-.268,4.174,4.174,0,0,1-1.25-.77,3.661,3.661,0,0,1-1.016-2.319c0-.042,0-.087,0-.13a2.646,2.646,0,0,1,.646-1.728,3.727,3.727,0,0,1,1.645-1.12c.68-.232,2.052-.985,2.6-.324l.876,1.05a.851.851,0,0,1,.2.565c0,.216-.008.426-.016.631C45.831,341.671,45.825,341.848,45.814,342.024Z" transform="translate(-21.548 -337.058)"/>
    <path id="Path_873" data-name="Path 873" class="cls-2" d="M44.927,338.334a2.645,2.645,0,0,0-.3-.932,3.245,3.245,0,0,0-.363-.491,4.8,4.8,0,0,0-1.353-1.081,3.479,3.479,0,0,0-2.126-.305c-.055.009-.11.019-.163.03s-.1.02-.156.033a3.269,3.269,0,0,0-1.739,1.043,4.618,4.618,0,0,1-.469.423,5.123,5.123,0,0,0,.842,4.994.26.26,0,0,0,.217-.038c.191-.162.291-.9.485-1.158a2.516,2.516,0,0,1,.989-.8,5.2,5.2,0,0,0,.873-.383c.386-.265.252-.717.636-.9.4-.191.793-.553,1.266-.486.613.089,1,.69,1.3,1.231C44.775,339.349,44.965,338.585,44.927,338.334Z" transform="translate(-20.662 -335.477)"/>
    <path id="Path_876" data-name="Path 876" class="cls-2" d="M47.183,347.431l1.18-.121-.3.213-.318.182Z" transform="translate(-24.846 -340.824)"/>
    <path id="Path_877" data-name="Path 877" class="cls-2" d="M33.795,404.99c.55-.042,8.455-.047,11.078-2.163-2.407,2.543-10.155,4.453-10.155,4.453Z" transform="translate(-18.796 -365.911)"/>
    <path id="Path_881" data-name="Path 881" class="cls-2" d="M37.217,340.271a4.223,4.223,0,0,1,.326-1.918c-.1.082-.2.163-.3.247l-.124.1c-.041.035-.081.07-.119.107s-.078.072-.115.11a2.466,2.466,0,0,0-.208.235,1.548,1.548,0,0,0-.293.612,2.574,2.574,0,0,0,0,.875,4.17,4.17,0,0,0,.59,1.654,3.443,3.443,0,0,0,1.417,1.051A5.848,5.848,0,0,1,37.217,340.271Z" transform="translate(-19.947 -336.776)"/>
    <path id="Path_882" data-name="Path 882" class="cls-2" d="M36.891,354.676l-2.839,1.935.173,1.426s.09.435.2,1c-.346-.061-.7-.032-.757-.649-.022-.234-.047-.506-.071-.788-.015-.182-.031-.369-.044-.551a8.519,8.519,0,0,1-.049-1.488,8.386,8.386,0,0,1,1.638-1.086c.056-.033.1-.057.134-.075a.923.923,0,0,0,.084-.055q.581-.28,1.159-.56a3.7,3.7,0,0,0,1.37-.995C37.606,353.327,36.891,354.676,36.891,354.676Z" transform="translate(-18.657 -343.302)"/>
    <path id="Path_883" data-name="Path 883" class="cls-2" d="M36.456,372.325l-.182,2.52a4.387,4.387,0,0,0-.425,3.1,4.3,4.3,0,0,0,1.3,2.161l-3.6-.746a.824.824,0,0,1,.021-.1l.8-2.877a.868.868,0,0,1,.13-.274A15.146,15.146,0,0,0,36.456,372.325Z" transform="translate(-18.687 -352.128)"/>
    <path id="Path_848" data-name="Path 848" class="cls-3" d="M431.684,224.906s-1.248.045-1.449,2.338h0c-.2-2.293-1.448-2.338-1.448-2.338h0s1.246-.045,1.448-2.338h0c.2,2.293,1.449,2.338,1.449,2.338Z" transform="translate(-427.572 -206.711)"/>
    <path id="Path_849" data-name="Path 849" class="cls-3" d="M435.86,261.354s-1.248.045-1.449,2.338h0c-.2-2.293-1.448-2.338-1.448-2.338h0s1.247-.045,1.448-2.338h0c.2,2.293,1.449,2.338,1.449,2.338Z" transform="translate(-429.228 -221.17)"/>
    <path id="Path_850" data-name="Path 850" class="cls-3" d="M475.569,260.042s-3.248.1-3.769,5.026h0c-.524-4.93-3.77-5.026-3.77-5.026h0s3.245-.1,3.77-5.026h0c.521,4.93,3.769,5.026,3.769,5.026Z" transform="translate(-424.174 -222.609)"/>
    <path id="Path_855" data-name="Path 855" class="cls-3" d="M465.687,204.7s-2.3.083-2.664,4.3h0c-.37-4.219-2.666-4.3-2.666-4.3h0s2.3-.083,2.666-4.3h0c.369,4.219,2.664,4.3,2.664,4.3Z" transform="translate(-419.86 -197.917)"/>
    <path id="Path_856" data-name="Path 856" class="cls-3" d="M432.1,247.172s-2.295.082-2.665,4.3h0c-.37-4.219-2.665-4.3-2.665-4.3h0s2.294-.082,2.665-4.3h0c.37,4.219,2.665,4.3,2.665,4.3Z" transform="translate(-426.772 -214.765)"/>
    <path id="Path_857" data-name="Path 857" class="cls-3" d="M436.518,201.523s-2.295.083-2.664,4.3h0c-.37-4.218-2.665-4.3-2.665-4.3h0s2.294-.081,2.665-4.3h0c.369,4.219,2.664,4.3,2.664,4.3Z" transform="translate(-428.524 -196.656)"/>
  </g>
</svg>
