<svg id="download_2_" data-name="download (2)" xmlns="http://www.w3.org/2000/svg" width="81.231" height="89.354" viewBox="0 0 81.231 89.354">
  <defs>
    <style>
      .cls-1 {
        fill: #f7b519;
      }

      .cls-2 {
        fill: #404852;
      }
    </style>
  </defs>
  <path id="Path_2476" data-name="Path 2476" class="cls-1" d="M29.11,10.669H19.217a2.678,2.678,0,0,0-2.707,2.646V53.841a2.677,2.677,0,0,0,2.707,2.646H29.11a2.677,2.677,0,0,0,2.707-2.646V13.315a2.677,2.677,0,0,0-2.707-2.646Z" transform="translate(17.018 10.997)"/>
  <path id="Path_2477" data-name="Path 2477" class="cls-1" d="M56.46,17.576H8.393a.359.359,0,0,0-.364.355V33.117a.36.36,0,0,0,.364.355H56.46a.36.36,0,0,0,.364-.355V17.931a.359.359,0,0,0-.364-.355Z" transform="translate(8.276 18.117)"/>
  <g id="Group_4703" data-name="Group 4703" transform="translate(0 0)">
    <path id="Path_2478" data-name="Path 2478" class="cls-2" d="M68.285,72.15C75.1,65.6,78.235,56.712,79.766,47.642A108.406,108.406,0,0,0,81.077,24.1c-.077-1.6-.163-3.207-.335-4.8a1.416,1.416,0,0,0-.428-.984,1.481,1.481,0,0,0-1.007-.419A26.292,26.292,0,0,1,70.7,16.177a75.417,75.417,0,0,1-9.74-4.236A164.007,164.007,0,0,1,44.691,2.413c-1.1-.729-2.2-1.459-3.272-2.216a1.444,1.444,0,0,0-1.454,0c-3.062,2.123-6.19,4.1-9.309,6.041a110.316,110.316,0,0,1-18.867,9.5A28.61,28.61,0,0,1,1.954,17.9a1.49,1.49,0,0,0-1,.421,1.424,1.424,0,0,0-.431.981A102.955,102.955,0,0,0,.04,32.494C.231,41.1,1.2,49.924,4.125,58.087A36.706,36.706,0,0,0,10.45,69.523c3.923,4.675,9.1,8.565,14.189,11.922a75.51,75.51,0,0,0,11.931,6.5c1.3.561,3.2,1.73,4.7,1.328a47.089,47.089,0,0,0,9.845-4.488A82.518,82.518,0,0,0,68.333,72.15c1.33-1.272-.708-3.254-2.028-1.982-7.051,6.7-15.557,12.6-24.742,16.027-.335.131-.708.224-1.033.365-.536.243.335,0,.411.056a8.893,8.893,0,0,0-2-.72,71.305,71.305,0,0,1-10.2-5.208A78.3,78.3,0,0,1,14.2,69.354a30.489,30.489,0,0,1-6.6-10.23C4.432,51.307,3.322,42.761,3,34.411A104.846,104.846,0,0,1,3.37,19.328L1.954,20.7c6.7.047,13.394-3.123,19.2-6.012A164,164,0,0,0,38.023,4.881c1.119-.739,2.248-1.487,3.349-2.263H39.917c3.119,2.2,6.353,4.236,9.625,6.209A111.554,111.554,0,0,0,69.117,18.58,30.245,30.245,0,0,0,79.345,20.7L77.91,19.3a99.588,99.588,0,0,1,.431,13.194c-.191,8.547-1.167,17.28-4.162,25.359a32.53,32.53,0,0,1-7.922,12.315,1.38,1.38,0,0,0,.035,1.948,1.459,1.459,0,0,0,1.993.034Z" transform="translate(0 0)"/>
    <path id="Path_2479" data-name="Path 2479" class="cls-2" d="M42.353,22.588V11.367a1.405,1.405,0,0,0-.426-.986,1.471,1.471,0,0,0-1.009-.416H24.6a1.471,1.471,0,0,0-1.009.416,1.4,1.4,0,0,0-.426.986V26.515l1.435-1.4H9.087a1.471,1.471,0,0,0-1.009.416,1.406,1.406,0,0,0-.426.987V42.44a1.405,1.405,0,0,0,.426.986,1.471,1.471,0,0,0,1.009.416H24.6l-1.435-1.4V57.588a1.4,1.4,0,0,0,.426.986,1.472,1.472,0,0,0,1.009.416H40.947a1.472,1.472,0,0,0,1.009-.416,1.4,1.4,0,0,0,.426-.986V42.44l-1.435,1.4h15.5a1.472,1.472,0,0,0,1.009-.416,1.4,1.4,0,0,0,.426-.986V26.487a1.4,1.4,0,0,0-.426-.986,1.472,1.472,0,0,0-1.009-.416H51.529a1.452,1.452,0,0,0-1.015.411,1.38,1.38,0,0,0,0,1.983,1.452,1.452,0,0,0,1.015.411h4.889l-1.435-1.4V42.44l1.435-1.4H40.947a1.472,1.472,0,0,0-1.009.416,1.405,1.405,0,0,0-.426.987V57.588l1.435-1.4H24.6l1.435,1.4V42.44a1.405,1.405,0,0,0-.426-.987,1.472,1.472,0,0,0-1.009-.416H9.087l1.435,1.4V26.487l-1.435,1.4H24.6a1.472,1.472,0,0,0,1.009-.416,1.405,1.405,0,0,0,.426-.987V11.339l-1.435,1.4H40.947l-1.435-1.4V22.56a1.386,1.386,0,0,0,.42.992,1.459,1.459,0,0,0,2.03,0,1.387,1.387,0,0,0,.42-.992Z" transform="translate(7.888 10.271)"/>
    <path id="Path_2480" data-name="Path 2480" class="cls-2" d="M36.257,19.579H24.776l1.435,1.4V16.708a1.387,1.387,0,0,0-.42-.992,1.459,1.459,0,0,0-2.03,0,1.387,1.387,0,0,0-.42.992v4.273a1.406,1.406,0,0,0,.426.986,1.47,1.47,0,0,0,1.009.416H36.257a1.451,1.451,0,0,0,1.015-.411,1.38,1.38,0,0,0,0-1.983,1.452,1.452,0,0,0-1.015-.411Z" transform="translate(24.059 15.776)"/>
  </g>
</svg>
