<svg width="46" height="46" viewBox="0 0 46 46" fill="none" xmlns="http://www.w3.org/2000/svg">
<path d="M23.1904 44.5399C35.1087 44.5399 44.7703 34.8782 44.7703 22.9599C44.7703 11.0416 35.1087 1.37988 23.1904 1.37988C11.272 1.37988 1.61035 11.0416 1.61035 22.9599C1.61035 34.8782 11.272 44.5399 23.1904 44.5399Z" stroke="#3F250E" stroke-width="2"/>
<path d="M18.7105 13.9998C15.2505 16.2298 13.2105 20.9198 14.6405 24.7898C15.0817 26.0871 15.6974 27.3184 16.4705 28.4498C16.8805 29.0698 17.2805 29.4498 17.6905 30.0798C18.0423 30.3464 18.3331 30.685 18.5435 31.073C18.7539 31.461 18.8791 31.8895 18.9105 32.3298C18.9166 32.4863 18.9564 32.6397 19.0272 32.7795C19.0979 32.9193 19.198 33.0422 19.3205 33.1398C19.1552 33.2913 19.0456 33.4939 19.0094 33.7152C18.9731 33.9364 19.0122 34.1635 19.1205 34.3598C18.5105 35.1798 18.7105 35.5898 19.5305 35.9998C18.5305 37.4198 20.5305 37.6198 22.3805 37.6198C22.3805 38.0398 22.5805 38.2398 22.5805 38.6198C22.7805 39.0298 23.4005 39.0298 23.8105 39.0298C24.2371 39.0208 24.6513 38.885 25.0005 38.6398C25.1853 38.5466 25.3404 38.4035 25.4481 38.2268C25.5559 38.0501 25.6122 37.8468 25.6105 37.6398C26.6105 37.6398 28.2605 37.6398 28.8705 37.0398C29.2805 36.6198 29.0705 36.2198 28.6705 35.8098C29.2805 35.6098 29.4805 35.1998 29.0705 34.3798C29.2805 34.1798 29.0705 33.5698 28.6705 33.1598C28.6963 33.1612 28.7221 33.1572 28.7463 33.1483C28.7705 33.1394 28.7926 33.1256 28.8114 33.1078C28.8301 33.09 28.845 33.0686 28.8551 33.0449C28.8653 33.0212 28.8705 32.9956 28.8705 32.9698C29.2805 32.3498 29.0705 31.7498 29.2805 31.3398C29.5299 30.6343 29.8658 29.9626 30.2805 29.3398C31.0878 28.439 31.836 27.487 32.5205 26.4898C33.3377 24.6449 33.5989 22.6016 33.272 20.6104C32.9452 18.6193 32.0446 16.7667 30.6805 15.2798C29.1257 13.7269 27.0824 12.7584 24.896 12.5379C22.7095 12.3174 20.5141 12.8585 18.6805 14.0698L18.7105 13.9998ZM23.1905 21.1198C23.1733 20.8798 23.2487 20.6424 23.4012 20.4564C23.5538 20.2703 23.7718 20.1499 24.0105 20.1198C24.1175 20.173 24.213 20.2467 24.2916 20.3368C24.3701 20.4269 24.4301 20.5316 24.4682 20.6449C24.5063 20.7582 24.5217 20.8778 24.5135 20.9971C24.5053 21.1163 24.4737 21.2328 24.4205 21.3398C24.3962 21.8744 24.1795 22.3822 23.8105 22.7698C23.4005 22.1598 22.9905 21.7698 23.1905 21.1398V21.1198ZM23.8105 23.5698C24.2345 24.0327 24.8155 24.3214 25.4405 24.3798C24.6205 27.0298 24.8205 30.2898 25.0305 32.9398H22.7905C22.8274 30.0744 22.6233 27.211 22.1805 24.3798C22.7398 24.1502 23.2812 23.8794 23.8005 23.5698H23.8105ZM24.0005 33.9998C25.2205 33.9998 26.2405 33.7898 27.4605 33.7898C27.7437 33.7984 28.0238 33.7292 28.2705 33.5898C28.8905 34.3998 26.8505 34.3998 26.4405 34.5898C25.6875 34.6352 24.932 34.5643 24.2005 34.3798H22.0005C21.5905 34.3798 19.1505 33.9798 20.0005 33.5698H20.2005C21.4545 33.8089 22.7248 33.9526 24.0005 33.9998ZM28.0705 35.6298H22.0005C21.8005 35.6298 19.3505 35.6298 19.7605 34.8198C20.7605 35.4298 22.6105 35.2198 23.4205 35.2198C25.0526 35.3486 26.6943 35.2815 28.3105 35.0198C28.2322 35.0991 28.1735 35.1954 28.1388 35.3013C28.104 35.4071 28.0944 35.5196 28.1105 35.6298H28.0705ZM24.6105 38.2798H23.1905V37.6598H24.8205C24.8352 37.7715 24.8249 37.8851 24.7903 37.9923C24.7557 38.0995 24.6977 38.1977 24.6205 38.2798H24.6105ZM28.0705 36.2798C27.949 36.4896 27.7687 36.6592 27.5519 36.7676C27.3351 36.876 27.0912 36.9185 26.8505 36.8898H25.8505C25.2405 36.8898 24.6305 37.0998 24.0205 37.0998C23.6105 37.0998 19.3305 37.0998 20.1405 36.2798C21.3577 36.4311 22.584 36.498 23.8105 36.4798C25.2378 36.4613 26.6631 36.3679 28.0805 36.1998L28.0705 36.2798ZM32.1505 23.8498C32.0367 24.9909 31.615 26.0797 30.9305 26.9998C30.2078 27.7997 29.5926 28.6906 29.1005 29.6498C28.7109 30.0497 28.4289 30.5416 28.2805 31.0798C28.0805 31.6898 28.4805 32.2998 27.4705 32.7098C26.8781 32.8891 26.2576 32.957 25.6405 32.9098C25.3631 30.1219 25.4979 27.3084 26.0405 24.5598C27.4705 24.7598 29.5005 24.1498 29.1005 22.5598C28.7005 20.3198 26.4505 21.9498 25.8405 23.1698C25.8405 23.3698 25.6405 23.5798 25.6405 23.7798C25.4405 23.5798 25.0205 23.5798 24.8205 23.3698C24.7105 23.2586 24.5659 23.188 24.4105 23.1698C25.4105 22.1698 25.8405 20.9298 24.8205 19.9098C24.0105 18.9098 22.8205 19.4998 22.3705 20.7198C22.3548 21.1756 22.4357 21.6296 22.6081 22.0519C22.7804 22.4742 23.0403 22.8552 23.3705 23.1698C22.9605 23.3698 22.3705 23.5798 21.9405 23.7798C21.5305 21.9398 20.5105 20.7198 19.0905 21.5398C18.9308 21.643 18.7933 21.7769 18.686 21.9338C18.5788 22.0908 18.5038 22.2675 18.4657 22.4537C18.4275 22.6399 18.4268 22.8319 18.4637 23.0184C18.5006 23.2049 18.5743 23.3821 18.6805 23.5398C18.7385 23.6297 18.8055 23.7135 18.8805 23.7898C19.5005 24.6098 20.5105 24.6098 21.5305 24.6098C21.702 25.8218 21.7689 27.0463 21.7305 28.2698C21.9305 29.8998 21.9305 31.3298 22.1405 32.9598C21.5305 32.9598 21.1405 32.7498 20.7105 32.7498C20.1005 32.5498 19.9005 32.5498 19.7105 31.9398C19.5105 31.5298 19.5105 30.9398 19.3105 30.5098C18.6905 29.2898 17.6805 28.6798 16.8605 27.4498C16.0766 26.2785 15.5234 24.9684 15.2305 23.5898C14.6205 21.5898 15.4305 19.3098 16.4505 17.4698C17.2901 16.284 18.3858 15.3025 19.6565 14.5979C20.9271 13.8934 22.34 13.4839 23.7905 13.3998C25.1963 13.2875 26.6059 13.5639 27.8652 14.1988C29.1245 14.8337 30.1849 15.8027 30.9305 16.9998C31.6166 17.9627 32.0824 19.0647 32.295 20.2278C32.5076 21.3909 32.4616 22.5865 32.1605 23.7298L32.1505 23.8498ZM26.2405 24.0498C26.2935 24.0498 26.3444 24.0287 26.3819 23.9912C26.4194 23.9537 26.4405 23.9028 26.4405 23.8498C26.6328 23.331 26.9099 22.8478 27.2605 22.4198C28.4805 22.0198 28.6805 22.4198 27.8705 23.6498C27.3995 23.9893 26.8151 24.1327 26.2405 24.0498ZM21.3505 23.8498H20.7405C20.3305 23.8498 18.7405 23.4398 19.1105 22.4198C19.9205 21.1998 20.9405 23.0398 21.1105 23.6498C21.1368 23.6484 21.163 23.6523 21.1878 23.6611C21.2126 23.6699 21.2354 23.6836 21.2549 23.7012C21.2744 23.7189 21.2903 23.7402 21.3015 23.764C21.3128 23.7878 21.3192 23.8135 21.3205 23.8398L21.3505 23.8498Z" fill="#3F250E"/>
<path d="M36.8499 14.6099C35.7948 14.9917 34.7716 15.4565 33.7899 15.9999C33.3799 16.4199 33.7899 17.2199 34.1999 16.8199C35.1579 16.2597 36.1615 15.7813 37.1999 15.3899C37.6599 14.9999 37.2499 14.1999 36.8499 14.6099Z" fill="#FAFAF9"/>
<path d="M29.9195 12.36C30.6426 11.4875 31.2571 10.5305 31.7495 9.51001C31.7744 9.45561 31.7882 9.39672 31.7901 9.33692C31.792 9.27712 31.7819 9.21761 31.7605 9.16171C31.7391 9.10581 31.7067 9.05481 31.6653 9.01161C31.624 8.96831 31.5744 8.93381 31.5195 8.91001C31.417 8.86051 31.2994 8.85261 31.1912 8.88811C31.0831 8.92351 30.9928 8.99951 30.9395 9.10001C30.4679 10.0255 29.9228 10.9117 29.3095 11.75C28.8995 12.16 29.7095 12.76 29.9195 12.36Z" fill="#FAFAF9"/>
<path d="M24.2094 10.3299V7.26988C24.1968 7.13618 24.1319 7.01298 24.0289 6.92688C23.926 6.84078 23.7932 6.79868 23.6595 6.80988C23.5408 6.82238 23.4298 6.87468 23.3445 6.95808C23.2592 7.04158 23.2046 7.15148 23.1895 7.26988C23.2994 8.28688 23.2994 9.31278 23.1895 10.3299C23.1895 10.9299 23.9994 10.9299 24.2094 10.3299Z" fill="#FAFAF9"/>
<path d="M17.4903 12.3699C17.9003 12.7799 18.7103 12.3699 18.3103 11.9599C17.6446 11.0099 17.0973 9.98229 16.6803 8.89989C16.4803 8.48989 15.4603 8.69989 15.6803 9.31989L17.5103 12.3199L17.4903 12.3699Z" fill="#FAFAF9"/>
<path d="M13.8199 15.9999C12.909 15.3065 11.8973 14.7568 10.8199 14.3699C10.2099 14.1699 9.99992 14.9799 10.6199 15.1899C11.572 15.6125 12.4633 16.1607 13.2699 16.8199C13.8699 17.0199 14.2699 16.2099 13.8699 15.9999H13.8199Z" fill="#FAFAF9"/>
<path d="M20.7495 15.2098C19.6269 15.6604 18.6317 16.379 17.8507 17.3029C17.0698 18.2268 16.5269 19.3278 16.2695 20.5098C16.2698 20.6057 16.3021 20.6987 16.3614 20.7742C16.4206 20.8496 16.5034 20.903 16.5965 20.926C16.6896 20.949 16.7877 20.9402 16.8752 20.901C16.9627 20.8618 17.0347 20.7945 17.0795 20.7098C17.192 19.6244 17.6248 18.597 18.3228 17.7583C19.0209 16.9196 19.9526 16.3074 20.9995 15.9998C21.0484 15.9711 21.0909 15.9328 21.1246 15.8872C21.1582 15.8417 21.1823 15.7898 21.1954 15.7346C21.2085 15.6795 21.2103 15.6223 21.2007 15.5665C21.1911 15.5107 21.1703 15.4574 21.1395 15.4098C21.0984 15.3445 21.0405 15.2915 20.9719 15.2564C20.9033 15.2212 20.8265 15.2051 20.7495 15.2098Z" fill="#FAFAF9"/>
<path d="M21.16 16.4399C20.5471 16.6438 19.9894 16.986 19.53 17.4399C19.32 17.8399 19.73 18.4399 19.93 18.0499C20.3206 17.6079 20.8107 17.2652 21.36 17.0499C21.77 17.0499 21.57 16.4399 21.16 16.4399Z" fill="#FAFAF9"/>
</svg>
