<svg id="Group_2040" data-name="Group 2040" xmlns="http://www.w3.org/2000/svg" width="186.831" height="28.719" viewBox="0 0 186.831 28.719">
  <g id="Group_105" data-name="Group 105" transform="translate(0 0)">
    <g id="Symbol_53_1" data-name="Symbol 53 – 1" transform="translate(0 0)">
      <path id="path" d="M29.115,10.278H19.029L15.984.667a.957.957,0,0,0-1.808,0l-3.14,9.61H.95A.94.94,0,0,0,.379,11.99l8.183,5.9L5.422,27.5A.93.93,0,0,0,6.85,28.547l8.183-5.9,8.183,5.9A.922.922,0,0,0,24.643,27.5L21.5,17.89l8.183-5.9A.94.94,0,0,0,29.115,10.278Z" transform="translate(0.026 -0.025)" fill="#523106"/>
    </g>
    <g id="Symbol_53_2" data-name="Symbol 53 – 2" transform="translate(39.179 0)">
      <path id="path-2" data-name="path" d="M29.115,10.278H19.029L15.984.667a.957.957,0,0,0-1.808,0l-3.14,9.61H.95A.94.94,0,0,0,.379,11.99l8.183,5.9L5.422,27.5A.93.93,0,0,0,6.85,28.547l8.183-5.9,8.183,5.9A.922.922,0,0,0,24.643,27.5L21.5,17.89l8.183-5.9A.94.94,0,0,0,29.115,10.278Z" transform="translate(0.026 -0.025)" fill="#523106"/>
    </g>
    <g id="Symbol_53_3" data-name="Symbol 53 – 3" transform="translate(78.357 0)">
      <path id="path-3" data-name="path" d="M29.115,10.278H19.029L15.984.667a.957.957,0,0,0-1.808,0l-3.14,9.61H.95A.94.94,0,0,0,.379,11.99l8.183,5.9L5.422,27.5A.93.93,0,0,0,6.85,28.547l8.183-5.9,8.183,5.9A.922.922,0,0,0,24.643,27.5L21.5,17.89l8.183-5.9A.94.94,0,0,0,29.115,10.278Z" transform="translate(0.026 -0.025)" fill="#523106"/>
    </g>
    <g id="Symbol_54_1" data-name="Symbol 54 – 1" transform="translate(156.714 0)">
      <path id="path-4" data-name="path" d="M29.115,10.278H19.029L15.984.667a.957.957,0,0,0-1.808,0l-3.14,9.61H.95A.94.94,0,0,0,.379,11.99l8.183,5.9L5.422,27.5A.93.93,0,0,0,6.85,28.547l8.183-5.9,8.183,5.9A.922.922,0,0,0,24.643,27.5L21.5,17.89l8.183-5.9A.94.94,0,0,0,29.115,10.278Z" transform="translate(0.026 -0.025)" fill="#fed12f"/>
    </g>
    <g id="Symbol_53_4" data-name="Symbol 53 – 4" transform="translate(117.536 0)">
      <path id="path-5" data-name="path" d="M29.115,10.278H19.029L15.984.667a.957.957,0,0,0-1.808,0l-3.14,9.61H.95A.94.94,0,0,0,.379,11.99l8.183,5.9L5.422,27.5A.93.93,0,0,0,6.85,28.547l8.183-5.9,8.183,5.9A.922.922,0,0,0,24.643,27.5L21.5,17.89l8.183-5.9A.94.94,0,0,0,29.115,10.278Z" transform="translate(0.026 -0.025)" fill="#523106"/>
    </g>
  </g>
</svg>
