<svg xmlns="http://www.w3.org/2000/svg" width="61" height="61" viewBox="0 0 61 61">
  <g id="Group_4416" data-name="Group 4416" transform="translate(-846 -1657)">
    <g id="Rectangle_530" data-name="Rectangle 530" transform="translate(846 1657)" fill="#3f250e" stroke="#707070" stroke-width="1">
      <rect width="61" height="61" rx="18" stroke="none"/>
      <rect x="0.5" y="0.5" width="60" height="60" rx="17.5" fill="none"/>
    </g>
    <path id="Path_2181" data-name="Path 2181" d="M44.444,163.111a19.2,19.2,0,0,0,10.394,3.046c12.591,0,19.7-10.634,19.275-20.172a13.745,13.745,0,0,0,3.382-3.511,13.524,13.524,0,0,1-3.894,1.068,6.791,6.791,0,0,0,2.981-3.752,13.6,13.6,0,0,1-4.3,1.646,6.786,6.786,0,0,0-11.556,6.186,19.245,19.245,0,0,1-13.977-7.085,6.789,6.789,0,0,0,2.1,9.054,6.759,6.759,0,0,1-3.072-.849,6.791,6.791,0,0,0,5.439,6.736,6.788,6.788,0,0,1-3.061.114,6.784,6.784,0,0,0,6.334,4.71A13.635,13.635,0,0,1,44.444,163.111Z" transform="translate(815.556 1534.704)" fill="#fdd043"/>
  </g>
</svg>
