<svg width="47" height="46" viewBox="0 0 47 46" fill="none" xmlns="http://www.w3.org/2000/svg">
<path d="M23.5195 44.36C35.4378 44.36 45.0995 34.6982 45.0995 22.7799C45.0995 10.8616 35.4378 1.19995 23.5195 1.19995C11.6012 1.19995 1.93945 10.8616 1.93945 22.7799C1.93945 34.6982 11.6012 44.36 23.5195 44.36Z" stroke="#3F250E" stroke-width="2"/>
<path fill-rule="evenodd" clip-rule="evenodd" d="M21.5504 20L21.3804 16.51C24.536 16.8288 27.4988 18.1784 29.8104 20.35L21.5504 20ZM9.67041 27C9.32041 26.93 8.96041 26.87 8.61041 26.78C7.68041 26.56 7.32031 26.6 7.07031 25.58C6.74031 24.24 6.99041 21.91 8.86041 21.08C15.1504 18.33 20.4204 11.87 30.4104 20.08L31.5404 20.47C33.9591 20.4972 36.3446 21.0356 38.5404 22.0501C38.9512 22.3415 39.2368 22.7772 39.3403 23.27C39.6852 23.6792 39.9144 24.1731 40.004 24.7006C40.0937 25.2281 40.0406 25.7699 39.8503 26.27C39.6703 26.8 39.4704 26.9601 39.1604 26.9801L37.0004 27C37.3404 20.71 28.6004 21.59 30.0004 27.31L16.8604 27.2C17.0278 26.7885 17.0831 26.3399 17.0204 25.9C16.9289 24.928 16.455 24.0322 15.703 23.4095C14.951 22.7869 13.9824 22.4885 13.0104 22.58C12.0384 22.6715 11.1425 23.1454 10.5199 23.8975C9.89731 24.6495 9.59881 25.618 9.69031 26.59L9.75041 26.9801L9.67041 27Z" fill="#3F250E"/>
<path fill-rule="evenodd" clip-rule="evenodd" d="M13.2496 23.4501C13.7916 23.4501 14.3213 23.6108 14.7719 23.9119C15.2224 24.213 15.5736 24.6409 15.781 25.1416C15.9884 25.6422 16.0427 26.1932 15.937 26.7247C15.8313 27.2562 15.5703 27.7444 15.1871 28.1276C14.8039 28.5108 14.3157 28.7717 13.7842 28.8775C13.2527 28.9832 12.7017 28.9289 12.201 28.7215C11.7004 28.5142 11.2725 28.163 10.9714 27.7124C10.6704 27.2618 10.5096 26.732 10.5096 26.1901C10.5096 25.4634 10.7983 24.7665 11.3121 24.2526C11.826 23.7388 12.5229 23.4501 13.2496 23.4501ZM13.2496 22.8701C13.9063 22.8701 14.5481 23.0648 15.0941 23.4296C15.6401 23.7944 16.0656 24.313 16.3169 24.9196C16.5682 25.5263 16.634 26.1938 16.5059 26.8378C16.3778 27.4818 16.0615 28.0734 15.5972 28.5377C15.1329 29.002 14.5414 29.3182 13.8973 29.4463C13.2533 29.5744 12.5858 29.5087 11.9791 29.2574C11.3725 29.0061 10.8539 28.5806 10.4891 28.0346C10.1243 27.4886 9.92969 26.8468 9.92969 26.1901C9.92969 25.3096 10.2795 24.4651 10.9021 23.8425C11.5247 23.2199 12.3691 22.8701 13.2496 22.8701Z" fill="#3F250E"/>
<path fill-rule="evenodd" clip-rule="evenodd" d="M33.3297 23.4902C33.8716 23.4902 34.4015 23.6509 34.8521 23.9519C35.3026 24.253 35.6538 24.6809 35.8612 25.1816C36.0686 25.6823 36.1228 26.2332 36.0171 26.7647C35.9114 27.2962 35.6504 27.7844 35.2672 28.1676C34.884 28.5508 34.3958 28.8118 33.8643 28.9175C33.3327 29.0232 32.7819 28.969 32.2812 28.7616C31.7806 28.5542 31.3526 28.203 31.0515 27.7524C30.7504 27.3018 30.5897 26.7721 30.5897 26.2302C30.5897 25.5035 30.8785 24.8065 31.3923 24.2927C31.9062 23.7788 32.603 23.4902 33.3297 23.4902ZM33.3297 22.9102C33.9863 22.9102 34.6282 23.1049 35.1742 23.4697C35.7202 23.8345 36.1458 24.353 36.3971 24.9596C36.6484 25.5663 36.714 26.2338 36.5859 26.8779C36.4578 27.5219 36.1417 28.1134 35.6774 28.5777C35.2131 29.0421 34.6214 29.3583 33.9774 29.4864C33.3334 29.6145 32.6659 29.5487 32.0592 29.2974C31.4526 29.0461 30.9341 28.6206 30.5693 28.0746C30.2045 27.5287 30.0098 26.8868 30.0098 26.2302C30.0098 25.3496 30.3596 24.5052 30.9822 23.8826C31.6048 23.2599 32.4492 22.9102 33.3297 22.9102Z" fill="#3F250E"/>
<path fill-rule="evenodd" clip-rule="evenodd" d="M13.2495 25.21C13.4473 25.21 13.6406 25.2687 13.8051 25.3785C13.9695 25.4884 14.0977 25.6446 14.1733 25.8273C14.249 26.01 14.2689 26.2111 14.2303 26.4051C14.1918 26.5991 14.0965 26.7773 13.9567 26.9171C13.8168 27.057 13.6386 27.1522 13.4446 27.1908C13.2506 27.2294 13.0495 27.2096 12.8668 27.1339C12.6841 27.0582 12.528 26.93 12.4181 26.7656C12.3082 26.6011 12.2495 26.4078 12.2495 26.21C12.2495 25.9448 12.3548 25.6904 12.5424 25.5029C12.7299 25.3154 12.9843 25.21 13.2495 25.21ZM13.2495 25C13.4849 25 13.715 25.0698 13.9106 25.2006C14.1063 25.3313 14.2588 25.5172 14.3489 25.7346C14.4389 25.952 14.4625 26.1913 14.4166 26.4222C14.3707 26.653 14.2574 26.865 14.0909 27.0315C13.9245 27.1979 13.7125 27.3112 13.4817 27.3571C13.2509 27.403 13.0115 27.3795 12.7941 27.2894C12.5766 27.1993 12.3908 27.0468 12.26 26.8511C12.1293 26.6554 12.0596 26.4254 12.0596 26.19C12.0596 25.8744 12.1849 25.5717 12.4081 25.3485C12.6312 25.1254 12.9339 25 13.2495 25Z" fill="#3F250E"/>
<path fill-rule="evenodd" clip-rule="evenodd" d="M33.3297 25.25C33.5275 25.25 33.7208 25.3087 33.8853 25.4186C34.0497 25.5285 34.178 25.6846 34.2536 25.8674C34.3293 26.0501 34.349 26.2511 34.3104 26.4451C34.2718 26.6391 34.1767 26.8173 34.0368 26.9571C33.897 27.097 33.7188 27.1922 33.5248 27.2308C33.3308 27.2694 33.1296 27.2496 32.9469 27.1739C32.7642 27.0982 32.6081 26.9701 32.4982 26.8056C32.3883 26.6412 32.3297 26.4478 32.3297 26.25C32.3297 25.9848 32.4351 25.7305 32.6227 25.5429C32.8102 25.3554 33.0645 25.25 33.3297 25.25ZM33.3297 25.04C33.565 25.04 33.795 25.1098 33.9907 25.2406C34.1864 25.3714 34.339 25.5572 34.4291 25.7746C34.5191 25.9921 34.5427 26.2314 34.4968 26.4622C34.4509 26.693 34.3377 26.9051 34.1712 27.0715C34.0048 27.2379 33.7926 27.3513 33.5618 27.3972C33.3309 27.4431 33.0917 27.4195 32.8743 27.3295C32.6568 27.2394 32.471 27.0869 32.3402 26.8912C32.2095 26.6955 32.1396 26.4654 32.1396 26.23C32.1396 26.0738 32.1705 25.919 32.2303 25.7746C32.2901 25.6303 32.3778 25.4991 32.4883 25.3886C32.5988 25.2781 32.7299 25.1904 32.8743 25.1306C33.0186 25.0708 33.1734 25.04 33.3297 25.04Z" fill="#3F250E"/>
</svg>
