<svg xmlns="http://www.w3.org/2000/svg" xmlns:xlink="http://www.w3.org/1999/xlink" width="549.509" height="266.117" viewBox="0 0 549.509 266.117">
  <defs>
    <style>
      .cls-1 {
        fill: none;
      }

      .cls-2 {
        clip-path: url(#clip-path);
      }

      .cls-3 {
        fill: #fff3e9;
      }

      .cls-4 {
        fill: #f9ddbf;
      }

      .cls-5 {
        fill: #ffe3ca;
      }

      .cls-6 {
        fill: #3f250e;
      }

      .cls-7 {
        fill: #fed12f;
      }

      .cls-8 {
        fill: #efcbab;
      }

      .cls-9 {
        fill: #b3d6ff;
      }

      .cls-10 {
        fill: #d0dff1;
      }

      .cls-11 {
        fill: #c5eadb;
      }

      .cls-12 {
        fill: #97bbef;
      }

      .cls-13 {
        fill: #9fc1f4;
      }

      .cls-14 {
        fill: #bdd8ff;
      }

      .cls-15 {
        fill: #afcdfb;
      }

      .cls-16 {
        fill: #95baef;
      }

      .cls-17 {
        fill: #c1dfd4;
      }

      .cls-18 {
        fill: #ffb27d;
      }

      .cls-19 {
        fill: #ed7d2b;
      }

      .cls-20 {
        fill: #e5bd9e;
      }

      .cls-21 {
        fill: #c6916d;
      }

      .cls-22 {
        fill: #2b478b;
      }

      .cls-23 {
        fill: #233862;
      }

      .cls-24 {
        fill: #f99746;
      }

      .cls-25 {
        fill: #ed985f;
      }

      .cls-26 {
        fill: #a53d38;
      }

      .cls-27 {
        fill: #ce9a78;
      }

      .cls-28 {
        fill: #2c3a64;
      }

      .cls-29 {
        fill: #ed975d;
      }

      .cls-30 {
        fill: #fcecdb;
      }

      .cls-31 {
        fill: #33579e;
      }

      .cls-32 {
        fill: #d36922;
      }

      .cls-33 {
        fill: #fff5ee;
      }

      .cls-34 {
        fill: #263238;
      }
    </style>
    <clipPath id="clip-path">
      <rect class="cls-1" width="549.509" height="266.117"/>
    </clipPath>
  </defs>
  <g id="Repeat_Grid_16" data-name="Repeat Grid 16" class="cls-2">
    <g id="Group_3317" data-name="Group 3317" transform="translate(-51.094 -211.79)">
      <path id="Path_1171" data-name="Path 1171" class="cls-3" d="M607.665,476.3l-.07.134c-.156.3-.313.6-.473.9l-271.838-.083-17.471,0L166.771,477.2s-.117-.126-.336-.372c-4.707-5.284-56.373-65.917-9.622-131.322q1.2-1.677,2.4-3.285a158.574,158.574,0,0,1,12.509-14.827q1.13-1.185,2.271-2.316t2.3-2.229q1.153-1.092,2.308-2.133,2.727-2.452,5.469-4.628c22.859-18.161,46.472-22.223,68.218-17.814a89.964,89.964,0,0,1,12.59,3.54c.079.028.157.055.236.085.185.066.37.134.556.2l.247.094q4.586,1.705,9.007,3.868,1.913.932,3.791,1.941.469.252.935.509c2.848,1.562,5.631,3.255,8.343,5.054a17.619,17.619,0,0,0,1.788,1.037c5.156,2.616,12.683,3.494,21.705,1.846q2.66-.485,5.486-1.269,2.625-.734,5.373-1.737a87.966,87.966,0,0,0,13.786-6.533,123.827,123.827,0,0,0,23.785-18.282q2.982-2.88,5.973-6.1a198.108,198.108,0,0,0,22.344-29.473c9.631-15.336,23.587-26.191,39.771-32.9q1.274-.53,2.565-1.022c27.313-10.45,60.492-9.482,89.893,1.326.858.313,1.712.639,2.563.971,28.892,11.27,53.8,32.149,65.355,61.1q1.2,2.992,2.2,6.1c5.684,17.665,6.525,38.08.628,60.937C575.1,411.975,639.761,414.573,607.665,476.3Z" transform="translate(-16.862 -0.002)"/>
      <g id="Group_3299" data-name="Group 3299" transform="translate(120.513 298.269)">
        <path id="Path_1172" data-name="Path 1172" class="cls-4" d="M298.293,903.249H166.434c-4.707-5.284-56.373-65.917-9.622-131.322q1.2-1.677,2.4-3.285a158.566,158.566,0,0,1,12.509-14.827q1.13-1.185,2.271-2.316t2.3-2.229q1.153-1.092,2.308-2.133,2.727-2.452,5.469-4.628c8.258,6.323,15.96,10.993,21.742,11.517,12.747,1.156,32.507-15.555,46.476-29.331a89.964,89.964,0,0,1,12.59,3.54c.079.028.157.055.236.085.185.066.37.134.556.2l.247.094q4.586,1.7,9.007,3.868,1.913.932,3.791,1.941c1.516,15.408,3.719,35.436,6.107,56.286,5.925,51.743,12.975,108.544,13.448,112.335.011.1.019.166.021.192A.038.038,0,0,1,298.293,903.249Z" transform="translate(-137.375 -724.695)"/>
        <path id="Path_1173" data-name="Path 1173" class="cls-5" d="M770.424,745.777l-4.507,40.239a.021.021,0,0,1,0,.011l-4.462,39.845s-1.82-1.469-4.247-3.734c-4.419-4.121-10.853-10.874-11.964-16.162-1.612-7.67,21.935-54.359,24.945-60.284C770.267,745.72,770.345,745.747,770.424,745.777Z" transform="translate(-642.686 -742.152)"/>
        <path id="Path_1174" data-name="Path 1174" class="cls-5" d="M411.834,871.883c-.234.251-17.024,18.216-25.765,18.031-5.577-.119-18.785-13.367-31.511-27.755q1.146-1.14,2.3-2.229t2.308-2.133c12.632,10.836,24.956,20.171,29.431,19.7,8.952-.952,19.6-4.383,22.487-5.354C411.544,871.983,411.806,871.892,411.834,871.883Z" transform="translate(-317.94 -835.355)"/>
        <path id="Path_1175" data-name="Path 1175" class="cls-6" d="M404.335,879c-.607.662-26.585,28.909-33.405,29.684-3.272.37-16.664-16.177-29.844-33.688q1.13-1.185,2.271-2.316t2.3-2.229c12.881,12.994,25.473,24.671,29.52,25.088,6.455.666,18.271-7.8,24.7-12.879C402.453,880.63,404.165,879.144,404.335,879Z" transform="translate(-306.739 -845.873)"/>
        <path id="Path_1176" data-name="Path 1176" class="cls-6" d="M610.73,844.076s-34.2,46.851-42.5,47.7c0,0,4.01,7.9,15.071,4.516S610.73,844.076,610.73,844.076Z" transform="translate(-495.583 -823.948)"/>
        <path id="Path_1177" data-name="Path 1177" class="cls-5" d="M557.035,900.337s-4.226-1.445-1.146-5.011,33.484-30.915,42.367-40.949C598.257,854.377,568.272,900.824,557.035,900.337Z" transform="translate(-484.391 -832.512)"/>
        <path id="Path_1178" data-name="Path 1178" class="cls-7" d="M298.293,922.123H166.434c-4.707-5.284-56.373-65.917-9.622-131.322q1.2-1.676,2.4-3.285c5.311,10.484,11.434,20,17.942,25.278,15.049,12.2,35.36,16.247,51.458,19.7A22.837,22.837,0,0,0,254.618,818.6a64.779,64.779,0,0,0,4.119-16.081c.634-5.152,1.264-10.225,1.867-15.078a.02.02,0,0,0,0-.011c2.474-19.83,4.558-36.107,5.062-40.037l.247.094c.686,5.26,3.981,30.614,7.517,59.2.617,5,3.708-10.212,3.362-15.236-1.237-17.865-1.756-30.776-1.871-40.1q1.913.932,3.791,1.941.469.253.935.509c6.925,61.635,18.059,162.988,18.621,168.112.011.1.019.166.021.192A.04.04,0,0,1,298.293,922.123Z" transform="translate(-137.375 -743.568)"/>
      </g>
      <path id="Path_1179" data-name="Path 1179" class="cls-8" d="M1221.709,775.918V944.365a2.564,2.564,0,0,1-2.554,2.554H1205.1a2.562,2.562,0,0,1-2.554-2.554V784.188q2.625-.734,5.373-1.737A87.95,87.95,0,0,0,1221.709,775.918Z" transform="translate(-902.441 -469.012)"/>
      <path id="Path_1180" data-name="Path 1180" class="cls-3" d="M1519.737,476.3h-285.32V313.439c11.447-4.2,24.4-12.077,37.572-24.816q2.982-2.88,5.973-6.1a190,190,0,0,0,17.441-21.993q2.315-3.388,4.607-7.012c.1-.155.2-.313.3-.468,9.631-15.336,23.587-26.191,39.771-32.9q1.274-.53,2.565-1.022,4.323-1.654,8.833-2.927,1.223-.348,2.454-.666l.06-.015c21.659-5.582,45.917-4.788,68.633,1.7q1.261.361,2.516.743,3.733,1.143,7.4,2.489c.858.313,1.712.639,2.563.971,18.09,7.057,34.621,17.882,47.287,32.1q3.011,3.379,5.722,7.012a96.752,96.752,0,0,1,12.345,21.993q1.2,2.992,2.2,6.1c5.684,17.665,6.525,38.08.628,60.937C1487.175,411.973,1551.834,414.571,1519.737,476.3Z" transform="translate(-928.935)"/>
      <path id="Path_1181" data-name="Path 1181" class="cls-7" d="M1519.737,716.623h-285.32V553.763c11.447-4.2,24.4-12.077,37.572-24.816q2.982-2.88,5.973-6.1a189.994,189.994,0,0,0,17.441-21.993h192.7q2.657,3.567,5,7.372a95.663,95.663,0,0,1,7.347,14.621q1.2,2.992,2.2,6.1c5.684,17.665,6.525,38.08.628,60.937C1487.175,652.3,1551.834,654.894,1519.737,716.623Z" transform="translate(-928.935 -240.323)"/>
      <path id="Path_1182" data-name="Path 1182" class="cls-9" d="M1619.977,844.291l-186.266-11.9s4.824-13.561,10.054-25.257l.061-.142c3.771-8.433,7.743-15.852,10.237-16.419,3.446-.77,7.135,1.8,12.284,4.3h.021c6.081,2.939,14.23,5.757,26.412,2.676,13.946-3.547,26.311-27.913,35.027-47.494,6.162-13.845,10.5-25.318,12.284-25.318,1.723,0,7.824,10.6,14.209,21,6.284,10.277,12.872,20.352,15.791,19.885,5.879-.973,9.365-10.987,12.912-10.946,5.919.081,9,29.514,17.939,27.385,8.919-2.149,10.682,1.318,16.358,2.939S1619.977,844.291,1619.977,844.291Z" transform="translate(-1094.626 -426.46)"/>
      <path id="Path_1183" data-name="Path 1183" class="cls-10" d="M1234.417,1302.587a15.726,15.726,0,0,1,11.327,2.129c5.341,3.547,14.721-.452,17.562,6.045l-28.889,5.946Z" transform="translate(-928.935 -906.648)"/>
      <path id="Path_1184" data-name="Path 1184" class="cls-11" d="M1234.417,1203.276s19.815-6.877,52.942-3.758,61.573,12.109,87.047-8.1,51-27.165,67.9-22.486,33.587,53.615,17.624,102.273H1234.417Z" transform="translate(-928.935 -794.603)"/>
      <g id="Group_3302" data-name="Group 3302" transform="translate(179.997 304.355)">
        <g id="Group_3300" data-name="Group 3300" transform="translate(0 0)">
          <path id="Path_1185" data-name="Path 1185" class="cls-9" d="M546.778,872.805c-.463-.472-3.846-1.348-3.846-1.348h0s-5.4-10.98-8.826-16.66c-1.173-1.95-1.976-9.5-2.8-13.607v0s-.489-3.632-2.205-5.646c-1.147-1.343-7.289-1.988-7.289-1.988s0,.006,0,.011l-.573-.119a1.367,1.367,0,0,1-1.222-1.069c0-.03-.006-.062-.01-.092a18.943,18.943,0,0,1-.083-2.156V830.1c.009-.494.028-.928.049-1.254.025-.383.049-.617.049-.617l-.019,0-6.435-1.035c0,.068-.006.136-.008.2,0,0,0,0,0,0-.089,1.907-.2,3.34-.319,4.415a1.768,1.768,0,0,1-1.646,1.571c-.128.006-.26.017-.388.026v0a26.8,26.8,0,0,0-5.737.322c-1.788.547-5.752,4.869-5.752,4.869l.021.017c-4.758,4.673-9.839,11.315-9.559,12.581.4,1.784,7.144,11.919,9.59,13.788-.007.008-2.449,3.094-2.449,3.656a6.721,6.721,0,0,0,.8,2.75c-3.093,5.726-3.178,8.887-3.178,8.887a11.281,11.281,0,0,0-.2,1.988v.028c.025,5.135,8.881,29.105,9.22,32.792s.517,13.509,6.469,29.164h0a14,14,0,0,1-.554,3.1,8.205,8.205,0,0,1-3.306,2.909c-1.587.595-6.127.287-6.48,1.936h16a11.311,11.311,0,0,0-.4-4.1c-.615-1.62-1.316-3.826-1.322-3.845h0s1.924-20.5-.588-31.853c0,0-.034-.113-.077-.336l0,0a15.345,15.345,0,0,1,.364-6.08c.4,2.7.694,4.941.83,6.4.594,6.344,17.852,31.292,17.852,31.292-.219,1.435.926,3.945.837,5.266a9.4,9.4,0,0,0,.707,3.259s1.548.006,3.291.011c2.161.006,4.624.008,4.82-.011.351-.034-2.557-4.141-3-5.109a32.481,32.481,0,0,0-2.227-3.41l0-.006c-4.5-27.3-10.314-27.711-10.416-30.885a81.544,81.544,0,0,1,1.156-8.59c1.362-8.509,3.357-20.475,2.648-23.643-.138-.62-.315-1.3-.513-2.01-.53-2.052-1.328-5.092-1.7-6.2-.828-2.491-3.4-8.692-3.4-8.692l-.062.019c-.6-1.652-1.2-3.278-1.367-3.664a6.415,6.415,0,0,1-.068-1.72c.138-.023,1.6-4.39,2.542-7.349a6.562,6.562,0,0,0,.285-1.188v-.009c.819,3.938,1.841,7.862,2.961,9.85,2.154,3.832,11.668,13.646,11.668,13.646h0c.393.843,2.2,1.224,3.473,2.62a4.85,4.85,0,0,0,3.7,1.124C548.567,876.946,547.241,873.278,546.778,872.805Zm-43-9.787c-.032-.019-.049-.028-.049-.028-.1.13-.2.26-.3.387q-.639.82-1.211,1.6h0a.021.021,0,0,1,0-.008c-.164-.375-5.424-12.385-5.492-13.373-.06-.862,4.649-4.049,8.551-6.838a1.116,1.116,0,0,1-.081.711,0,0,0,0,0,0,0,6.373,6.373,0,0,0-.562,4.826c1.79,5.848,1.673,6.64,1.673,6.64.038.028.081.055.119.083.092.775.207,1.584.356,2.44C506.776,859.465,506.468,860.227,503.779,863.018Z" transform="translate(-490.169 -815.995)"/>
          <path id="Path_1186" data-name="Path 1186" class="cls-12" d="M635.38,832.283c-2.676-.361-6.441-5.093-6.441-5.093l6.456.856s-.008.063-.02.178a16.688,16.688,0,0,0-.078,1.874.107.107,0,0,0,0,.028A18.83,18.83,0,0,0,635.38,832.283Z" transform="translate(-605.541 -815.994)"/>
          <path id="Path_1187" data-name="Path 1187" class="cls-9" d="M625.776,773.165s-7.521,2.51-9.012-2.2-3.466-7.554,1.273-9.356,6.245-.3,7.125,1.148S627.694,772.39,625.776,773.165Z" transform="translate(-594 -760.786)"/>
        </g>
        <g id="Group_3301" data-name="Group 3301" transform="translate(0.465 136.212)">
          <rect id="Rectangle_70" data-name="Rectangle 70" class="cls-13" width="49.922" height="35.735" transform="translate(12.248)"/>
          <rect id="Rectangle_71" data-name="Rectangle 71" class="cls-14" width="49.922" height="35.732" transform="translate(0 0.001)"/>
          <path id="Path_1188" data-name="Path 1188" class="cls-15" d="M537.918,1568.662l-44.99,15.7v-15.7Z" transform="translate(-492.928 -1568.661)"/>
        </g>
        <path id="Path_1189" data-name="Path 1189" class="cls-16" d="M522.23,938.244c.068.988,5.328,13,5.492,13.373-.251-.341-8.211-11.236-6.676-14.24,1.56-3.051,9.735-5.971,9.735-5.971C526.88,934.195,522.171,937.382,522.23,938.244Z" transform="translate(-515.677 -902.638)"/>
        <path id="Path_1190" data-name="Path 1190" class="cls-16" d="M666.473,1015.42a81.545,81.545,0,0,0-1.156,8.59c-4.321-2.81-2.706-26.391-2.387-30.655.209-2.8-2.772-9.233-4.649-14.725-.285-.832-.543-1.644-.762-2.416a12.638,12.638,0,0,1-.656-4.779c.711-4.935,7.979-10.459,7.979-10.459a6.572,6.572,0,0,1-.285,1.188c-.941,2.959-2.4,7.325-2.542,7.349a6.414,6.414,0,0,0,.068,1.72c.168.385.768,2.012,1.367,3.664l.062-.019s2.572,6.2,3.4,8.692c.368,1.107,1.167,4.147,1.7,6.2.2.711.375,1.39.513,2.01C669.83,994.945,667.835,1006.911,666.473,1015.42Z" transform="translate(-628.716 -927.222)"/>
        <path id="Path_1191" data-name="Path 1191" class="cls-16" d="M592.631,1182.945c-.115-.185-7.621-12.115-7.54-19.023a36.412,36.412,0,0,1,1.5-10.906s6.054,13.7,6.406,23.849A15.345,15.345,0,0,0,592.631,1182.945Z" transform="translate(-569.086 -1086.883)"/>
        <path id="Path_1192" data-name="Path 1192" class="cls-16" d="M774.277,1526.562c-.2.019-2.659.017-4.82.011,2.821-1.612-.3-8.313-.4-8.53a32.486,32.486,0,0,1,2.227,3.411C771.72,1522.422,774.628,1526.528,774.277,1526.562Z" transform="translate(-722.031 -1390.364)"/>
      </g>
      <path id="Path_1193" data-name="Path 1193" class="cls-17" d="M1295.888,543.317c-9.65,9.084-34.187,10.289-32.856,30.97,1.26,19.544-25.652,25.512-28.616,26.11V553.763c11.447-4.2,24.4-12.077,37.572-24.816q2.982-2.88,5.973-6.1a189.994,189.994,0,0,0,17.441-21.993h9.978C1309.826,517.858,1305.268,534.488,1295.888,543.317Z" transform="translate(-928.935 -240.323)"/>
      <path id="Path_1194" data-name="Path 1194" class="cls-17" d="M1234.417,1578.688s19.647-4.236,27.28,8.171,18.651,16.946,27.831,11.057,34.46,1.928,34.806,15.263h-89.916Z" transform="translate(-928.935 -1135.85)"/>
      <g id="Group_3304" data-name="Group 3304" transform="translate(345.691 313.64)">
        <path id="Path_1195" data-name="Path 1195" class="cls-18" d="M1529.538,879.2s-2.173-3.755-1.109-5.975,2.034-2.806,2.613-1.742.653,6.767.653,6.767Z" transform="translate(-1518.822 -861.672)"/>
        <g id="Group_3303" data-name="Group 3303" transform="translate(0 0)">
          <path id="Path_1196" data-name="Path 1196" class="cls-19" d="M1510.647,859.5l-.2.188a.537.537,0,0,1-.744.038L1493.3,842.635l1.831-1.685,15.617,17.779A.563.563,0,0,1,1510.647,859.5Z" transform="translate(-1489.863 -836.719)"/>
          <path id="Path_1197" data-name="Path 1197" class="cls-20" d="M1489,834.439l-1.831,1.685-1.244-1.1,2.071-1.906Z" transform="translate(-1483.728 -830.208)"/>
          <path id="Path_1198" data-name="Path 1198" class="cls-21" d="M1475.093,820.672s-2.041-.312-2.184-1.754,1.019-2.154.647-3.063a2.867,2.867,0,0,1,1.743,1.113,10.025,10.025,0,0,0,1.865,1.8Z" transform="translate(-1472.896 -815.855)"/>
        </g>
        <path id="Path_1199" data-name="Path 1199" class="cls-18" d="M1798.774,1261.357c-.227,1.7,28.6,60.588,28.81,71.451l4.187.219s0-29.253-8.167-40.807a7.28,7.28,0,0,1-1.332-3.954c-.31-9.1-2.155-41.144-12.752-39.979C1797.175,1249.645,1798.774,1261.357,1798.774,1261.357Z" transform="translate(-1743.772 -1175.35)"/>
        <path id="Path_1200" data-name="Path 1200" class="cls-22" d="M1837.519,1305.421c-1.533,5.567-13.867,8.141-13.867,8.141l-.92-2.712-.2-.588-5.424-16-2.11-6.223-5.573-16.428s3.125-19.057,10.719-22.178,13.8,38.5,13.656,40.2S1837.519,1305.421,1837.519,1305.421Z" transform="translate(-1752.684 -1176.191)"/>
        <path id="Path_1201" data-name="Path 1201" class="cls-23" d="M1926.11,1743.1h13.452a7.39,7.39,0,0,0-.38-3.606c-.673-1.493-1.516-2.019-1.539-4.074a4.759,4.759,0,0,1-4.13,1.7,14.756,14.756,0,0,1-2.334,3.026C1930.3,1740.783,1926.381,1740.558,1926.11,1743.1Z" transform="translate(-1849.695 -1580.378)"/>
        <path id="Path_1202" data-name="Path 1202" class="cls-23" d="M1860.616,1394.59l-.2-.587-5.424-16,.961-6.993c.1-8.888,4.7-21.832,7.182-20.98C1863.135,1350.031,1859.191,1365.155,1860.616,1394.59Z" transform="translate(-1790.568 -1259.932)"/>
        <path id="Path_1203" data-name="Path 1203" class="cls-18" d="M1845.863,1036.168s14.97,15.649,17.436,19.164,7.573,19,7.573,19l-2.818.573s-8.982-15.553-9.687-16.509-12.5-8.881-12.5-8.881Z" transform="translate(-1782.978 -999.022)"/>
        <path id="Path_1204" data-name="Path 1204" class="cls-24" d="M1824.944,1057.845s-1.677,2.125-5.744,1.42c0,0-.519-.892-.768-1-.149-.064-7.385-5.148-13.184-9.231-3.906-2.748-7.161-5.043-7.161-5.043l8.055-7.83s17.107,17.748,17.718,19.23S1824.944,1057.845,1824.944,1057.845Z" transform="translate(-1743.258 -999.018)"/>
        <path id="Path_1205" data-name="Path 1205" class="cls-19" d="M1853.744,1104.538c-.149-.064-7.385-5.147-13.184-9.23a.026.026,0,0,1,0-.013,7.364,7.364,0,0,1,2.555-3.476S1852.733,1100.653,1853.744,1104.538Z" transform="translate(-1778.569 -1045.289)"/>
        <path id="Path_1206" data-name="Path 1206" class="cls-18" d="M1772.26,999.821h-7.61a26.505,26.505,0,0,1-1.641-5.341,27.275,27.275,0,0,1-.443-3.221c-.044-.615-.044-.969-.044-.969l6.529-2.154.741,2.7Z" transform="translate(-1713.688 -959.088)"/>
        <path id="Path_1207" data-name="Path 1207" class="cls-25" d="M1770.01,1002.777a10.115,10.115,0,0,1-6.782,3.644,27.315,27.315,0,0,1-.443-3.221A14.679,14.679,0,0,1,1770.01,1002.777Z" transform="translate(-1713.908 -971.03)"/>
        <path id="Path_1208" data-name="Path 1208" class="cls-18" d="M1744.443,943.125s7.792,3.86,10.12-1.03,4.9-7.684.027-10.355-6.739-1.269-7.913.174S1742.476,941.995,1744.443,943.125Z" transform="translate(-1698.12 -910.946)"/>
        <path id="Path_1209" data-name="Path 1209" class="cls-18" d="M1771.97,1235.2s-1.115,36.6-1.111,47.542.48,36.129.48,36.129l2.086.805,2.107-2.409s7.6-28.8,6.905-32.8c-1.717-9.935,10.963-19.3-2.249-48.076C1776.36,1228.051,1771.97,1235.2,1771.97,1235.2Z" transform="translate(-1720.62 -1162.123)"/>
        <path id="Path_1210" data-name="Path 1210" class="cls-23" d="M1729.793,1743.585h13.452a7.385,7.385,0,0,0-.38-3.606c-.673-1.493-1.728-2.171-1.475-3.977a4.844,4.844,0,0,1-4.193,1.6,14.752,14.752,0,0,1-2.334,3.026C1733.984,1741.264,1730.063,1741.039,1729.793,1743.585Z" transform="translate(-1686.478 -1580.86)"/>
        <path id="Path_1211" data-name="Path 1211" class="cls-18" d="M1572.317,945.436s-20.353-3.842-23.829-6.586-12.036-23.745-12.036-23.745l2.158-.95s14.133,19.574,15.116,20.122,16.078-.938,18.591,1.406S1572.317,945.436,1572.317,945.436Z" transform="translate(-1525.736 -897.581)"/>
        <path id="Path_1212" data-name="Path 1212" class="cls-22" d="M1753.2,1279.169c-.116.348-.718,11.712,1.065,30.552,1.186,12.536.275,25.652.98,29.524,0,0,7.358.847,11.718-1.849,0,0,10.36-58.557,4.47-60.544S1753.2,1279.169,1753.2,1279.169Z" transform="translate(-1705.776 -1198.689)"/>
        <path id="Path_1213" data-name="Path 1213" class="cls-24" d="M1622.887,1014.468l-8.106,12.82a.462.462,0,0,0-.047-.166.008.008,0,0,1,0-.006c-1.02-2.124-17.294-6.868-18.433-7.591-1.171-.745-2.725-3.7-2.725-3.7.628-3.38,4.466-5.456,4.466-5.456s3.119,3.231,3.474,3.621,11.762-.372,15.061-.479A19.494,19.494,0,0,1,1622.887,1014.468Z" transform="translate(-1573.226 -977.572)"/>
        <path id="Path_1214" data-name="Path 1214" class="cls-19" d="M1628.167,1072.263c-1.02-2.125-17.294-6.868-18.433-7.591C1609.734,1064.672,1625.97,1065.044,1628.167,1072.263Z" transform="translate(-1586.662 -1022.72)"/>
        <path id="Path_1215" data-name="Path 1215" class="cls-24" d="M1749.807,1075.959l-.006.009a1.564,1.564,0,0,1-.524.462c-10.114,5.563-22.389,2.446-26.15,1.154a1.9,1.9,0,0,1-1.281-1.782c-.187-17.475-4.138-18.957-4.747-27.788s1.315-14.3,1.315-14.3l6.859-.441a15.692,15.692,0,0,0,6.242.752,4.474,4.474,0,0,0,1.78-.861s4.42-.391,5.416.428c4.441,3.655,4.613,17.124,4.47,25.989-.074,4.581,1.9,6.87,3.327,9.011,1.352,2.024,2.623,4.215,3.4,5.6A1.648,1.648,0,0,1,1749.807,1075.959Z" transform="translate(-1675.825 -996.446)"/>
        <path id="Path_1216" data-name="Path 1216" class="cls-19" d="M1872.268,1206.679l-.006.009c-1.145,1.22-6.625-4.573-7.689-7.979s1.069-8.409,1.069-8.409c-.075,4.581,1.9,6.87,3.327,9.011,1.352,2.025,2.622,4.215,3.4,5.6A1.648,1.648,0,0,1,1872.268,1206.679Z" transform="translate(-1798.286 -1127.166)"/>
        <path id="Path_1217" data-name="Path 1217" class="cls-18" d="M1977.479,1263.067s.53,3.433,1.381,4.391,3.246,2.768,3.619,1.7-1.171-3.88-1.118-4.335,1.118.7,1.437.524-2.5-2.856-2.5-2.856Z" transform="translate(-1892.403 -1187.188)"/>
        <path id="Path_1218" data-name="Path 1218" class="cls-26" d="M1759.148,919.191s-3.117-.684-3.794,1.76,2.729,5.4,3.794,7.17,3.368,7.039,4.611,7.17,4.573-5.084,5.888-6.255,2.593-6.706-1.771-8.622A17.324,17.324,0,0,0,1759.148,919.191Z" transform="translate(-1707.656 -901.666)"/>
        <path id="Path_1219" data-name="Path 1219" class="cls-26" d="M1783,949.457c-5.408,1.638-4.8,7.138-4.8,7.138s-7.38-1.455-8.231-5.535c-.979-4.691.817-7.451.817-7.451-1.6.479-2.337,2.229-2.68,3.928a7.483,7.483,0,0,1,1.969-5.844c3.915-4.374,9.848-4.3,7.806-7.061-5.878-7.947-1.635-16.926-1.635-16.926s2.078-1.7,7.17-.562,6.578,8.239,5.748,11.245c-1.884,6.812.213,6.706,2.235,10.963S1787.763,948.014,1783,949.457Z" transform="translate(-1718.297 -899.741)"/>
        <path id="Path_1220" data-name="Path 1220" class="cls-18" d="M1540.086,894.51a3.515,3.515,0,0,0,.725-1.374c.142-.71.321-2.84-.213-2.59s-.71,2.915-2.022,1.972S1540.086,894.51,1540.086,894.51Z" transform="translate(-1527.212 -877.935)"/>
        <path id="Path_1221" data-name="Path 1221" class="cls-26" d="M1755.889,924.065s-2.74,2.765,2.865,10.8c0,0-.816-3.629,1.739-4.161S1755.889,924.065,1755.889,924.065Z" transform="translate(-1707.617 -905.82)"/>
      </g>
      <g id="man" transform="translate(228.357 368.456)">
        <g id="Group_3310" data-name="Group 3310" transform="translate(0)">
          <path id="Path_1222" data-name="Path 1222" class="cls-18" d="M845.953,1381.813s-3.3-.106-4.258.8-2.874,2.874-1.543,3.992,4.258-.386,4.577-.619a14.419,14.419,0,0,1,1.969-.765Z" transform="translate(-829.124 -1341.202)"/>
          <path id="Path_1223" data-name="Path 1223" class="cls-19" d="M891.26,1357.457l-18.247,3.365s.319,3.087,1.384,4.151l18.913-.1Z" transform="translate(-856.823 -1320.955)"/>
          <g id="Group_3305" data-name="Group 3305" transform="translate(6.202 34.682)">
            <path id="Path_1224" data-name="Path 1224" class="cls-21" d="M847.5,1381.007h0a.735.735,0,0,1-1.035-.045l-8.846-9.644a.734.734,0,0,1,.045-1.034h0a.734.734,0,0,1,1.034.044l8.847,9.644A.735.735,0,0,1,847.5,1381.007Z" transform="translate(-833.44 -1366.142)"/>
            <path id="Path_1225" data-name="Path 1225" class="cls-27" d="M820.892,1349.115l-4.826,4.427a.513.513,0,0,1-.723-.031l-1.432-1.562a.513.513,0,0,1,.031-.723l4.826-4.427a.513.513,0,0,1,.723.031l1.432,1.561A.514.514,0,0,1,820.892,1349.115Z" transform="translate(-813.776 -1346.666)"/>
          </g>
          <path id="Path_1226" data-name="Path 1226" class="cls-18" d="M853.2,1380.229a13.152,13.152,0,0,0-3.92-.424c-1.091.265,1.634,1.141,1.634,1.141Z" transform="translate(-836.88 -1339.486)"/>
          <g id="Group_3306" data-name="Group 3306" transform="translate(0 49.534)">
            <path id="Path_1227" data-name="Path 1227" class="cls-22" d="M777.15,1453.557h0c-.286-.107-.123-.328-.016-.615L783,1436.326a.557.557,0,0,1,.715-.326h0a.558.558,0,0,1,.326.716l-6.442,16.36C777.493,1453.362,777.437,1453.664,777.15,1453.557Z" transform="translate(-776.99 -1435.76)"/>
            <path id="Path_1228" data-name="Path 1228" class="cls-22" d="M812.822,1435.714l-.925-.346a.32.32,0,0,1-.187-.41h0a.32.32,0,0,1,.41-.187l.925.346a.32.32,0,0,1,.187.41h0A.319.319,0,0,1,812.822,1435.714Z" transform="translate(-805.839 -1434.751)"/>
          </g>
          <path id="Path_1229" data-name="Path 1229" class="cls-28" d="M935.043,1735.433h-13.15a2.338,2.338,0,0,1,1.929-1.367c2.071-.363,5.667-1.484,5.206-4.473-.467-3.031,4.577-3.421,4.577-3.421S935.7,1734.279,935.043,1735.433Z" transform="translate(-897.461 -1627.502)"/>
          <g id="Group_3307" data-name="Group 3307" transform="translate(7.903 58.056)">
            <path id="Path_1230" data-name="Path 1230" class="cls-22" d="M876.566,1504.753a2.346,2.346,0,0,1-.427.676,3.105,3.105,0,0,1-1.089.656,38.507,38.507,0,0,1-9.2,1.748,129.312,129.312,0,0,1-14.832.582c-1.625-.027-3.256-.085-4.865-.178-11.675-.664-22.284-3.114-22.3-8.625-.014-5.605,17.868-9.768,31.434-12.118,1.4-.244,2.763-.469,4.05-.672,6.309-1,10.917-1.526,10.917-1.526s.257.454.67,1.227c.205.385.448.847.72,1.374a66.657,66.657,0,0,1,4.461,10.572C876.864,1501.022,877.188,1503.34,876.566,1504.753Z" transform="translate(-823.86 -1485.295)"/>
            <path id="Path_1231" data-name="Path 1231" class="cls-28" d="M938.517,1551.833c-.489.449-1,.894-1.516,1.332a38.5,38.5,0,0,1-9.2,1.748c-4.323.439-24.15.465-29.429.374,6.2-10.018,25-12.006,26.157-13.334.094-.109,12.435-.125,13.531,3.594C938.814,1548.1,939.138,1550.418,938.517,1551.833Z" transform="translate(-885.81 -1532.374)"/>
          </g>
          <path id="Path_1232" data-name="Path 1232" class="cls-22" d="M828.887,1560.792s20.145,25.209,21.5,28.259c0,0,5.551.517,6.886-3.449,0,0-9.7-27.084-13.959-29.316S828.887,1560.792,828.887,1560.792Z" transform="translate(-820.137 -1485.884)"/>
          <g id="Group_3308" data-name="Group 3308" transform="translate(23.249)">
            <path id="Path_1233" data-name="Path 1233" class="cls-18" d="M992.656,1205.659s-5.618,7.688-10.625,8.1a13.366,13.366,0,0,1,2.117-4.719c-.4-.641-.742-1.227-1.039-1.75a29.586,29.586,0,0,1-1.419-2.785l2.3-4.167.475-2.24a15.109,15.109,0,0,0,1.354,2.823A10.668,10.668,0,0,0,992.656,1205.659Z" transform="translate(-970.426 -1188.466)"/>
            <path id="Path_1234" data-name="Path 1234" class="cls-29" d="M986.043,1211.651a6.466,6.466,0,0,1-2.933,6.41,29.586,29.586,0,0,1-1.419-2.785l2.3-4.167C985.835,1210.837,986.043,1211.651,986.043,1211.651Z" transform="translate(-970.426 -1199.237)"/>
            <path id="Path_1235" data-name="Path 1235" class="cls-18" d="M940.589,1178.765s7.047-3.839,4.588-8.191-3.2-7.778-7.807-5.511-4.532,4.417-4.064,6.069S938.693,1179.651,940.589,1178.765Z" transform="translate(-930.025 -1160.402)"/>
            <path id="Path_1236" data-name="Path 1236" class="cls-22" d="M930.008,1142.477c.039-.109.176-.238.53-.4a1.555,1.555,0,0,0-.75.068,1.977,1.977,0,0,0-1.84-1.167,1.179,1.179,0,0,1,.833.591c-1.406-.658-3.848-.59-9.611,2.185-7.6,3.656-3.043,7.755-1.794,7.971s3.16-2.437,5.11-3.015,3.381,2.057,4.169,2.191.276-.443.99-1.176,1.36.695,1.477,1.741,1.792,1.838,1.792,1.838l.7-1.783c.7-1.783-.325-7.8-1.332-8.782Z" transform="translate(-914.88 -1140.968)"/>
          </g>
          <path id="Path_1237" data-name="Path 1237" class="cls-23" d="M1243.745,1714.8s1.639,2.707,2.02,3.583a2.649,2.649,0,0,1-1.491,3.024c-.991.248-1.14,2.16-1.14,2.16h4.805a1.26,1.26,0,0,0,1.163-.774,20.132,20.132,0,0,0,.969-4.438c.287-1.484.854-2.729.6-4.241s-2.617-2.378-6.931-2.364C1239.005,1711.768,1243.745,1714.8,1243.745,1714.8Z" transform="translate(-1163.296 -1615.514)"/>
          <path id="Path_1238" data-name="Path 1238" class="cls-22" d="M1039.992,1522.727a119.821,119.821,0,0,1-8.464,20.942,79.724,79.724,0,0,1-5.925,10c-2.216,3.077-4.336,5.16-6.089,5.487a2.229,2.229,0,0,1-1.306-.124c-1.008-.431-1.745-1.614-2.263-3.334v0c-3.2-10.6,1.8-41.5,1.8-41.5s5.04-.043,10.39.385c5.544.447,11.42,1.4,12.375,3.424C1040.831,1518.683,1040.61,1520.38,1039.992,1522.727Z" transform="translate(-974.768 -1451.271)"/>
          <path id="Path_1239" data-name="Path 1239" class="cls-24" d="M1010.084,1285.878c-3.624,3.84-30.233-4.1-28-6.128.567-.514.373-1.132.6-1.96,1.1-3.928-1.094-10.649-2.036-13.254-.22-.6-.371-.986-.4-1.063a45.658,45.658,0,0,1-2.051-7.411c-.877-4.7-.861-9.061.339-11.736a.307.307,0,0,1,.018-.037c4.985-1.457,7.729-8.79,7.729-8.79s15.791,4.485,21.522,27.017c0,0,.3,1.436.661,3.593h0c.11.661.229,1.392.347,2.169.612,4.01.967,9.151,1.33,12.979.014.133.027.267.041.406C1010.37,1283.313,1010.686,1285.239,1010.084,1285.878Z" transform="translate(-943.762 -1219.56)"/>
          <path id="Path_1240" data-name="Path 1240" class="cls-22" d="M1077.094,1696.972a56.118,56.118,0,0,0-5.625.827c-10.312,1.805-30.583,5.95-30.583,5.95a.033.033,0,0,0,0-.008c-.016-.137-.241-1.945-.294-4.277-.082-3.719.277-8.774,2.626-10.494,1.249-.916,5.07-1.01,9.682-.718,9.718.612,22.94,2.947,22.94,2.947A6.775,6.775,0,0,1,1077.094,1696.972Z" transform="translate(-996.136 -1595.853)"/>
          <path id="Path_1241" data-name="Path 1241" class="cls-28" d="M1072.112,1524.634c-5.364-.169-18.819-6.774-18.6-6.827a64.388,64.388,0,0,1,6.745-1.312c5.544.447,11.42,1.4,12.375,3.424C1072.951,1520.59,1072.73,1522.288,1072.112,1524.634Z" transform="translate(-1006.888 -1453.179)"/>
          <path id="Path_1242" data-name="Path 1242" class="cls-19" d="M1006.879,1326.816s-.312,24.405-9.076,26.894c1.1-3.928-1.094-10.649-2.036-13.254C998.026,1334.18,1002.184,1327.849,1006.879,1326.816Z" transform="translate(-958.88 -1295.481)"/>
          <path id="Path_1243" data-name="Path 1243" class="cls-22" d="M1008.2,1242.013s-6.75,1.4-7.409,7.319c-.48,4.308,4.23,14.062,4.23,14.062l.9-.9s-4.134-12.044-3.5-14.093c.815-2.627,4.7-6.558,8.265-4.988Z" transform="translate(-963.025 -1224.976)"/>
          <path id="Path_1244" data-name="Path 1244" class="cls-22" d="M1023.23,1392.3c-3.624,3.84-30.806-4.02-28.576-6.044a4.218,4.218,0,0,0,1.177-2.045c1.1-3.928-1.094-10.649-2.036-13.254-.22-.6-.371-.986-.4-1.063l1.373-1.371,5.03-5.019a24.724,24.724,0,0,0,4.3,3.6,31.062,31.062,0,0,0,17.517,5.425h0c.11.661.229,1.392.347,2.169.612,4.01.967,9.151,1.33,12.979.014.133.026.267.041.406C1023.516,1389.739,1023.832,1391.665,1023.23,1392.3Z" transform="translate(-956.908 -1325.986)"/>
          <path id="Path_1245" data-name="Path 1245" class="cls-28" d="M1006.069,1367.109c-1.006,7.094-3.255,15.683-8.266,17.107,1.1-3.928-1.094-10.649-2.036-13.254.294-.814.618-1.63.973-2.434l5.03-5.019A24.725,24.725,0,0,0,1006.069,1367.109Z" transform="translate(-958.88 -1325.986)"/>
          <g id="Group_3309" data-name="Group 3309" transform="translate(3.714 20.29)">
            <path id="Path_1246" data-name="Path 1246" class="cls-18" d="M806.416,1452.264a40.6,40.6,0,0,0-4.3-.76,7.8,7.8,0,0,0-2.521.755c-.027.175-.1.708.273.73s.745-.186.668-.036-1.486.057-1.519.77.55,2.879,2.19,2.953,4.847-1.857,5.123-1.883C808.674,1454.568,806.416,1452.264,806.416,1452.264Z" transform="translate(-799.018 -1419.434)"/>
            <path id="Path_1247" data-name="Path 1247" class="cls-24" d="M837.93,1295.279c-.564-1.63.222-2.139.222-2.139s16.066-7.619,17.38-8.458,10.146-16.926,10.146-16.926,3.274-6.578,7.444-6.446a7.5,7.5,0,0,1,6.755,4.742,7.592,7.592,0,0,1-1.374,8.443c-4.811,5.091-14.472,15.172-16.975,16.7-5.571,3.406-22.264,6.16-22.264,6.16A5.43,5.43,0,0,1,837.93,1295.279Z" transform="translate(-831.2 -1261.308)"/>
          </g>
          <path id="Path_1248" data-name="Path 1248" class="cls-28" d="M1055.37,1742.124c-10.312,1.805-30.583,5.95-30.583,5.95a.028.028,0,0,0,0-.008,2.231,2.231,0,0,1-1.306-.125c-1.008-.431-1.745-1.614-2.263-3.334v0s1.2-.349,3.275-.816c1.634-.369,3.813-.81,6.382-1.21A83.905,83.905,0,0,1,1055.37,1742.124Z" transform="translate(-980.038 -1640.179)"/>
        </g>
      </g>
      <path id="Path_1249" data-name="Path 1249" class="cls-4" d="M2167.731,508.223c-18.391,3.381-46.88,18.64-76.888,17.974-38.319-.852-44.986-25.346-44.986-25.346h116.876Q2165.39,504.418,2167.731,508.223Z" transform="translate(-1603.56 -240.323)"/>
      <g id="Group_3311" data-name="Group 3311" transform="translate(406.568 215.514)">
        <path id="Path_1250" data-name="Path 1250" class="cls-6" d="M1928.677,234.558v14.453c0,.379,0,.754.013,1.118v0c0,.023,0,.038,0,.06,0,.285.013.56.025.834v0c.134,3.317.592,5.771,1.133,5.771h.166c.583,0,1.071-2.853,1.158-6.565v0c.013-.4.017-.8.017-1.22V233.877Z" transform="translate(-1912.705 -233.877)"/>
        <path id="Path_1251" data-name="Path 1251" class="cls-6" d="M1850.525,330.2c-9.154,0-16.574,7.846-16.574,17.526H1867.1C1867.1,338.042,1859.679,330.2,1850.525,330.2Z" transform="translate(-1833.951 -313.956)"/>
        <path id="Path_1252" data-name="Path 1252" class="cls-30" d="M1879.657,330.681a6.828,6.828,0,0,0-1.456-.158c-5.964,0-10.8,7.822-10.8,17.47h2.911C1870.314,339.144,1874.382,331.832,1879.657,330.681Z" transform="translate(-1861.763 -314.228)"/>
      </g>
      <g id="Group_3312" data-name="Group 3312" transform="translate(477.716 217.217)">
        <path id="Path_1253" data-name="Path 1253" class="cls-6" d="M2353.163,244.72v12.688q0,.626-.017,1.22v0c-.089,3.713-.575,6.565-1.158,6.565h-.166c-.543,0-1-2.454-1.133-5.771v0c-.013-.275-.021-.549-.028-.834,0-.021,0-.036,0-.06v0c-.008-.364-.013-.739-.013-1.118V243.977Q2351.908,244.338,2353.163,244.72Z" transform="translate(-2334.677 -243.977)"/>
        <path id="Path_1254" data-name="Path 1254" class="cls-6" d="M2272.5,330.2c-9.154,0-16.574,7.846-16.574,17.526h33.148C2289.078,338.042,2281.658,330.2,2272.5,330.2Z" transform="translate(-2255.93 -315.659)"/>
        <path id="Path_1255" data-name="Path 1255" class="cls-30" d="M2301.636,330.681a6.826,6.826,0,0,0-1.456-.158c-5.964,0-10.8,7.822-10.8,17.47h2.911C2292.293,339.144,2296.361,331.832,2301.636,330.681Z" transform="translate(-2283.742 -315.931)"/>
      </g>
      <g id="Group_3314" data-name="Group 3314" transform="translate(337.505 457.597)">
        <path id="Path_1256" data-name="Path 1256" class="cls-22" d="M1444.2,1669.667l-.03.438-.04.609-1.207,17.72h-15.713l-1.511-17.723-.07-.822-.019-.224Z" transform="translate(-1425.398 -1669.666)"/>
        <path id="Path_1257" data-name="Path 1257" class="cls-31" d="M1497.559,1669.667l-.03.438-.041.609-1.207,17.72h-6.493l2.039-18.768Z" transform="translate(-1478.754 -1669.666)"/>
        <path id="Path_1258" data-name="Path 1258" class="cls-23" d="M1444.267,1671.207l-.04.609c-.683-.068-6.233-.6-8.977-.6s-8.662.53-9.454.6l-.07-.822Z" transform="translate(-1425.492 -1670.768)"/>
        <path id="Path_1259" data-name="Path 1259" class="cls-22" d="M1443.423,1670.106h-18.858a.222.222,0,0,1-.222-.222h0a.223.223,0,0,1,.222-.222h18.858a.223.223,0,0,1,.222.222h0A.222.222,0,0,1,1443.423,1670.106Z" transform="translate(-1424.344 -1669.662)"/>
        <g id="Group_3313" data-name="Group 3313" transform="translate(0 0.222)">
          <path id="Path_1260" data-name="Path 1260" class="cls-24" d="M1433.426,1677.116c-8.137,0-9.071-6.076-9.082-6.138h0c.043.243,1.351,5.908,9.5,5.707,8.185-.209,9.785-5.612,9.8-5.668h0c-.014.059-1.277,5.876-9.787,6.094Q1433.639,1677.116,1433.426,1677.116Z" transform="translate(-1424.344 -1670.978)"/>
        </g>
        <path id="Path_1261" data-name="Path 1261" class="cls-24" d="M1468.942,1702.144h-3.078a.7.7,0,0,1-.7-.7h0a.7.7,0,0,1,.7-.7h3.078a.7.7,0,0,1,.7.7h0A.7.7,0,0,1,1468.942,1702.144Z" transform="translate(-1458.285 -1695.509)"/>
        <path id="Path_1262" data-name="Path 1262" class="cls-23" d="M1449.827,1774.507h-16.066l.115-1.312h15.914Z" transform="translate(-1432.173 -1755.739)"/>
      </g>
      <g id="Group_3316" data-name="Group 3316" transform="translate(358.279 464.652)">
        <path id="Path_1263" data-name="Path 1263" class="cls-19" d="M1559.952,1711.5l-.019.275-.027.38-.094,1.4-.45,6.606-.208,3.054h-9.809l-.261-3.054-.561-6.585-.121-1.423-.043-.512-.011-.14Z" transform="translate(-1548.214 -1711.502)"/>
        <path id="Path_1264" data-name="Path 1264" class="cls-24" d="M1593.247,1711.5l-.019.274-.025.38-.754,11.06H1588.4l1.273-11.713Z" transform="translate(-1581.511 -1711.504)"/>
        <path id="Path_1265" data-name="Path 1265" class="cls-32" d="M1559.986,1712.466l-.025.38c-.426-.042-3.89-.377-5.6-.377s-5.406.331-5.9.376l-.044-.513Z" transform="translate(-1548.268 -1712.192)"/>
        <path id="Path_1266" data-name="Path 1266" class="cls-24" d="M1559.46,1711.779h-11.77a.139.139,0,0,1-.138-.139h0a.139.139,0,0,1,.138-.138h11.77a.139.139,0,0,1,.138.138h0A.139.139,0,0,1,1559.46,1711.779Z" transform="translate(-1547.552 -1711.502)"/>
        <g id="Group_3315" data-name="Group 3315" transform="translate(0 0.138)">
          <path id="Path_1267" data-name="Path 1267" class="cls-31" d="M1553.22,1716.154c-5.079,0-5.661-3.792-5.668-3.831h0c.026.152.843,3.687,5.931,3.562,5.109-.131,6.107-3.5,6.115-3.537h0c-.009.036-.8,3.667-6.108,3.8C1553.4,1716.153,1553.309,1716.154,1553.22,1716.154Z" transform="translate(-1547.552 -1712.323)"/>
        </g>
        <path id="Path_1268" data-name="Path 1268" class="cls-22" d="M1575.386,1731.775h-1.921a.436.436,0,0,1-.435-.435h0a.436.436,0,0,1,.435-.435h1.921a.436.436,0,0,1,.435.435h0A.436.436,0,0,1,1575.386,1731.775Z" transform="translate(-1568.735 -1727.634)"/>
        <path id="Path_1269" data-name="Path 1269" class="cls-32" d="M1563.456,1776.939h-10.027l.072-.819h9.932Z" transform="translate(-1552.438 -1765.225)"/>
      </g>
      <path id="Path_1270" data-name="Path 1270" class="cls-33" d="M2018.181,745.736c-7.216,4.074-7.358.243-9-1.4-1.642-1.662-10.521,11.655-13.054,13.156-2.534,1.52,5.189-12.912,3.041-12.527s-7.5,5.169-7.5,5.169l.02-.081c6.162-13.845,10.5-25.318,12.284-25.318C2005.694,724.736,2011.8,735.337,2018.181,745.736Z" transform="translate(-1558.507 -426.46)"/>
      <path id="Path_1271" data-name="Path 1271" class="cls-33" d="M1515.922,1118.835c-.487-.02-6.75-.243-8.21,0-1.52.264-7.216,11.737-8.514,9.629-1.277-2.108-5.858,2.635-5.858,2.635l.061-.142c3.77-8.432,7.743-15.851,10.237-16.419C1507.084,1113.767,1510.773,1116.342,1515.922,1118.835Z" transform="translate(-1144.202 -750.423)"/>
      <g id="Group_3929" data-name="Group 3929" transform="translate(51.094 476.182)">
        <g id="Group_3437" data-name="Group 3437">
          <path id="Path_1285" data-name="Path 1285" class="cls-34" d="M581.316,471.814c0,.093-123.021.169-274.742.169-151.772,0-274.767-.075-274.767-.169s122.995-.169,274.767-.169C458.294,471.645,581.316,471.72,581.316,471.814Z" transform="translate(-31.807 -471.645)"/>
        </g>
      </g>
    </g>
  </g>
</svg>
