<svg width="46" height="46" viewBox="0 0 46 46" fill="none" xmlns="http://www.w3.org/2000/svg">
<path d="M22.7802 44.36C34.6985 44.36 44.3602 34.6982 44.3602 22.7799C44.3602 10.8616 34.6985 1.19995 22.7802 1.19995C10.8619 1.19995 1.2002 10.8616 1.2002 22.7799C1.2002 34.6982 10.8619 44.36 22.7802 44.36Z" stroke="#3F250E" stroke-width="2"/>
<path d="M29.1699 21.5599C29.1699 27.2799 22.6699 32.1899 22.6699 32.1899C22.6699 32.1899 16.1699 27.2799 16.1699 21.5599C16.1699 17.4899 19.0799 14.1899 22.6699 14.1899C26.2599 14.1899 29.1699 17.4899 29.1699 21.5599Z" stroke="#3F250E" stroke-width="2" stroke-linecap="round" stroke-linejoin="round"/>
<path d="M22.62 18.9999C23.1309 19.0058 23.6287 19.1628 24.0507 19.4509C24.4726 19.7391 24.7999 20.1456 24.9914 20.6194C25.1828 21.0931 25.2298 21.6129 25.1265 22.1134C25.0232 22.6138 24.7742 23.0725 24.4108 23.4317C24.0474 23.7909 23.5859 24.0346 23.0844 24.1321C22.5828 24.2297 22.0636 24.1767 21.592 23.9798C21.1205 23.7829 20.7178 23.4509 20.4345 23.0257C20.1512 22.6004 20 22.1009 20 21.5899C20 21.2473 20.068 20.908 20.2 20.5918C20.332 20.2756 20.5255 19.9887 20.7692 19.7478C21.0129 19.5069 21.3019 19.3168 21.6196 19.1884C21.9373 19.06 22.2774 18.996 22.62 18.9999Z" stroke="#3F250E" stroke-width="2" stroke-linecap="round"/>
</svg>
